<svg width="25" height="25" viewBox="0 0 25 25" fill="none" xmlns="http://www.w3.org/2000/svg">
<path d="M12.5 0C5.5998 0 0 5.5998 0 12.5C0 19.4002 5.5998 25 12.5 25C19.4002 25 25 19.4002 25 12.5C25 5.5998 19.4002 0 12.5 0Z" fill="#1ED760"/>
<path d="M20.5468 11.0128C20.2849 11.0225 20.1213 10.963 19.8898 10.8405C16.2241 8.83298 9.79309 8.55728 5.68573 9.86985C5.50628 9.92695 5.28261 10.016 5.04084 10.0249C4.37598 10.0496 3.84799 9.54971 3.82312 8.87981C3.79769 8.1948 4.20638 7.79125 4.65484 7.64346C6.40855 7.05884 8.3839 6.73835 10.5447 6.65813C14.2216 6.52161 18.1032 7.14415 20.9798 8.68163C21.3811 8.8937 21.6496 9.19645 21.6718 9.79584C21.6973 10.4808 21.1613 10.99 20.5468 11.0128ZM19.1279 14.9089C18.866 14.9186 18.6854 14.8093 18.5005 14.7203C15.2833 12.9736 10.5611 12.3974 6.42762 13.6857C6.18828 13.7601 6.05975 13.8305 5.83309 13.8389C5.29415 13.8589 4.83967 13.437 4.81966 12.898C4.79965 12.3591 5.04829 11.9917 5.56167 11.8264C6.94732 11.3815 8.36695 11.0363 10.4623 10.9585C13.7312 10.8371 16.9194 11.5308 19.4626 12.9193C19.8796 13.1459 20.0523 13.4522 20.0686 13.8904C20.0838 14.4346 19.6769 14.8885 19.1279 14.9089ZM17.8957 18.2633C17.6841 18.2712 17.5507 18.2106 17.35 18.102C14.1367 16.3249 10.4769 16.38 6.89301 17.2545C6.69844 17.3122 6.44456 17.4023 6.29849 17.4078C5.80991 17.4259 5.48827 17.0495 5.47312 16.6415C5.45386 16.1227 5.75194 15.8645 6.12671 15.7699C10.218 14.705 14.4369 14.6291 18.1131 16.6463C18.4276 16.8313 18.6155 17.0009 18.6325 17.4592C18.6495 17.9176 18.3037 18.2482 17.8957 18.2633Z" fill="#342828"/>
</svg>
