<svg width="176" height="130" viewBox="0 0 176 130" fill="none" xmlns="http://www.w3.org/2000/svg">
<path fill-rule="evenodd" clip-rule="evenodd" d="M155.243 117.866H143.219L141.617 94.4316H156.94L155.243 117.866Z" fill="#D3D4D7"/>
<path fill-rule="evenodd" clip-rule="evenodd" d="M146.025 89.2908C146.025 89.2908 147.932 79.865 144.117 76.0526C140.303 72.2403 138.128 70.8774 138.128 70.8774C138.128 70.8774 131.04 82.2149 146.025 89.2908ZM146.897 62.9964C146.897 62.9964 148.804 53.5706 144.989 49.7592C141.175 45.9479 139 44.584 139 44.584C139 44.584 131.91 55.9149 146.897 62.9964Z" fill="#EBEDF0"/>
<path fill-rule="evenodd" clip-rule="evenodd" d="M148.315 47.6699C148.315 47.6699 149.986 41.5332 146.825 38.0456C143.664 34.5582 140.25 33.6877 140.25 33.6877C140.25 33.6877 139.814 43.3485 148.315 47.6699Z" fill="#D3D4D7"/>
<path fill-rule="evenodd" clip-rule="evenodd" d="M151.363 84.3339C151.363 84.3339 150.6 70.6599 159.7 64.9401C159.7 64.9401 159.759 81.0637 151.363 84.3339Z" fill="#EBEDF0"/>
<path fill-rule="evenodd" clip-rule="evenodd" d="M149.194 76.087C149.194 76.087 148.096 66.5715 141.145 63.7093C141.145 63.7093 143.018 74.8295 149.194 76.087ZM153.054 59.9823C153.054 59.9823 147.55 50.2306 158.72 42.9861C158.72 42.9861 163.007 55.183 153.054 59.9823Z" fill="#D3D4D7"/>
<path d="M146.502 42.2229C146.502 42.2229 149.584 48.2509 149.584 57.476V71.2043M143.7 55.7328C143.7 55.7328 146.279 60.3459 146.896 62.9962C147.514 65.6466 148.042 74.1464 148.042 82.7536V101.494M142.828 82.2446C142.828 82.2446 145.712 86.8577 146.025 89.2907C146.338 91.7237 146.025 101.766 146.025 101.766" stroke="#D3D4D7" stroke-width="2" stroke-linecap="round"/>
<path d="M146.758 72.6482C146.758 72.6482 148.491 74.7552 149.191 76.0857C149.891 77.4165 150.462 82.1849 150.462 84.3328V100.349M155.231 52.6279C155.231 52.6279 153.051 56.8773 153.051 59.9822V100.347" stroke="#D3D4D7" stroke-width="2" stroke-linecap="round"/>
<path fill-rule="evenodd" clip-rule="evenodd" d="M35.6133 4.37817H35.824V10.3708H35.6133V4.37817ZM44.8327 10.3708H45.0434V16.3634H44.8327V10.3708ZM38.5504 16.3634H38.7611V22.356H38.5504V16.3634Z" fill="#D3D4D7"/>
<path fill-rule="evenodd" clip-rule="evenodd" d="M27.2456 10.2655H54.2359V10.4762H27.2456V10.2655ZM24.3828 16.2581H51.3732V16.4688H24.3828V16.2581ZM31.6689 22.2506H58.6592V22.4613H31.6689V22.2506Z" fill="#D3D4D7"/>
<path fill-rule="evenodd" clip-rule="evenodd" d="M146.495 2.18896V20.4506H117.188V2.18896H146.495Z" fill="#EBEDF0"/>
<path d="M149.024 22.6386H114.656V0H149.024V22.6386ZM114.762 22.5276H148.918V0.112008H114.762V22.5276Z" fill="#DEE4ED"/>
<path fill-rule="evenodd" clip-rule="evenodd" d="M169.038 121.017C169.038 121.017 177.588 120.876 174.223 122.515C170.858 124.154 141.048 124.511 127.89 126.012C114.732 127.514 83.0799 127.163 102.47 125.053C121.861 122.943 154.576 120.663 169.038 121.017ZM35.874 126.017C35.874 126.017 57.7811 126.521 53.7525 127.902C49.7241 129.283 10.4598 129.143 6.67209 129.011C2.88421 128.879 -6.22982 127.169 6.67209 126.946C19.5737 126.723 35.874 126.017 35.874 126.017Z" fill="#D3D4D7"/>
<path d="M16.9297 14.0512C16.9297 14.0512 66.323 13.3437 53.4412 35.3323C40.5594 57.321 6.50926 83.2718 51.5556 84.1567C96.6019 85.0416 117.846 32.111 155.231 25.8279" stroke="#CE0606" stroke-width="2" stroke-linecap="round" stroke-dasharray="8 8"/>
<path fill-rule="evenodd" clip-rule="evenodd" d="M19.6878 15.427L18.5508 16.6457L9.88281 13.032L19.6878 15.427Z" fill="#AE0909"/>
<path fill-rule="evenodd" clip-rule="evenodd" d="M19.2851 11.4031L20.1415 12.695L19.5624 13.9602L20.8602 14.1809L22.0082 16.6993L9.60547 12.9477L19.2851 11.4031Z" fill="#CE0606"/>
<path fill-rule="evenodd" clip-rule="evenodd" d="M19.5611 13.9601L20.1401 12.6948L13.4219 13.0086L19.5611 13.9601ZM153.059 26.3632L154.197 27.5818L162.865 23.968L153.059 26.3632Z" fill="#710505"/>
<path fill-rule="evenodd" clip-rule="evenodd" d="M153.465 22.3391L152.609 23.631L153.188 24.8962L151.889 25.1171L150.742 27.6353L163.145 23.8839L153.465 22.3391Z" fill="#AE0909"/>
<path fill-rule="evenodd" clip-rule="evenodd" d="M153.184 24.8961L152.605 23.6309L159.324 23.9448L153.184 24.8961Z" fill="#CE0606"/>
<path fill-rule="evenodd" clip-rule="evenodd" d="M124.022 116.722H51.0584C46.9481 116.72 43.6172 113.388 43.6172 109.279V14.1939C43.6172 10.0832 46.9502 6.75098 51.0619 6.75098H77.5997C78.8252 6.7511 80.0318 7.05368 81.1124 7.63187C82.193 8.21006 83.1142 9.04599 83.7943 10.0655L85.3294 12.3687C86.0099 13.3876 86.9313 14.2229 88.0118 14.8005C89.0924 15.3781 90.2988 15.6801 91.524 15.6799H124.022C128.134 15.6823 131.465 19.016 131.463 23.1262V109.279C131.463 113.388 128.132 116.72 124.021 116.722H124.022Z" fill="url(#paint0_linear_1_2997)"/>
<path d="M122.92 24.9871H51.2096C50.3733 24.9871 49.6953 25.665 49.6953 26.5014V32.1566C49.6953 32.9929 50.3733 33.6709 51.2096 33.6709H122.92C123.756 33.6709 124.434 32.9929 124.434 32.1566V26.5014C124.434 25.665 123.756 24.9871 122.92 24.9871Z" fill="#EBEDF0"/>
<path fill-rule="evenodd" clip-rule="evenodd" d="M115.514 33.672H103.23C100.831 33.672 98.8867 31.7278 98.8867 29.3295C98.8867 26.9313 100.831 24.9871 103.23 24.9871H115.514C117.913 24.9871 119.858 26.9313 119.858 29.3295C119.858 31.7278 117.913 33.672 115.514 33.672Z" fill="#CE0606"/>
<path d="M119.947 42.631H55.1312C54.5604 42.631 54.0977 43.0937 54.0977 43.6645V115.688C54.0977 116.259 54.5604 116.722 55.1312 116.722H119.947C120.517 116.722 120.98 116.259 120.98 115.688V43.6645C120.98 43.0937 120.517 42.631 119.947 42.631Z" fill="#EBEDF0"/>
<path fill-rule="evenodd" clip-rule="evenodd" d="M105.531 78.8623H69.5452C67.1295 78.8623 65.1719 78.1671 65.1719 77.3098C65.1719 76.4516 67.1295 75.7574 69.5452 75.7574H105.531C107.947 75.7574 109.904 76.4526 109.904 77.3098C109.904 78.167 107.947 78.8623 105.531 78.8623ZM105.531 73.2322H69.5452C67.1295 73.2322 65.1719 72.537 65.1719 71.6799C65.1719 70.8216 67.1295 70.1275 69.5452 70.1275H105.531C107.947 70.1275 109.904 70.8227 109.904 71.6799C109.904 72.5326 107.947 73.2324 105.531 73.2324L105.531 73.2322ZM105.555 67.7521H69.5697C67.1539 67.7521 65.1952 67.0569 65.1952 66.1996C65.1952 65.3414 67.1539 64.6472 69.5697 64.6472H105.555C107.971 64.6472 109.93 65.3424 109.93 66.1996C109.93 67.0568 107.971 67.7521 105.555 67.7521ZM105.531 84.1562H69.5452C67.1295 84.1562 65.1719 83.5475 65.1719 82.7967C65.1719 82.0459 67.1295 81.4372 69.5452 81.4372H105.531C107.947 81.4372 109.904 82.0459 109.904 82.7967C109.904 83.5452 107.947 84.1562 105.531 84.1562Z" fill="#CE0606"/>
<path d="M71.229 91.698H67.2888C66.9416 91.698 66.6602 91.9794 66.6602 92.3266V96.0606C66.6602 96.4077 66.9416 96.6892 67.2888 96.6892H71.229C71.5762 96.6892 71.8576 96.4077 71.8576 96.0606V92.3266C71.8576 91.9794 71.5762 91.698 71.229 91.698Z" fill="#CE0606"/>
<path fill-rule="evenodd" clip-rule="evenodd" d="M109.296 101.525H96.2081C94.5209 101.525 93.1529 100.158 93.1523 98.4714C93.1523 96.7841 94.5204 95.4163 96.2081 95.4163H109.296C110.984 95.4163 112.352 96.7841 112.352 98.4714C112.351 100.158 110.983 101.525 109.296 101.525Z" fill="#AE0909"/>
<path fill-rule="evenodd" clip-rule="evenodd" d="M105.352 98.4714C105.352 96.7841 103.984 95.4163 102.296 95.4163H96.2038C95.661 95.406 95.1251 95.5404 94.6515 95.8059C94.1779 96.0713 93.7835 96.4582 93.509 96.9266C93.2345 97.395 93.0898 97.928 93.0898 98.4709C93.0898 99.0138 93.2345 99.5468 93.509 100.015C93.7835 100.484 94.1779 100.87 94.6515 101.136C95.1252 101.401 95.661 101.536 96.2038 101.525H102.296C103.984 101.525 105.352 100.158 105.352 98.4714Z" fill="#CE0606"/>
<path fill-rule="evenodd" clip-rule="evenodd" d="M138.147 112.841C138.154 116.766 135.794 120.309 132.168 121.816C128.543 123.324 124.367 122.499 121.587 119.727C118.807 116.955 117.971 112.781 119.469 109.153C120.967 105.525 124.505 103.156 128.431 103.152C129.709 103.138 130.976 103.379 132.16 103.86C133.343 104.342 134.419 105.055 135.324 105.957C136.228 106.859 136.944 107.932 137.429 109.114C137.914 110.296 138.158 111.563 138.147 112.841Z" fill="#AE0909"/>
<path fill-rule="evenodd" clip-rule="evenodd" d="M138.143 112.841C138.147 114.958 137.452 117.017 136.165 118.698C134.683 119.476 133.026 119.858 131.354 119.809C129.681 119.759 128.05 119.278 126.617 118.413C125.185 117.548 124.001 116.328 123.178 114.872C122.355 113.415 121.923 111.77 121.922 110.097C121.914 107.999 122.6 105.956 123.874 104.289C125.352 103.503 127.008 103.112 128.681 103.155C130.355 103.198 131.989 103.673 133.424 104.533C134.86 105.394 136.048 106.611 136.875 108.067C137.701 109.522 138.136 111.167 138.139 112.841H138.143Z" fill="#CE0606"/>
<path fill-rule="evenodd" clip-rule="evenodd" d="M127.798 117.175C127.597 117.175 127.399 117.126 127.221 117.033C127.043 116.939 126.891 116.803 126.777 116.638L124.255 112.943C124.163 112.809 124.099 112.658 124.066 112.499C124.032 112.341 124.03 112.177 124.06 112.017C124.09 111.858 124.151 111.706 124.24 111.57C124.329 111.434 124.443 111.317 124.577 111.226C124.848 111.041 125.18 110.971 125.502 111.031C125.825 111.091 126.109 111.277 126.295 111.548L127.795 113.74L132.01 107.495C132.193 107.223 132.477 107.035 132.798 106.972C133.12 106.91 133.454 106.977 133.725 107.16C133.86 107.251 133.975 107.367 134.065 107.502C134.155 107.638 134.217 107.789 134.248 107.949C134.279 108.108 134.278 108.272 134.246 108.431C134.214 108.59 134.15 108.741 134.06 108.875L128.832 116.63C128.72 116.797 128.568 116.935 128.39 117.03C128.212 117.125 128.014 117.175 127.812 117.175H127.798Z" fill="white"/>
<path d="M87.6057 60.6393C91.3771 60.6018 94.4039 57.5058 94.3663 53.7242C94.3287 49.9426 91.2409 46.9075 87.4694 46.945C83.698 46.9825 80.6711 50.0785 80.7087 53.8601C80.7464 57.6417 83.8342 60.6769 87.6057 60.6393Z" fill="#CC6464"/>
<path fill-rule="evenodd" clip-rule="evenodd" d="M90.5736 56.5689L84.5586 56.6321V55.7539C84.5574 55.486 84.6224 55.2219 84.7478 54.9851C84.8732 54.7483 85.0551 54.5461 85.2774 54.3965L86.4232 53.6259C86.0418 53.3821 85.7496 53.0213 85.5904 52.5976C85.4311 52.1738 85.4133 51.7099 85.5397 51.2752C85.6661 50.8406 85.9298 50.4585 86.2914 50.1862C86.653 49.9139 87.0931 49.766 87.5458 49.7647C87.9985 49.7629 88.4396 49.9078 88.803 50.1776C89.1665 50.4474 89.4329 50.8277 89.5622 51.2615C89.6916 51.6953 89.677 52.1594 89.5206 52.5842C89.3642 53.009 89.0745 53.3718 88.6948 53.6182L89.8437 54.3811C90.0668 54.5295 90.2498 54.7306 90.3767 54.9666C90.5036 55.2025 90.5705 55.466 90.5715 55.734L90.5736 56.569V56.5689Z" fill="white"/>
<path fill-rule="evenodd" clip-rule="evenodd" d="M150.206 47.1885H140.113C139.41 47.1885 138.84 47.7585 138.84 48.4616V57.4005C138.84 57.4727 138.861 57.5433 138.901 57.6034C138.941 57.6635 138.998 57.7103 139.065 57.7379C139.131 57.7655 139.205 57.7726 139.275 57.7583C139.346 57.7441 139.411 57.7091 139.462 57.6578L141.768 55.3524C141.971 55.1503 142.246 55.0366 142.532 55.0363H150.206C150.921 55.0357 151.5 54.4566 151.501 53.7422V48.4826C151.501 47.7678 150.921 47.1885 150.206 47.1885Z" fill="#CC6464"/>
<path fill-rule="evenodd" clip-rule="evenodd" d="M148.988 49.5173H141.778C141.655 49.5176 141.537 49.5668 141.449 49.654C141.362 49.7413 141.313 49.8596 141.312 49.9831C141.313 50.1065 141.362 50.2248 141.449 50.3121C141.537 50.3994 141.655 50.4485 141.778 50.4488H148.988C149.111 50.4485 149.23 50.3994 149.317 50.3121C149.404 50.2248 149.453 50.1065 149.454 49.9831C149.453 49.8596 149.404 49.7413 149.317 49.654C149.23 49.5668 149.111 49.5176 148.988 49.5173ZM146.155 52.1877H141.778C141.655 52.188 141.537 52.2371 141.449 52.3244C141.362 52.4117 141.313 52.53 141.312 52.6534C141.313 52.7769 141.362 52.8952 141.449 52.9824C141.537 53.0697 141.655 53.1189 141.778 53.1192H146.157C146.281 53.1188 146.399 53.0697 146.487 52.9825C146.574 52.8952 146.624 52.7769 146.624 52.6534C146.624 52.5295 146.574 52.4108 146.486 52.3235C146.398 52.2362 146.279 52.1874 146.155 52.1877Z" fill="#560101"/>
<path fill-rule="evenodd" clip-rule="evenodd" d="M43.8425 97.6075C44.7154 98.8363 47.5637 97.7418 49.345 96.8867C50.0305 89.2208 49.4416 81.6947 46.662 78.8824C42.7434 74.917 39.8506 79.9769 40.2711 85.048C40.3976 86.576 40.9088 89.2874 41.5222 92.4955C42.4694 94.863 43.3668 96.9377 43.8425 97.6075Z" fill="#DF3426"/>
<path fill-rule="evenodd" clip-rule="evenodd" d="M44.0279 116.125C43.9346 116.101 43.8438 116.077 43.7539 116.049C43.7995 116.201 43.8938 116.22 44.0279 116.125Z" fill="#EA4335"/>
<path fill-rule="evenodd" clip-rule="evenodd" d="M49.3425 96.8866C47.5611 97.7416 44.7129 98.8361 43.84 97.6074C43.3652 96.9421 42.4679 94.8628 41.5195 92.4954C42.9393 99.925 44.9125 110.037 43.9431 114.341C43.7334 115.272 43.6835 115.82 43.7534 116.054C43.8433 116.082 43.9343 116.106 44.0274 116.131C44.217 115.997 44.4843 115.635 44.8038 115.093C46.9301 111.426 48.6992 104.093 49.3425 96.8866Z" fill="#BF3428"/>
<path fill-rule="evenodd" clip-rule="evenodd" d="M43.7591 116.057C43.8334 116.294 44.0375 116.19 44.3237 115.821C49.4768 101.716 44.0187 79.8692 44.0021 79.7982C43.9869 79.7407 43.9496 79.6916 43.8984 79.6615C43.8472 79.6314 43.7862 79.6227 43.7287 79.6373C43.6711 79.6519 43.6216 79.6886 43.591 79.7395C43.5603 79.7903 43.5509 79.8513 43.5649 79.909C43.5828 79.9756 49.1152 102.122 43.7591 116.057Z" fill="#144421"/>
<path fill-rule="evenodd" clip-rule="evenodd" d="M53.2313 103.701C54.5168 102.527 56.2349 100.068 57.8509 98.1566C58.8924 94.9075 57.9762 91.584 54.4614 93.1309C51.8403 94.2843 49.4247 98.9162 47.7266 104.175C48.1425 108.485 51.7606 105.045 53.2313 103.701Z" fill="#DF3426"/>
<path fill-rule="evenodd" clip-rule="evenodd" d="M45.4044 119.951C45.6095 121.305 45.9479 121.538 46.2429 119.651C47.005 114.783 55.5688 103 57.3344 99.4395C57.5398 99.0237 57.714 98.5933 57.8558 98.1519C56.2398 100.068 54.5217 102.527 53.2362 103.696C51.7655 105.041 48.1473 108.48 47.7313 104.166C45.8702 109.922 44.8719 116.425 45.4044 119.951Z" fill="#CE0606"/>
<path fill-rule="evenodd" clip-rule="evenodd" d="M45.8857 120.956C45.7626 121.105 45.645 120.972 45.543 120.623C45.8569 108.9 56.0999 94.6037 56.1321 94.5637C56.1455 94.5449 56.1624 94.5289 56.1819 94.5167C56.2014 94.5044 56.2231 94.4961 56.2458 94.4922C56.2685 94.4884 56.2918 94.489 56.3142 94.4941C56.3367 94.4993 56.3579 94.5088 56.3767 94.5221C56.3955 94.5354 56.4115 94.5523 56.4238 94.5718C56.436 94.5913 56.4443 94.613 56.4482 94.6358C56.4521 94.6585 56.4514 94.6817 56.4463 94.7042C56.4412 94.7266 56.4317 94.7479 56.4183 94.7667C56.3861 94.8054 46.0021 109.297 45.8857 120.956Z" fill="#144421"/>
<path fill-rule="evenodd" clip-rule="evenodd" d="M39.5569 92.6731C38.958 91.4944 38.7273 90.0704 38.643 88.9859C38.1929 88.458 37.6525 88.0146 37.0469 87.6763C32.923 85.5073 31.8982 90.2678 33.5142 94.2C34.4903 96.5753 37.8898 102.334 40.5286 107.681C41.3626 106.267 40.6162 94.7589 39.5569 92.6731Z" fill="#DF3426"/>
<path fill-rule="evenodd" clip-rule="evenodd" d="M44.7145 116.982C46.1563 110.551 43.3701 94.2896 38.6406 88.9858C38.7249 90.0702 38.9556 91.4941 39.5545 92.6729C40.6139 94.7587 41.3602 106.267 40.5262 107.681C42.2587 111.188 43.663 114.52 43.8415 116.6C44.0167 118.637 44.395 118.413 44.7145 116.982Z" fill="#BF3428"/>
<path fill-rule="evenodd" clip-rule="evenodd" d="M44.129 118.019C44.2488 118.189 44.384 118.055 44.5183 117.687C45.0585 105.149 35.1891 89.1266 35.1569 89.0767C35.1448 89.0543 35.1283 89.0346 35.1083 89.0188C35.0884 89.003 35.0654 88.9915 35.0409 88.9849C35.0163 88.9782 34.9906 88.9767 34.9655 88.9803C34.9403 88.9839 34.9161 88.9926 34.8944 89.0059C34.8727 89.0191 34.8539 89.0367 34.8392 89.0574C34.8245 89.0782 34.8141 89.1017 34.8088 89.1266C34.8035 89.1515 34.8033 89.1772 34.8082 89.2021C34.8132 89.2271 34.8231 89.2508 34.8375 89.2718C34.8686 89.325 44.8732 105.565 44.129 118.019Z" fill="#144421"/>
<path fill-rule="evenodd" clip-rule="evenodd" d="M54.3675 115.04L54.0259 116.706L52.5718 123.874H39.2087L37.7546 116.706L37.4141 115.04H54.3675Z" fill="#CE0606" stroke="#144421"/>
<path opacity="0.68" fill-rule="evenodd" clip-rule="evenodd" d="M54.2311 115.716H48.1842L39.2109 123.874H52.5739L54.2311 115.716Z" fill="#AE0909"/>
<path fill-rule="evenodd" clip-rule="evenodd" d="M35.875 112.853H55.3931V115.716H35.875V112.853Z" fill="#CE0606" stroke="#144421"/>
<path fill-rule="evenodd" clip-rule="evenodd" d="M125.017 61.6865C125.017 61.6865 117.459 68.9866 115.997 70.5512C114.536 72.1159 109.995 80.832 114.327 80.7278C118.66 80.6235 125.276 76.374 125.778 75.1067C126.28 73.8391 125.017 61.6865 125.017 61.6865Z" fill="#C9D9F4"/>
<path fill-rule="evenodd" clip-rule="evenodd" d="M141.728 66.8983C140.419 64.9611 137.883 63.2024 135.68 61.9292C135.68 61.9292 128.643 59.2457 126.069 64.7016C123.495 70.1574 124.437 76.1157 124.437 76.1157C124.437 76.1157 124.326 75.9991 124.137 75.783C124.221 76.67 124.325 78.023 124.437 79.591L142.073 71.1022C142.073 71.1022 142.488 75.956 137.173 79.4002C131.858 82.8444 124.834 85.5724 124.834 85.5724C125.105 89.7963 125.332 93.6343 125.332 93.6343C128.048 93.805 132.222 96.8501 137.129 97.5343C142.036 98.2184 151.228 94.4127 151.228 94.4127C151.228 94.4127 144.338 70.7606 141.728 66.8983Z" fill="white"/>
<path fill-rule="evenodd" clip-rule="evenodd" d="M142.079 71.0988L124.443 79.5877C124.574 81.4151 124.715 83.5366 124.846 85.5691C124.846 85.5691 131.869 82.8413 137.184 79.397C142.499 75.9527 142.079 71.0988 142.079 71.0988ZM126.069 64.7072C128.643 59.2458 135.68 61.9349 135.68 61.9349C134.37 61.177 133.018 60.4933 131.632 59.8868C127.25 58.9996 123.563 62.6902 123.212 63.6348C122.86 64.5796 123.721 72.8266 124.034 74.8626C124.063 75.0511 124.098 75.3671 124.137 75.7852C124.236 75.8969 124.336 76.0078 124.438 76.1179C124.438 76.1179 123.495 70.1675 126.069 64.7072Z" fill="#C9D9F4"/>
<path fill-rule="evenodd" clip-rule="evenodd" d="M129.962 32.4136L136.771 35.8463L110.075 88.7765L103.266 85.3438L129.962 32.4136Z" fill="#CE0606"/>
<path fill-rule="evenodd" clip-rule="evenodd" d="M103.61 85.5154L109.733 88.6026L108.683 90.6848L102.559 87.5976L103.61 85.5154ZM102.682 88.8203L107.627 91.3138L106.577 93.3961L101.631 90.9027L102.682 88.8203ZM101.566 92.1758L105.594 94.2064L104.543 96.2886L100.516 94.2581L101.566 92.1758Z" fill="#CE0606"/>
<path fill-rule="evenodd" clip-rule="evenodd" d="M103.072 96.8458L100.95 95.7756L100.299 97.0742C100.052 97.5622 99.9913 98.1 100.136 98.5026L100.605 99.8066C100.78 100.296 101.403 100.159 101.702 99.5659L103.071 96.8458H103.072Z" fill="#AE0909"/>
<path fill-rule="evenodd" clip-rule="evenodd" d="M108.692 90.6814L102.568 87.5953L102.632 88.9327L107.579 91.4255L108.692 90.6814ZM106.586 93.3938L101.64 90.8998L101.591 92.1807L105.585 94.1944L106.586 93.3938ZM104.553 96.2847L100.524 94.2543L100.387 95.4908L103.64 97.1308L104.553 96.2847ZM133.366 34.1299L136.769 35.8458L110.073 88.7762L106.669 87.0602L133.366 34.1299Z" fill="#AE0909"/>
<path fill-rule="evenodd" clip-rule="evenodd" d="M130.505 31.3347L137.314 34.7673L136.77 35.8466L129.961 32.4139L130.505 31.3347Z" fill="#FBBC05"/>
<path fill-rule="evenodd" clip-rule="evenodd" d="M131.775 30.6208L137.134 33.3225L136.589 34.4018L131.23 31.7002L131.775 30.6208Z" fill="#FBBC05"/>
<path fill-rule="evenodd" clip-rule="evenodd" d="M134.452 31.9717L137.132 33.3228L136.587 34.402L133.907 33.051L134.452 31.9717ZM133.908 33.0513L137.312 34.7673L136.767 35.8465L133.363 34.1305L133.908 33.0513Z" fill="#E0AB10"/>
<path d="M125.367 46.9259L121.747 54.106C121.625 54.3477 121.368 54.4641 121.173 54.3654C120.977 54.2667 120.919 53.9917 121.041 53.7488L124.661 46.5698C124.783 46.328 125.04 46.2115 125.235 46.3103C125.431 46.4089 125.491 46.6839 125.367 46.9256V46.9259ZM120.376 55.9412C120.181 55.8427 119.924 55.9591 119.802 56.2008L112.649 70.3849C112.528 70.6266 112.587 70.9027 112.782 71.0002C112.977 71.098 113.234 70.9826 113.356 70.7409L120.508 56.5568C120.634 56.315 120.575 56.0445 120.376 55.9412Z" fill="#C9D9F4"/>
<path fill-rule="evenodd" clip-rule="evenodd" d="M128.446 55.2883C128.446 55.2883 129.638 54.1307 129.43 52.9385C129.366 52.567 129.695 52.6059 130.168 52.8621C129.996 52.2178 129.865 51.7087 129.804 51.426C129.465 49.8613 121.27 48.432 121.583 51.6877C121.583 51.6877 122.053 60.5068 124.063 60.6632C126.073 60.8196 126.855 60.141 126.855 60.141C126.855 60.141 127.716 59.5543 127.892 59.2016L126.836 61.6869C126.86 62.5506 126.96 63.4766 127.273 63.5853C127.873 63.7937 131.866 63.298 132.597 61.4716C132.597 61.4716 130.535 58.145 130.261 57.3432C129.987 56.5414 129.451 55.3859 128.446 55.2883Z" fill="#FF8277"/>
<path fill-rule="evenodd" clip-rule="evenodd" d="M129.43 52.9394C129.637 54.1316 128.446 55.2893 128.446 55.2893C129.451 55.3868 129.986 56.5413 130.26 57.3441C130.534 58.1469 132.596 61.4725 132.596 61.4725C132.596 61.4725 130.949 55.7805 130.167 52.863C129.692 52.6069 129.365 52.5669 129.43 52.9394ZM127.891 59.2016C127.716 59.5541 126.854 60.1408 126.854 60.1408C126.854 60.1408 126.812 60.887 126.835 61.6865L127.891 59.2015V59.2016Z" fill="#F46256"/>
<path fill-rule="evenodd" clip-rule="evenodd" d="M130.259 51.9873C130.897 51.6623 134.646 48.6217 134.092 47.9807C133.609 47.465 132.197 47.0492 132.197 47.0492C132.197 47.0492 132.138 45.8161 132.04 45.367C131.943 44.9179 129.3 43.8011 126.814 43.7424C124.328 43.6837 117.406 49.1429 117.406 49.1429C117.406 49.1429 120.798 51.74 121.359 51.9617C121.921 52.1835 125.783 50.8916 125.783 50.8916L124.895 51.466L126.762 52.6792L127.231 54.5055L127.871 53.044C128.836 50.6953 129.567 52.6005 129.437 53.462C129.437 53.462 129.619 52.3132 130.259 51.9872V51.9873Z" fill="#CE0606"/>
<path fill-rule="evenodd" clip-rule="evenodd" d="M131.052 56.0678C131.052 56.0678 133.722 49.2213 134.193 48.4972C134.304 48.3209 134.247 48.1456 134.092 47.9805C134.646 48.6213 130.896 51.6621 130.258 51.9869C129.621 52.3119 129.437 53.4618 129.437 53.4618C129.306 54.3223 131.052 56.0678 131.052 56.0678Z" fill="#AE0909"/>
<path fill-rule="evenodd" clip-rule="evenodd" d="M114.441 68.9533C114.572 68.8357 114.698 68.7203 114.814 68.6106C114.675 68.708 114.55 68.8232 114.441 68.9533ZM104.314 76.5594C104.218 76.0138 104.186 75.4589 104.218 74.9059C104.218 74.9059 104.038 76.0458 104.314 76.5593V76.5594Z" fill="black"/>
<path fill-rule="evenodd" clip-rule="evenodd" d="M120.213 64.175C119.979 63.6539 118.752 63.2625 118.151 63.2625C117.55 63.2625 114.472 64.449 114.472 64.449C114.472 64.449 114.263 63.839 114.368 63.3401C114.368 63.3401 113.434 63.6029 113.355 64.3591C113.276 65.1154 112.566 66.1035 112.566 66.1035C111.993 66.8331 104.372 71.689 104.215 74.8971C104.183 75.4501 104.215 76.0049 104.311 76.5505C104.504 76.9075 104.921 76.952 105.782 76.0703C107.754 74.0489 112.192 70.9571 114.433 68.9501C114.542 68.82 114.667 68.7047 114.806 68.6074C115.745 68.0862 118.598 67.3288 118.973 66.8331C119.348 66.3374 120.448 64.694 120.213 64.175H120.213Z" fill="#FF8277"/>
<path fill-rule="evenodd" clip-rule="evenodd" d="M106.355 79.152C106.975 79.1996 112.726 70.8117 114.439 68.95C112.192 70.957 107.754 74.0509 105.787 76.0702C104.926 76.9574 104.509 76.9074 104.316 76.5503C104.664 78.4633 105.812 79.1097 106.355 79.152Z" fill="#F46256"/>
<path fill-rule="evenodd" clip-rule="evenodd" d="M140.32 66.3773C136.632 64.0719 132.615 67.6392 128.445 72.4763C128.445 72.4763 132.591 77.6438 133.54 79.6975C137.686 77.6748 140.638 74.958 141.526 73.5841C142.826 71.5425 141.607 67.1813 140.32 66.3773Z" fill="white"/>
<path fill-rule="evenodd" clip-rule="evenodd" d="M132.288 77.6136C130.723 75.3082 128.447 72.4705 128.447 72.4705C128.369 72.5604 128.29 72.6513 128.213 72.7434C123.131 78.6782 114.955 80.2573 113.676 80.3881C112.397 80.519 109.918 79.1617 109.448 79.3446C108.977 79.5276 110.727 80.5965 110.518 80.6487C110.309 80.7008 107.308 80.8051 106.838 80.8317C106.368 80.8584 105.768 82.8665 105.82 83.0495C105.872 83.2325 107.36 84.0154 108.065 84.1717C108.769 84.3281 110.648 83.8579 112.136 83.676C112.644 83.6129 113.641 83.5396 115.034 83.4166C118.013 83.1315 129.008 81.8108 132.288 77.6136Z" fill="#FF8277"/>
<path fill-rule="evenodd" clip-rule="evenodd" d="M133.538 79.6921C133.291 79.1599 132.831 78.4191 132.284 77.614C129.004 81.8113 118.009 83.1319 115.031 83.417C117.713 83.1808 121.864 82.7638 126.826 81.9023C129.156 81.4835 131.415 80.7395 133.538 79.6922V79.6921Z" fill="#F46256"/>
<path fill-rule="evenodd" clip-rule="evenodd" d="M150.364 94.7455C150.372 94.4548 150.365 94.1638 150.342 93.8739C150.184 92.9869 127.897 91.6051 125.339 93.6266C125.339 93.6266 124.23 93.9937 122.566 94.597C122.573 94.597 129.809 95.0627 132.798 97.3159C135.788 99.5694 146.395 97.1031 150.364 94.7455ZM142.434 101.539C139.875 103.655 134.213 105.097 134.213 105.097C134.213 105.097 137.902 112.495 141.553 117.325C140.859 115.909 140.257 114.048 139.977 111.63C139.288 105.688 141.411 102.637 142.434 101.539ZM142.953 101.054C142.766 101.201 142.593 101.363 142.434 101.539C142.617 101.389 142.791 101.227 142.953 101.054Z" fill="#AE0909"/>
<path fill-rule="evenodd" clip-rule="evenodd" d="M142.953 101.054C142.767 101.201 142.593 101.363 142.434 101.539C142.617 101.389 142.791 101.227 142.953 101.054Z" fill="black"/>
<path fill-rule="evenodd" clip-rule="evenodd" d="M165.732 117.504L165.51 114.096C165.503 113.999 165.459 113.909 165.388 113.842C165.318 113.776 165.225 113.738 165.128 113.737H163.853C163.759 113.737 163.668 113.771 163.598 113.834C163.528 113.897 163.483 113.984 163.473 114.077C157.79 114.28 151.461 114.241 150.861 113.037C149.891 111.092 150.351 98.2885 150.361 94.7499C146.393 97.103 135.787 99.5737 132.796 97.3204C129.804 95.0671 122.57 94.6013 122.564 94.6013C117.694 96.3623 108.056 100.137 107.356 102.645C106.768 104.752 107.651 111.548 108.395 116.339C108.249 116.387 108.126 116.489 108.053 116.625C107.981 116.761 107.964 116.92 108.006 117.068L108.391 118.415C108.418 118.512 108.47 118.6 108.541 118.671C108.612 118.741 108.699 118.793 108.796 118.821C108.843 118.835 108.892 118.844 108.942 118.845L112.454 118.964C112.534 118.967 112.615 118.952 112.69 118.922C112.779 118.888 112.858 118.833 112.921 118.762C112.984 118.69 113.028 118.605 113.051 118.513L113.349 117.31C113.369 117.226 113.371 117.138 113.355 117.053C113.338 116.969 113.303 116.888 113.252 116.818C113.201 116.749 113.136 116.69 113.061 116.648C112.985 116.606 112.901 116.581 112.815 116.574C113.03 112.582 113.351 106.853 114.636 106.483C116.125 106.053 127.894 107.084 134.21 105.1C134.21 105.1 139.866 103.659 142.431 101.542C142.59 101.366 142.764 101.204 142.95 101.057C142.788 101.231 142.615 101.392 142.431 101.542C141.408 102.64 139.285 105.692 139.974 111.633C140.255 114.052 140.861 115.912 141.55 117.328C143.445 119.835 145.33 121.653 146.686 121.383C149.338 120.859 158.11 119.067 163.623 117.938C163.632 117.989 163.651 118.038 163.68 118.081C163.709 118.125 163.746 118.162 163.789 118.19C163.832 118.219 163.881 118.238 163.932 118.247C163.983 118.256 164.036 118.255 164.086 118.243L165.435 117.93C165.523 117.909 165.602 117.857 165.656 117.784C165.71 117.711 165.737 117.621 165.731 117.53L165.732 117.504V117.504Z" fill="#CE0606"/>
<path fill-rule="evenodd" clip-rule="evenodd" d="M112.738 121.405C112.687 120.629 112.665 119.792 112.694 118.922C112.619 118.952 112.538 118.967 112.457 118.964L108.951 118.846C108.902 118.844 108.852 118.835 108.805 118.821C109.061 120.358 109.248 121.353 109.248 121.353L112.748 121.405H112.738ZM165.488 113.994L165.734 117.504L165.512 114.096C165.509 114.061 165.501 114.027 165.488 113.994Z" fill="#FF8277"/>
<path fill-rule="evenodd" clip-rule="evenodd" d="M168.522 113.836C167.6 113.89 166.574 113.947 165.488 113.994C165.5 114.027 165.508 114.061 165.51 114.096L165.732 117.504L168.297 116.978C168.297 116.978 167.983 114.762 168.522 113.836Z" fill="#FF8277"/>
<path d="M163.547 114.703V117.325" stroke="#052D10" stroke-width="2" stroke-linecap="round"/>
<path d="M108.801 116.327L112.358 116.573M110.579 115.669C110.579 115.669 108.843 103.804 112.353 102.286C115.864 100.768 134.054 97.3182 136.984 92.6152" stroke="#C9D9F3" stroke-width="2" stroke-linecap="round"/>
<path fill-rule="evenodd" clip-rule="evenodd" d="M113.228 125.241C112.991 123.974 112.827 122.694 112.737 121.408L109.237 121.356C109.237 121.356 102.114 124.096 100.824 125.197C102.812 125.265 109.306 125.469 113.228 125.241H113.228Z" fill="#CE0606"/>
<path fill-rule="evenodd" clip-rule="evenodd" d="M100.622 125.452C100.504 126.284 113.305 126.02 113.305 125.736C113.305 125.681 113.274 125.508 113.225 125.237C109.303 125.469 102.809 125.265 100.822 125.194C100.729 125.256 100.659 125.347 100.622 125.452Z" fill="#4285F4"/>
<path d="M107.027 122.233L107.421 122.749M106.34 122.515L106.747 123.122M105.781 122.749L106.12 123.349" stroke="#C9D9F3" stroke-width="2" stroke-linecap="round"/>
<path fill-rule="evenodd" clip-rule="evenodd" d="M171.861 120.641C172.114 119.49 172.486 114.687 172.221 113.61C171.641 113.643 170.51 113.721 169.057 113.805L168.522 113.836C167.983 114.762 168.3 116.978 168.3 116.978C168.3 116.978 168.039 119.085 167.569 119.343C167.209 119.544 165.905 120.508 165.262 121.065C165.283 121.067 171.592 121.866 171.861 120.641Z" fill="#AE0909"/>
<path fill-rule="evenodd" clip-rule="evenodd" d="M164.904 121.431C164.799 121.692 170.959 122.214 172.054 121.484C173.15 120.753 173.12 113.634 172.639 113.593C172.604 113.593 172.458 113.593 172.22 113.61C172.485 114.687 172.109 119.488 171.86 120.641C171.591 121.861 165.282 121.067 165.259 121.066C165.123 121.169 165.003 121.292 164.904 121.431Z" fill="#4285F4"/>
<path d="M168.128 117.96L169.182 118.158M168.008 118.46L169.036 118.607M168.233 117.397L169.257 117.59" stroke="#C9D9F3" stroke-width="2" stroke-linecap="round"/>
<path fill-rule="evenodd" clip-rule="evenodd" d="M14.8391 72.1169C15.0155 74.917 15.4259 76.6869 15.5136 77.8002C15.8562 77.7647 16.2212 77.7148 16.6138 77.6483C21.748 76.7856 31.1605 74.4225 33.4975 73.5198C33.656 70.9516 33.9024 67.7767 34.1497 64.787C32.313 65.2994 26.1294 66.9904 23.7046 67.2123C20.842 67.4728 14.5264 67.1601 14.8391 72.1169ZM35.0126 49.8867C35.0126 49.8867 39.7233 49.8867 41.0786 50.0441C40.9743 47.6988 41.0896 45.0007 41.1573 43.7632C37.7977 44.1924 34.5146 44.1867 32.3507 43.8985C28.2401 43.3507 25.8143 43.5069 25.8143 43.5069C25.5925 43.5181 25.3708 43.5349 25.1566 43.5536C25.4158 44.4636 25.6151 45.3898 25.7533 46.3259C25.7533 46.3259 20.2152 47.4881 18.7534 49.0538C17.2916 50.6196 13.4294 48.9163 11.7846 54.3079C10.1397 59.6994 23.0857 64.2881 25.4872 64.3435C27.2329 64.3823 31.876 63.6471 34.2794 63.2434C34.6621 58.7424 35.0126 55.0164 35.0126 55.0164C35.0126 55.0164 35.3653 50.6307 35.0126 49.8866V49.8867Z" fill="white"/>
<path fill-rule="evenodd" clip-rule="evenodd" d="M35.0127 55.0144C37.2148 54.5864 39.3658 53.9282 41.4302 53.0504C41.2373 52.282 41.1308 51.2064 41.0786 50.0432C39.7232 49.8856 35.0127 49.8856 35.0127 49.8856C35.3653 50.6308 35.0127 55.0144 35.0127 55.0144ZM25.4872 64.3414C23.0859 64.2893 10.1419 59.6972 11.7846 54.3057C13.4273 48.9142 17.2927 50.6174 18.7535 49.0516C20.2142 47.4859 25.7533 46.3237 25.7533 46.3237C25.6152 45.3876 25.4159 44.4616 25.1567 43.5515C19.3424 44.0672 15.507 47.3917 13.0124 50.8625C10.4281 54.4633 11.1335 59.1994 11.6814 63.6616C11.962 65.9503 11.667 71.2266 11.301 77.1371C11.9 77.6085 13.1045 78.0521 15.5158 77.8025C15.4283 76.6936 15.0178 74.9193 14.8415 72.1193C14.5286 67.1625 20.8442 67.4752 23.707 67.2145C26.1316 66.9928 32.3152 65.3017 34.1519 64.7894C34.1952 64.267 34.2395 63.7503 34.2817 63.2435C31.8759 63.6449 27.233 64.3802 25.4872 64.3414Z" fill="#C9D9F4"/>
<path fill-rule="evenodd" clip-rule="evenodd" d="M30.1085 31.9202C30.1085 31.9202 27.757 33.4726 25.9558 33.2142C24.1545 32.9558 25.2514 35.0927 24.5992 35.6139C23.947 36.135 25.3036 38.8497 25.3036 38.8497C25.3036 38.8497 24.1556 40.7803 24.7822 42.2673C25.409 43.7545 25.7473 46.2883 25.7527 46.3237C28.0965 47.3029 29.4673 45.3168 29.179 44.7601C28.8905 44.2034 28.3382 40.298 28.3382 40.298C28.945 40.278 30.4323 39.9653 30.7251 37.4802C30.9414 35.6528 30.4068 33.1288 30.1085 31.9202Z" fill="#FF8277"/>
<path fill-rule="evenodd" clip-rule="evenodd" d="M25.3047 38.8496C25.3047 38.8496 23.948 36.1361 24.6002 35.6138C25.2524 35.0915 24.1566 32.9523 25.9567 33.2141C27.757 33.4758 30.1094 31.92 30.1094 31.92C30.095 31.8657 30.0828 31.8091 30.0694 31.7648C29.983 31.4221 29.9243 31.218 29.9243 31.218C29.9243 31.218 22.9565 29.3584 21.8007 32.0198C20.645 34.6812 23.4256 35.5617 23.4256 35.5617C23.9547 37.1086 22.6825 44.0161 22.6825 44.0161C22.6825 44.0161 23.154 45.0662 25.3511 46.1395C25.4396 46.183 25.5287 46.2252 25.6184 46.2661C25.664 46.2871 25.7083 46.3047 25.7538 46.3236C25.7483 46.2882 25.4044 43.7444 24.7832 42.2672C24.1622 40.7902 25.3047 38.8496 25.3047 38.8496Z" fill="#F46256"/>
<path fill-rule="evenodd" clip-rule="evenodd" d="M31.3335 24.1531C30.3541 23.8404 29.1995 25.7777 29.1407 24.8185C29.0819 23.8593 28.1847 21.1202 27.5269 22.8036C27.3716 23.2018 27.2296 23.5853 27.0832 23.9447C26.8433 25.1091 26.1559 26.1329 25.1689 26.7956C23.5239 27.8713 20.0013 31.5507 21.8213 31.5696C23.6415 31.5884 24.5609 32.8603 24.3369 35.3166C24.3924 35.3653 24.4601 35.3066 24.5421 35.0726C24.9137 34.0158 24.7184 33.3116 25.3052 32.9402C25.8919 32.5686 27.9449 33.7774 30.1101 31.92C32.2751 30.0625 32.3118 24.467 31.3335 24.1531Z" fill="#CE0606"/>
<path fill-rule="evenodd" clip-rule="evenodd" d="M21.8206 31.57C20.0006 31.5511 23.5233 27.8717 25.1681 26.796C26.1551 26.1333 26.8426 25.1095 27.0825 23.9451C26.6067 25.1016 26.0699 25.9932 24.8154 26.2471C23.1717 26.5798 23.1717 26.8349 22.9365 27.05C22.7014 27.2651 16.9471 32.2941 18.7282 33.7034C20.5096 35.1129 23.359 36.7529 23.4977 38.0459C23.4977 38.0459 23.9325 36.0322 23.6386 35.328C23.6386 35.328 21.936 35.308 22.0148 34.2125C22.0934 33.1169 22.9731 32.8419 24.0889 33.6247C24.0889 33.6247 24.1366 35.1462 24.334 35.317C24.5604 32.8607 23.6407 31.5898 21.8208 31.57H21.8206Z" fill="#AE0909"/>
<path fill-rule="evenodd" clip-rule="evenodd" d="M20.0335 53.5394C17.8938 52.2875 14.3446 48.964 12.2693 52.7132C11.9843 53.2277 10.5866 57.3618 13.0524 59.9056C14.5507 61.4514 17.4568 63.4443 20.8897 64.6396C21.6406 61.701 23.5727 57.2764 24.3869 55.4712C22.4713 54.7769 20.9086 54.0484 20.0335 53.5394Z" fill="white"/>
<path fill-rule="evenodd" clip-rule="evenodd" d="M50.004 44.868L49.6558 41.4304C47.2644 42.6347 44.181 43.3732 41.1596 43.7591C41.0919 44.9967 40.9766 47.6947 41.081 50.0401C41.081 50.0445 49.9342 48.1992 50.004 44.868Z" fill="#FF8277"/>
<path fill-rule="evenodd" clip-rule="evenodd" d="M50.2837 47.6168L50.0053 44.8679C49.9354 48.1946 41.082 50.0442 41.082 50.0442C41.1342 51.2075 41.2407 52.2831 41.4336 53.0515C46.9317 50.7295 50.2837 47.6168 50.2837 47.6168Z" fill="#F46256"/>
<path fill-rule="evenodd" clip-rule="evenodd" d="M13.6425 95.6614C13.6425 93.061 15.5171 77.8002 15.5171 77.8002C13.1079 78.0541 11.9034 77.6105 11.3022 77.1348C10.9562 82.7471 10.5458 88.9303 10.5081 93.6765C10.4449 101.594 7.33257 113.927 5.81641 119.383C5.81641 119.383 13.6425 98.2618 13.6425 95.6614ZM29.6667 99.4617C29.9794 94.8695 24.8119 84.7453 24.8119 84.7453C24.7076 85.9984 22.7243 88.5555 22.7243 88.5555C27.7157 96.6816 29.548 107.542 30.2667 114.599C30.2667 114.599 29.3528 104.054 29.6667 99.4617Z" fill="#AE0909"/>
<path fill-rule="evenodd" clip-rule="evenodd" d="M9.92305 121.103L5.95657 119.94C5.86219 119.913 5.77452 119.866 5.69926 119.803C5.40759 120.843 5.18677 121.578 5.07703 121.927C5.046 122.026 5.01376 122.124 4.98047 122.224L9.48927 123.013C9.48927 123.013 9.78867 122.293 10.2812 121.114C10.1626 121.141 10.0396 121.137 9.92305 121.103ZM31.1966 120.07C31.0177 120.08 30.8397 120.036 30.6865 119.943C30.7441 120.949 30.774 121.585 30.8073 121.744C30.845 122.034 30.8477 122.328 30.815 122.619L35.0299 122.214C35.0077 122.079 35.0743 121.154 35.1951 119.752C35.0865 119.809 34.9671 119.842 34.8448 119.849L31.1966 120.07Z" fill="#FF8277"/>
<path fill-rule="evenodd" clip-rule="evenodd" d="M33.6857 77.3156C33.5892 76.72 33.3463 76.0504 33.5016 73.5198C31.1646 74.4225 21.7521 76.7854 16.6179 77.6482C16.2253 77.7148 15.8603 77.7591 15.5177 77.8002C15.5177 77.8002 13.6431 93.061 13.6431 95.6614C13.6431 97.8116 8.29365 112.628 6.44133 117.693C6.26328 117.671 6.08325 117.715 5.93585 117.817C5.78845 117.92 5.68407 118.073 5.64276 118.248L5.45537 119.076C5.42569 119.207 5.43309 119.345 5.47676 119.472C5.52043 119.599 5.59865 119.712 5.70269 119.798C5.77794 119.861 5.86561 119.907 5.96 119.934L9.92635 121.098C10.0429 121.132 10.1661 121.135 10.2846 121.109C10.3912 121.086 10.4913 121.04 10.5775 120.973C10.6637 120.906 10.7339 120.821 10.7827 120.724L11.1154 120.059C11.1754 119.938 11.2007 119.803 11.1885 119.669C11.1764 119.535 11.1272 119.407 11.0466 119.299C13.1684 114.25 16.9141 105.438 18.6553 101.961C21.1611 96.9511 22.7272 88.55 22.7272 88.55C22.7272 88.55 24.7103 85.9928 24.8147 84.7397C24.8147 84.7397 29.9822 94.8641 29.6694 99.4561C29.3567 104.048 30.2727 114.595 30.2727 114.595C30.3838 115.631 30.4614 116.584 30.5268 117.435C30.3911 117.527 30.2835 117.654 30.2159 117.804C30.1484 117.953 30.1235 118.118 30.1442 118.281L30.2728 119.294C30.3019 119.517 30.4142 119.72 30.587 119.863C30.7599 120.006 30.9805 120.078 31.2044 120.065L34.8581 119.843C34.9805 119.837 35.1 119.804 35.2086 119.747C35.3318 119.684 35.4385 119.592 35.5202 119.481C35.6018 119.369 35.6561 119.239 35.6788 119.103L35.8552 118.013C35.8815 117.841 35.857 117.666 35.7847 117.508C35.7123 117.35 35.5953 117.217 35.4482 117.126C35.9849 111.429 36.8901 102.724 37.1307 100.556C37.4956 97.3225 34.0518 79.5601 33.6857 77.3156Z" fill="#CE0606"/>
<path d="M30.692 117.381L35.073 117.087M6.67188 117.831L10.4696 119.095M8.57081 117.831C8.57081 117.831 13.7972 102.698 14.2142 98.5747C14.6312 94.4517 15.5153 77.8003 15.5153 77.8003" stroke="#C9D9F3" stroke-width="2" stroke-linecap="round"/>
<path opacity="0.1" fill-rule="evenodd" clip-rule="evenodd" d="M80.4647 40.9401L66.5581 30.8123C66.0706 30.4615 65.4951 30.2534 64.896 30.2113C64.297 30.1692 63.698 30.2948 63.1663 30.5739C62.7155 30.8023 62.3208 31.1275 62.0105 31.5264L55.7128 40.1759C55.5084 40.0408 55.2709 39.9641 55.0261 39.9542C54.9386 39.9675 55.0339 40.5752 55.0096 41.174L54.3951 41.9824C54.2049 41.8634 54.054 41.691 53.9614 41.4867C53.8928 41.474 53.8225 41.474 53.7539 41.4867L56.5711 59.4088C56.8347 59.2965 57.0808 59.1472 57.3022 58.9653L63.8374 63.7237C65.2792 64.7727 67.2236 64.4999 68.2828 63.1137C68.3229 63.0855 68.3575 63.0502 68.3849 63.0095L81.1802 45.4865C81.5558 44.9796 81.7605 44.3664 81.7647 43.7355C81.8004 43.1979 81.7 42.6599 81.4728 42.1713C81.2456 41.6827 80.8989 41.2592 80.4648 40.94L80.4647 40.9401Z" fill="black"/>
<path fill-rule="evenodd" clip-rule="evenodd" d="M57.0061 26.7313L74.4259 39.4165C74.5425 39.5014 74.6412 39.6084 74.7164 39.7313C74.7916 39.8543 74.8418 39.9909 74.8642 40.1333C74.8865 40.2757 74.8807 40.4212 74.8468 40.5613C74.813 40.7014 74.7519 40.8335 74.667 40.95L59.3145 62.021C59.1432 62.2562 58.8854 62.4137 58.5979 62.4589C58.3105 62.5041 58.0168 62.4332 57.7816 62.2619L40.3616 49.5769C40.2451 49.492 40.1464 49.3851 40.0712 49.2621C39.9961 49.1391 39.9459 49.0026 39.9235 48.8602C39.9011 48.7178 39.907 48.5724 39.9408 48.4323C39.9746 48.2922 40.0356 48.1601 40.1205 48.0436L40.1206 48.0435L55.4728 26.9725C55.6442 26.7373 55.9019 26.5798 56.1894 26.5346C56.4769 26.4894 56.7705 26.5602 57.0058 26.7315L57.0061 26.7313Z" fill="#FE9696"/>
<path fill-rule="evenodd" clip-rule="evenodd" d="M55.5769 31.2473L59.5568 34.1453C59.6029 34.1789 59.642 34.2212 59.6717 34.2699C59.7015 34.3185 59.7213 34.3726 59.7302 34.4289C59.739 34.4852 59.7367 34.5428 59.7233 34.5982C59.7099 34.6536 59.6858 34.7059 59.6522 34.752L56.753 38.7307C56.6853 38.8238 56.5833 38.8861 56.4695 38.904C56.3558 38.9219 56.2396 38.8938 56.1465 38.8261L52.1666 35.928C52.1205 35.8944 52.0815 35.8521 52.0517 35.8035C52.022 35.7548 52.0021 35.7008 51.9933 35.6444C51.9844 35.5881 51.9867 35.5306 52.0001 35.4751C52.0135 35.4197 52.0377 35.3674 52.0712 35.3213L54.9704 31.3426C55.0382 31.2495 55.1402 31.1872 55.2539 31.1693C55.3676 31.1515 55.4838 31.1795 55.5769 31.2473ZM61.2083 36.7529L69.7728 42.9899C69.8753 43.0646 69.944 43.1769 69.9637 43.3021C69.9834 43.4274 69.9525 43.5553 69.8779 43.6578L68.3673 45.7308C68.2927 45.8333 68.1804 45.902 68.0551 45.9216C67.9299 45.9413 67.8019 45.9104 67.6994 45.8358L59.1349 39.5988C59.0324 39.5242 58.9638 39.4119 58.944 39.2866C58.9243 39.1614 58.9552 39.0334 59.0298 38.9309L60.5404 36.858C60.6151 36.7555 60.7274 36.6869 60.8526 36.6672C60.9779 36.6476 61.1058 36.6784 61.2083 36.7531V36.7529ZM50.9271 37.6299L54.907 40.528C54.9531 40.5616 54.9921 40.6039 55.0219 40.6526C55.0516 40.7012 55.0715 40.7553 55.0803 40.8116C55.0892 40.8679 55.0869 40.9255 55.0735 40.9809C55.0601 41.0363 55.0359 41.0886 55.0023 41.1347L52.1032 45.1134C52.0354 45.2065 51.9334 45.2688 51.8197 45.2867C51.7059 45.3046 51.5898 45.2765 51.4967 45.2088L47.5168 42.3107C47.4707 42.2771 47.4316 42.2348 47.4019 42.1861C47.3721 42.1375 47.3523 42.0835 47.3434 42.0271C47.3346 41.9708 47.3369 41.9133 47.3503 41.8578C47.3636 41.8024 47.3878 41.7501 47.4214 41.704L50.3205 37.7253C50.3883 37.6322 50.4903 37.5699 50.6041 37.552C50.7178 37.5341 50.834 37.5622 50.9271 37.6299ZM56.5586 43.1358L65.123 49.3726C65.1737 49.4096 65.2167 49.4562 65.2495 49.5098C65.2822 49.5634 65.3041 49.6229 65.3138 49.6849C65.3236 49.7469 65.321 49.8103 65.3063 49.8713C65.2915 49.9324 65.2649 49.9899 65.2279 50.0407L63.7176 52.1135C63.6807 52.1643 63.634 52.2073 63.5805 52.24C63.5269 52.2728 63.4674 52.2947 63.4053 52.3044C63.3433 52.3141 63.28 52.3116 63.2189 52.2968C63.1579 52.2821 63.1003 52.2555 63.0496 52.2185L54.4851 45.9816C54.3826 45.907 54.314 45.7947 54.2943 45.6694C54.2746 45.5442 54.3055 45.4162 54.3801 45.3137L55.8905 43.2407C55.9652 43.1382 56.0775 43.0696 56.2028 43.0499C56.328 43.0302 56.456 43.0611 56.5585 43.1358H56.5586ZM46.2765 44.0132L50.2563 46.9113C50.3494 46.979 50.4117 47.081 50.4296 47.1948C50.4475 47.3085 50.4195 47.4247 50.3517 47.5178L47.4526 51.4968C47.3847 51.5898 47.2828 51.6521 47.169 51.67C47.0553 51.6878 46.9391 51.6598 46.846 51.592L42.8661 48.6939C42.82 48.6604 42.781 48.618 42.7512 48.5694C42.7215 48.5207 42.7016 48.4667 42.6928 48.4103C42.6839 48.354 42.6862 48.2965 42.6996 48.2411C42.713 48.1856 42.7372 48.1334 42.7708 48.0873L45.6699 44.1085C45.7377 44.0155 45.8397 43.9532 45.9534 43.9353C46.0672 43.9175 46.1834 43.9455 46.2764 44.0133L46.2765 44.0132ZM51.9084 49.6988L60.4924 55.9499C60.5949 56.0245 60.6636 56.1368 60.6833 56.2621C60.703 56.3874 60.6722 56.5153 60.5975 56.6178L59.0827 58.6968C59.008 58.7993 58.8957 58.8679 58.7705 58.8876C58.6452 58.9073 58.5173 58.8764 58.4148 58.8018L49.8306 52.5508C49.7798 52.5138 49.7368 52.4672 49.704 52.4137C49.6713 52.3601 49.6494 52.3006 49.6396 52.2385C49.6299 52.1765 49.6324 52.1131 49.6472 52.0521C49.6619 51.991 49.6885 51.9335 49.7255 51.8827L51.2404 49.8037C51.3151 49.7013 51.4274 49.6327 51.5527 49.613C51.6779 49.5934 51.8059 49.6243 51.9084 49.6989V49.6988Z" fill="#AE0909"/>
<path fill-rule="evenodd" clip-rule="evenodd" d="M49.8429 42.5369C49.7884 42.4974 49.7444 42.4453 49.7146 42.385C49.6849 42.3247 49.6702 42.2581 49.672 42.1909L49.7164 40.6927C49.718 40.6384 49.7303 40.5849 49.7525 40.5353C49.7748 40.4857 49.8066 40.441 49.8462 40.4037C49.8857 40.3665 49.9322 40.3373 49.983 40.318C50.0338 40.2987 50.0879 40.2896 50.1422 40.2912C50.1966 40.2928 50.25 40.3051 50.2996 40.3273C50.3492 40.3496 50.3939 40.3814 50.4312 40.421C50.4684 40.4605 50.4976 40.507 50.5169 40.5578C50.5362 40.6086 50.5453 40.6627 50.5437 40.7171L50.5171 41.6042L52.8875 40.7414C52.9393 40.7187 52.9953 40.7068 53.0519 40.7066C53.1085 40.7064 53.1646 40.7178 53.2166 40.74C53.2686 40.7623 53.3155 40.7951 53.3544 40.8362C53.3933 40.8774 53.4233 40.9261 53.4426 40.9793C53.4619 41.0325 53.4701 41.0891 53.4667 41.1456C53.4632 41.2021 53.4482 41.2573 53.4226 41.3078C53.3969 41.3582 53.3612 41.4029 53.3176 41.439C53.2741 41.4752 53.2235 41.5019 53.1692 41.5178L50.2266 42.5856C50.0981 42.6322 49.9549 42.6123 49.8438 42.5323L49.8429 42.5369Z" fill="#E6EDF8"/>
<path fill-rule="evenodd" clip-rule="evenodd" d="M53.4397 53.1747C53.0748 53.2001 50.8032 54.9488 50.4127 55.184C50.0224 55.4191 49.0552 55.7052 49.0552 55.7052L47.8351 54.8247C47.8351 54.8247 47.8517 56.0955 47.3559 56.3306C46.8602 56.5657 39.3433 57.791 33.8885 57.5571C30.663 57.4173 27.1559 56.4759 24.3841 55.4701C23.8118 56.7397 22.6871 59.3035 21.8086 61.7355C21.8086 61.7355 25.6596 66.2276 41.8057 61.7355C45.3551 60.449 48.128 59.3147 48.3997 59.1961C49.0252 58.9265 51.8968 58.157 52.5224 57.4218C53.1479 56.6866 54.2716 55.0997 54.2716 54.8391C54.2716 54.5786 53.8047 53.148 53.4397 53.1747Z" fill="#FF8277"/>
<path fill-rule="evenodd" clip-rule="evenodd" d="M21.8124 61.7363C21.4408 62.7632 21.1134 63.7667 20.8906 64.6395C23.1089 65.4157 25.549 65.8514 27.968 65.6197C31.4321 65.287 37.2585 63.3875 41.8094 61.7386C25.6633 66.2285 21.8123 61.7363 21.8123 61.7363H21.8124Z" fill="#F46256"/>
<path fill-rule="evenodd" clip-rule="evenodd" d="M35.0416 122.214L30.8268 122.619C30.7258 123.959 30.3088 126.208 30.2578 127.238C31.8251 127.12 38.3935 126.637 42.2368 126.519C40.0528 125.282 35.1226 122.702 35.0416 122.214Z" fill="#CE0606"/>
<path fill-rule="evenodd" clip-rule="evenodd" d="M30.2898 127.746C30.5515 128.215 43.2349 127.432 43.2349 127.171C43.2349 127.114 42.84 126.871 42.2244 126.519C38.3867 126.637 31.8182 127.12 30.2509 127.238C30.2388 127.491 30.2488 127.67 30.2898 127.746Z" fill="#4285F4"/>
<path d="M36.4052 123.24L35.6953 123.875M37.0929 123.651L36.3231 124.319M37.7485 124.029L37.0929 124.726" stroke="#C9D9F3" stroke-width="2" stroke-linecap="round"/>
<path fill-rule="evenodd" clip-rule="evenodd" d="M16.3664 127.374C14.635 126.09 9.48961 123.013 9.48961 123.013L4.98081 122.224C4.41185 123.91 3.51899 125.795 3.24609 126.67C5.27808 126.863 12.9801 127.569 16.3664 127.374Z" fill="#CE0606"/>
<path fill-rule="evenodd" clip-rule="evenodd" d="M16.9281 127.892C16.9281 127.82 16.7174 127.634 16.367 127.374C12.9807 127.564 5.27547 126.863 3.24894 126.67C3.2048 126.793 3.17756 126.921 3.16797 127.051C3.16797 127.609 16.9281 128.323 16.9281 127.892Z" fill="#4285F4"/>
<path d="M10.6672 123.722L9.57031 124.259M11.3394 124.133L10.2835 124.723M11.9618 124.515L10.9456 125.186" stroke="#C9D9F3" stroke-width="2" stroke-linecap="round"/>
<defs>
<linearGradient id="paint0_linear_1_2997" x1="4385.74" y1="-1132.33" x2="4526.43" y2="11534.1" gradientUnits="userSpaceOnUse">
<stop stop-color="#A61010"/>
<stop offset="0.81" stop-color="#EF4A4A"/>
<stop offset="1" stop-color="#CE0606"/>
</linearGradient>
</defs>
</svg>
