<svg width="194" height="161" viewBox="0 0 194 161" fill="none" xmlns="http://www.w3.org/2000/svg">
<path d="M16.9987 69.8647V78.8519M30.8203 78.8519V87.8406M21.4012 87.8404V96.8276M4.29197 78.8519H44.7542M0 87.8404H40.4622M10.924 96.8276H51.3862" stroke="#D4D6D8" stroke-width="2"/>
<path fill-rule="evenodd" clip-rule="evenodd" d="M158.652 22.3345H158.968V31.3213H158.652V22.3345ZM172.474 31.3232H172.79V40.31H172.474V31.3232ZM163.055 40.3102H163.371V49.297H163.055V40.3102Z" fill="#DBDCDD"/>
<path fill-rule="evenodd" clip-rule="evenodd" d="M146.104 31.165H186.567V31.4808H146.104V31.165ZM141.812 40.152H182.275V40.468H141.812V40.152ZM152.736 49.1407H193.199V49.4565H152.736V49.1407Z" fill="#DBDCDD"/>
<path fill-rule="evenodd" clip-rule="evenodd" d="M178.671 80.9713L179.98 85.3496C179.993 85.3932 180.028 85.4272 180.072 85.438C180.094 85.4436 180.117 85.4435 180.138 85.4375C180.16 85.4316 180.18 85.4201 180.196 85.4041C180.212 85.3882 180.223 85.3683 180.229 85.3465C180.235 85.3248 180.235 85.3018 180.23 85.28L178.867 80.7202C184.35 73.4974 192.365 68.2424 192.365 68.2424C192.365 68.2424 190.731 72.1169 191.343 80.7754L188.316 83.5221C188.291 83.5451 188.275 83.5774 188.273 83.6117C188.272 83.6461 188.284 83.6798 188.307 83.7053C188.33 83.7309 188.362 83.7462 188.396 83.748C188.431 83.7498 188.464 83.7378 188.49 83.7148L191.362 81.1009C191.386 81.4167 191.411 81.723 191.441 82.0485C191.782 85.7538 191.552 91.8206 190.421 96.9712L187.246 98.0531C187.219 98.0621 187.197 98.0794 187.181 98.1024C187.165 98.1253 187.157 98.1528 187.158 98.1806C187.159 98.2084 187.169 98.2351 187.187 98.2568C187.204 98.2785 187.228 98.294 187.255 98.301C187.279 98.308 187.305 98.308 187.329 98.301L190.355 97.2711C188.536 105.246 184.512 110.84 177.029 101.626C171.39 94.6841 174.076 87.1295 178.671 80.9713Z" fill="#ECEEF2"/>
<path fill-rule="evenodd" clip-rule="evenodd" d="M174.125 120.284L181.045 95.6438L181.349 95.7292L174.429 120.369L174.125 120.284Z" fill="#DBDCDD"/>
<path fill-rule="evenodd" clip-rule="evenodd" d="M178.653 56.7283L175.771 61.5157C175.757 61.539 175.737 61.5582 175.713 61.5715C175.689 61.5848 175.662 61.5917 175.635 61.5916C175.607 61.5918 175.579 61.5845 175.555 61.5704C175.531 61.5563 175.51 61.5359 175.497 61.5114C175.483 61.487 175.476 61.4592 175.476 61.4311C175.477 61.4029 175.485 61.3754 175.499 61.3514L178.5 56.3715C174.214 46.1556 166.331 37.5017 166.331 37.5017C166.331 37.5017 167.083 42.5829 163.718 52.6408L166.462 56.8137C166.475 56.8309 166.483 56.8506 166.488 56.8713C166.493 56.8921 166.493 56.9136 166.489 56.9345C166.485 56.9554 166.477 56.9754 166.466 56.9931C166.454 57.0108 166.439 57.026 166.421 57.0377C166.403 57.0494 166.383 57.0574 166.362 57.0612C166.341 57.065 166.32 57.0646 166.299 57.0599C166.278 57.0552 166.259 57.0463 166.241 57.0339C166.224 57.0214 166.21 57.0056 166.199 56.9874L163.59 53.0213C163.466 53.3867 163.339 53.7511 163.209 54.1144C161.678 58.3948 160.1 65.6444 159.87 72.0806L163.296 74.3282C163.331 74.3513 163.356 74.3874 163.365 74.4285C163.373 74.4697 163.365 74.5126 163.342 74.5478C163.319 74.583 163.283 74.6076 163.242 74.6162C163.201 74.6248 163.158 74.6166 163.122 74.5936L159.857 72.4503C159.577 82.4418 162.633 90.2869 174.295 81.6664C183.085 75.1622 182.209 65.4154 178.653 56.7283Z" fill="#ECEEF2"/>
<path fill-rule="evenodd" clip-rule="evenodd" d="M167.113 120.324L169.352 65.7651L169.667 65.778L167.429 120.337L167.113 120.324Z" fill="#DBDCDD"/>
<path fill-rule="evenodd" clip-rule="evenodd" d="M159.002 76.1792L157.137 81.4404C157.128 81.4663 157.112 81.4894 157.091 81.5074C157.071 81.5254 157.045 81.5377 157.019 81.543C156.991 81.55 156.962 81.55 156.935 81.543C156.915 81.5361 156.897 81.5254 156.882 81.5115C156.866 81.4975 156.853 81.4807 156.844 81.4619C156.836 81.4431 156.83 81.4228 156.829 81.402C156.828 81.3812 156.831 81.3604 156.838 81.3408L158.782 75.8601C152.537 66.7104 143.08 59.8114 143.08 59.8114C143.08 59.8114 144.836 64.6397 143.554 75.1684L147.08 78.7064C147.095 78.7211 147.106 78.7386 147.114 78.7578C147.122 78.777 147.126 78.7977 147.126 78.8185C147.126 78.8394 147.122 78.86 147.114 78.8793C147.106 78.8985 147.095 78.916 147.08 78.9307C147.065 78.9454 147.047 78.957 147.028 78.9649C147.009 78.9728 146.988 78.9767 146.967 78.9766C146.947 78.9764 146.926 78.9722 146.907 78.964C146.887 78.9559 146.87 78.944 146.856 78.9291L143.506 75.5662C143.459 75.9421 143.407 76.3228 143.348 76.7129C142.704 81.2128 142.613 88.6298 143.675 94.9855L147.484 96.5002C147.503 96.5079 147.521 96.5193 147.536 96.5337C147.551 96.5482 147.562 96.5655 147.571 96.5845C147.579 96.6036 147.583 96.6241 147.584 96.6449C147.584 96.6656 147.58 96.6862 147.572 96.7055C147.565 96.7248 147.553 96.7424 147.539 96.7573C147.524 96.7722 147.507 96.7841 147.488 96.7923C147.469 96.8005 147.449 96.8049 147.428 96.8052C147.407 96.8055 147.386 96.8017 147.367 96.794L143.735 95.3504C145.463 105.194 150.028 112.268 159.727 101.483C167.039 93.3508 164.227 83.9767 159.002 76.179V76.1792ZM151.784 114.391H183.296L176.192 151.477H158.135L151.784 114.391ZM61.5887 16.5962V43.9853H17.6523V16.5962H61.5887Z" fill="#ECEEF2"/>
<path d="M65.3855 47.2676H13.8633V13.3093H65.3855V47.2676ZM14.0213 47.1001H65.2275V13.4831H14.0215L14.0213 47.1001Z" fill="#E0E6EF"/>
<path fill-rule="evenodd" clip-rule="evenodd" d="M155.476 91.9073L155.784 91.8376L162.208 120.281L161.9 120.35L155.476 91.9073ZM71.8887 144.585C71.8887 144.585 168.277 147.16 167.274 152.482C166.272 157.805 111.411 160.808 90.3543 160.808C69.2973 160.808 44.2879 156.813 30.7931 156.385C17.2983 155.957 -10.446 154.016 13.2655 149.142C36.9767 144.268 71.8887 144.585 71.8887 144.585V144.585Z" fill="#DBDCDD"/>
<path d="M44.2188 92.9419V144.415M90.3545 92.9419V144.415M81.6602 92.9419V152.813" stroke="#CE0606" stroke-width="5" stroke-linecap="square"/>
<path fill-rule="evenodd" clip-rule="evenodd" d="M28.5195 88.8657H97.3293V91.8271H28.5195V88.8657Z" fill="#C9D8F0"/>
<path fill-rule="evenodd" clip-rule="evenodd" d="M30.4492 91.8904H95.3951V93.9531H30.4492V91.8904Z" fill="#4285F4"/>
<path fill-rule="evenodd" clip-rule="evenodd" d="M53.5721 87.2813L40.2383 64.504L38.5898 64.5007L52.6294 88.4815V88.8654H90.1388V87.2813H53.5721Z" fill="#1F2320"/>
<path d="M94.4897 71.7188H90.1992L91.3676 59.8271L96.5787 60.2917C96.7493 60.3068 96.9146 60.3582 97.0636 60.4425C97.2126 60.5268 97.3418 60.642 97.4427 60.7804C97.5435 60.9188 97.6135 61.0771 97.648 61.2448C97.6826 61.4125 97.6809 61.5856 97.643 61.7525L95.5759 70.8533C95.5211 71.1 95.3834 71.3205 95.1857 71.478C94.988 71.6355 94.7424 71.7205 94.4897 71.7188ZM91.3961 70.6132H94.1137C94.228 70.6129 94.3388 70.5738 94.428 70.5024C94.5173 70.431 94.5796 70.3314 94.605 70.22L96.4744 61.9894C96.4909 61.9173 96.4918 61.8425 96.4769 61.77C96.4621 61.6975 96.4319 61.629 96.3883 61.5692C96.3448 61.5094 96.289 61.4595 96.2246 61.4231C96.1602 61.3866 96.0887 61.3644 96.015 61.3578L92.3372 61.0291L91.3963 70.6134L91.3961 70.6132Z" fill="#CE0606"/>
<path fill-rule="evenodd" clip-rule="evenodd" d="M91.1194 76.3973H82.9539L80.9297 57.9351H92.4111L91.1194 76.3973Z" fill="#DF3426"/>
<path fill-rule="evenodd" clip-rule="evenodd" d="M92.4101 57.9351C92.4101 57.9351 89.8647 62.3575 89.3626 68.6564C88.8604 74.9554 82.9531 76.3957 82.9531 76.3957H91.1186L92.4103 57.9351H92.4101Z" fill="#CE0606"/>
<path fill-rule="evenodd" clip-rule="evenodd" d="M116.151 78.2263C116.151 78.2263 104.632 70.2027 102.181 67.2997C99.7305 64.3968 98.2334 62.5061 97.1282 62.3213C96.0227 62.1366 91.6661 60.9819 92.5204 62.0228C92.8542 62.4043 93.2279 62.749 93.6351 63.051C93.6273 62.9846 93.6211 62.9484 93.6211 62.9484C93.6211 62.9484 97.7266 64.6431 98.0282 65.5623C98.3298 66.4817 97.466 69.2173 97.466 69.2173C97.8214 69.5115 98.1335 69.8544 98.3929 70.2359C99.3214 71.6116 110.103 96.229 116.211 93.9908C122.319 91.7526 116.151 78.2263 116.151 78.2263Z" fill="#FF8277"/>
<path fill-rule="evenodd" clip-rule="evenodd" d="M98.028 65.5622C97.7219 64.643 93.6211 62.9482 93.6211 62.9482C93.6211 62.9482 93.6211 62.9845 93.6351 63.0509C94.5588 63.7695 95.658 64.444 96.1616 64.8482C96.904 65.4421 96.1237 68.4289 96.1237 68.4289C96.613 68.6129 97.0664 68.88 97.4645 69.2185C97.4645 69.2185 98.3343 66.483 98.028 65.5622Z" fill="#EA4335"/>
<path fill-rule="evenodd" clip-rule="evenodd" d="M92.8913 62.4177C92.4527 63.3297 92.1581 64.3042 92.018 65.3065C91.5931 68.5127 91.9344 68.4006 92.8076 68.7923C93.6809 69.184 96.2184 69.7117 96.8595 68.2347C97.5006 66.7581 97.319 64.9907 96.1063 64.471C94.9866 63.8647 93.9122 63.1785 92.8913 62.4177Z" fill="#FF8277"/>
<path fill-rule="evenodd" clip-rule="evenodd" d="M88.2078 55.3336C88.2078 55.3336 84.6786 52.0627 87.8748 50.2052C91.0708 48.3479 94.079 46.8978 92.8156 44.1102C91.5524 41.3225 88.6547 37.3469 91.4418 35.6C94.2289 33.8531 97.0145 32.0322 93.2987 30.8066C89.5832 29.5809 85.8312 33.7048 85.4225 29.6173C85.0133 25.5296 77.5823 27.6096 80.7405 31.4002C83.8986 35.1911 86.5736 33.5563 84.865 35.5623C83.1564 37.5681 79.8481 39.9847 83.8245 41.9543C87.8004 43.9237 90.2892 44.3328 87.3173 45.8191C84.3455 47.3054 82.5233 51.0234 88.2078 55.3338V55.3336Z" fill="#DBDCDD"/>
<path fill-rule="evenodd" clip-rule="evenodd" d="M78.4381 154.784C82.9527 154.394 93.635 152.489 93.635 152.489C92.9181 149.268 90.7675 144.069 90.2907 143.423C89.697 142.616 89.697 135.83 89.697 135.83C89.697 135.83 82.043 135.384 82.6748 142.371C83.3065 149.359 72.6792 151.142 71.5644 151.513C70.9328 151.724 68.4551 152.663 68.0352 153.705C68.0352 153.705 73.9234 155.177 78.4381 154.784Z" fill="#DF3426"/>
<path fill-rule="evenodd" clip-rule="evenodd" d="M93.6372 152.492C93.8142 153.282 93.9041 153.96 93.8599 154.414C94.2311 152.2 93.6372 152.492 93.6372 152.492ZM93.6372 152.492C93.6372 152.492 82.9547 154.397 78.4404 154.787C73.9256 155.177 68.0373 153.708 68.0373 153.708C67.7215 154.498 68.5663 155.337 72.2362 155.977C80.782 157.463 93.8599 154.414 93.8599 154.414C93.9041 153.956 93.8142 153.282 93.6372 152.492Z" fill="black"/>
<path d="M81.4106 146.631L83.1192 148.01M80.389 147.705L81.7264 148.93M79.6641 148.318L80.9212 149.543" stroke="white" stroke-width="2" stroke-linecap="round"/>
<path fill-rule="evenodd" clip-rule="evenodd" d="M60.1945 135.235L53.433 132.93C53.433 132.93 50.6459 137.465 48.3057 138.841C46.1866 140.086 36.4296 144.434 34.2109 145.579C35.1806 145.95 37.0295 146.086 38.1586 146.198C39.6461 146.348 54.4436 145.854 54.4436 145.854C54.6693 144.454 54.5067 142.464 54.6932 141.46C54.9411 140.144 60.1945 135.235 60.1945 135.235Z" fill="#DF3426"/>
<path fill-rule="evenodd" clip-rule="evenodd" d="M38.1651 146.198C37.0329 146.086 35.1839 145.95 34.2176 145.579C34.0668 145.65 33.922 145.732 33.7847 145.827C33.2637 146.272 33.7468 146.756 37.8352 146.942C41.9233 147.128 54.1074 146.942 54.1074 146.942C54.2901 146.604 54.4075 146.235 54.4534 145.854C54.4534 145.854 39.6527 146.348 38.1651 146.198Z" fill="black"/>
<path d="M46.1827 139.939L46.4321 141.275M45.082 140.469L45.4278 141.61M43.8125 141.071L44.2214 142.055" stroke="white" stroke-width="2" stroke-linecap="round"/>
<path fill-rule="evenodd" clip-rule="evenodd" d="M114.887 99.2647C114.887 99.2647 88.8087 94.6196 76.9893 103.055C69.4856 108.41 53.4326 132.934 53.4326 132.934C53.349 132.881 53.2524 132.854 53.1539 132.854C53.0554 132.854 52.9588 132.881 52.8752 132.934C52.5973 133.12 50.3108 135.879 50.4688 136.298C50.6266 136.716 57.2967 139.661 57.9283 139.326C58.5599 138.991 60.7895 135.944 60.6033 135.647C60.5033 135.479 60.3626 135.338 60.1941 135.238C60.1941 135.238 70.932 123.94 78.0663 121.674C85.2005 119.407 114.887 99.2647 114.887 99.2647Z" fill="#CE0606"/>
<path d="M57.1192 133.696C57.1192 133.696 77.5491 104.51 97.3855 107.127M53.8633 133.34L59.3614 135.216" stroke="#052D10" stroke-width="2" stroke-linecap="round"/>
<path fill-rule="evenodd" clip-rule="evenodd" d="M111.514 99.5913C101.723 98.759 92.7321 99.0781 88.8096 99.5913C81.9724 100.482 77.3614 104.464 75.8757 111.581C74.3896 118.698 81.3645 137.697 81.3645 137.697C81.1503 137.706 80.9408 137.763 80.7519 137.865C80.4453 138.032 80.6128 143.049 82.3119 143.383C84.011 143.718 90.9511 141.794 91.0901 141.433C91.2289 141.071 91.1451 136.666 91.0901 136.22C91.0347 135.775 89.6973 135.83 89.6973 135.83C89.6973 135.83 89.023 121.708 89.1761 118.66C89.3293 115.612 95.1213 117.694 98.6031 119.478C102.085 121.263 118.121 125.573 128.486 124.755C137.668 124.03 142.565 119.023 145.048 114.986C136.949 114.37 124.221 106.299 121.121 103.349C117.844 100.228 111.517 99.5913 111.514 99.5913Z" fill="#CE0606"/>
<path fill-rule="evenodd" clip-rule="evenodd" d="M123.282 99.2646C123.282 99.2646 118.049 99.386 111.512 99.5947C111.512 99.5947 117.842 100.226 121.119 103.352C124.219 106.304 136.948 114.374 145.046 114.99C146.81 112.121 147.358 109.744 147.358 109.744L123.282 99.2646Z" fill="#CE0606"/>
<path d="M132.725 105.17C132.725 105.17 125.478 113.311 113.218 111.581C100.958 109.852 83.9043 104.39 82.6775 112.639C81.4503 120.889 84.7886 135.496 84.7886 135.496M82.1562 137.651L88.8074 136.164" stroke="#F1F1F2" stroke-width="2" stroke-linecap="round"/>
<path fill-rule="evenodd" clip-rule="evenodd" d="M148.55 61.6517C144.463 50.2795 131.347 41.2119 131.347 41.2119C131.347 41.2119 127.26 45.0215 124.363 47.5296C123.755 48.0542 123.169 48.6038 122.607 49.1769C122.607 49.1769 120.126 55.5565 121.576 58.7897C123.025 62.0227 128.821 59.6819 128.821 59.6819L140.413 77.7429C140.413 77.7429 130.493 94.4662 127.371 97.9236C124.249 101.381 131.982 109.138 131.985 109.138C133.011 109.669 134.078 110.119 135.175 110.482C142.159 112.71 148.549 110.853 148.549 110.853C153.083 97.4024 152.636 73.0236 148.549 61.6515L148.55 61.6517Z" fill="white"/>
<path fill-rule="evenodd" clip-rule="evenodd" d="M127.372 97.9237C130.494 94.4663 140.413 77.743 140.413 77.743L128.821 59.6822C128.821 59.6822 123.026 62.0227 121.576 58.7895C120.127 55.5565 122.608 49.177 122.608 49.177C119.699 52.1481 115.84 57.4091 113.402 66.8543C110.43 78.3748 113.849 99.9295 113.849 99.9295C119.036 100.056 125.785 105.999 131.986 109.141C131.983 109.138 124.251 101.378 127.372 97.9237Z" fill="#C9D9F4"/>
<path fill-rule="evenodd" clip-rule="evenodd" d="M119.83 31.8648C120.368 30.6928 120.433 28.3535 120.433 28.3535L121.404 26.7347C120.862 25.471 120.321 24.3781 119.643 23.5963C118.39 22.1464 116.303 21.6679 114.224 21.8589C115.315 24.634 117.08 30.8081 117.08 30.8081C117.08 30.8081 115.332 27.3175 114.386 27.2401C112.237 27.0632 109.124 29.1117 106.965 29.4923C106.985 29.8106 107.026 30.1272 107.086 30.4402C107.56 32.7997 109.744 37.0564 110.914 38.5427C112.084 40.029 114.816 42.5372 117.063 42.0538C119.31 41.5705 120.221 39.4903 120.221 39.4903L122.767 49.8215C124.467 49.2734 127.616 45.7606 129.591 43.3963C128.568 41.1328 127.399 38.938 126.091 36.8259C123.806 33.0856 119.83 31.8648 119.83 31.8648ZM131.347 41.212L129.59 43.3883C130.632 42.1406 131.347 41.212 131.347 41.212Z" fill="#FF8277"/>
<path fill-rule="evenodd" clip-rule="evenodd" d="M131.347 41.212C131.347 41.212 130.232 39.8773 126.406 35.8165C123.78 33.0321 122.589 29.4893 121.403 26.7349L120.432 28.3473C120.432 28.3473 120.368 30.6866 119.829 31.8584C119.829 31.8584 123.805 33.0856 126.09 36.8195C127.397 38.9297 128.566 41.1224 129.589 43.3838L131.347 41.212ZM114.386 27.2417C115.333 27.3191 117.08 30.8097 117.08 30.8097C117.08 30.8097 115.315 24.6357 114.223 21.8606C112.754 21.9905 111.331 22.4446 110.058 23.1904C107.596 24.6813 106.814 27.2874 106.963 29.4941C109.123 29.1102 112.237 27.0617 114.386 27.2417Z" fill="#F36357"/>
<path fill-rule="evenodd" clip-rule="evenodd" d="M122.744 28.2131C123.024 27.3491 123.498 25.0085 122.856 24.3673C122.856 24.3673 126.953 20.7154 125.225 18.6527C123.498 16.59 119.144 19.1265 119.144 19.1265C119.144 19.1265 119.651 15.1132 116.865 14.8351C116.074 14.7423 115.271 14.8351 114.521 15.1059C113.771 15.3768 113.095 15.8184 112.545 16.3958C112.545 16.3958 112.602 11.5452 109.452 10.2074C106.302 8.86966 105.978 12.8278 105.978 12.8278C105.978 12.8278 104.835 10.8218 103.767 11.3794C103.767 11.3794 101.845 5.05208 96.8018 8.84273C91.7584 12.6334 92.8162 16.9974 94.7664 19.749C95.43 20.6827 96.1328 21.588 96.8728 22.4623C96.8728 22.4623 102.123 26.5957 104.688 26.3321C107.252 26.0684 113.483 24.3765 115.29 27.2245C115.694 27.7537 117.079 30.8067 117.079 30.8067C117.079 30.8067 117.039 25.6733 118.857 25.427C120.674 25.1806 120.436 28.3536 120.436 28.3536L123.671 31.8649C123.671 31.8649 122.467 29.0771 122.744 28.2131Z" fill="#E84949"/>
<path fill-rule="evenodd" clip-rule="evenodd" d="M104.69 26.3319C102.126 26.5956 96.875 22.4622 96.875 22.4622C99.6101 25.6764 103.937 29.6203 107.839 28.1293C113.021 26.1517 114.889 26.6951 115.292 27.2243C113.485 24.3765 107.253 26.0681 104.69 26.3319Z" fill="#CE0606"/>
<path fill-rule="evenodd" clip-rule="evenodd" d="M140.414 77.9657C142.589 73.7848 141.864 67.2634 140.694 64.2529C139.524 61.2424 133.894 57.5071 128.822 59.6819C123.75 61.8569 116.785 75.1226 116.785 75.1226C116.694 75.3038 116.601 75.4834 116.504 75.6613C118.86 78.4048 124.139 85.0257 126.361 91.6137C132.854 86.9938 139.05 80.5908 140.414 77.9657Z" fill="white"/>
<path fill-rule="evenodd" clip-rule="evenodd" d="M88.8087 89.172C87.4397 88.406 86.2127 87.763 84.7852 87.4709C84.7852 87.4709 86.4321 88.1944 88.8087 89.172Z" fill="black"/>
<path fill-rule="evenodd" clip-rule="evenodd" d="M84.7879 87.471C86.2089 87.7631 87.4422 88.4061 88.8113 89.172C93.6448 91.1621 101.496 94.2058 104.634 94.3558C109.316 94.5785 118.3 95.9747 125.32 88.9858C122.779 83.3312 118.547 78.0464 116.507 75.6694C110.871 86.127 99.0721 84.9138 92.961 84.8302C86.7472 84.7465 87.0537 82.5161 83.4313 82.0141C79.8089 81.5118 71.8945 87.3098 71.8945 87.3098C71.8945 87.3098 79.7537 87.3652 82.9575 87.3098C83.5729 87.298 84.1878 87.3542 84.7909 87.4773L84.7877 87.471H84.7879Z" fill="#FF8176"/>
<path fill-rule="evenodd" clip-rule="evenodd" d="M104.631 94.3554C101.493 94.2055 93.6421 91.1618 88.8086 89.1718C89.5616 89.5936 90.3592 90.0532 91.2562 90.5095C94.4332 92.1254 107.083 97.7009 115.444 96.8085C118.555 96.4767 122.509 94.3603 126.357 91.6184C126.061 90.7354 125.707 89.8525 125.314 88.9775C118.298 95.9746 109.313 94.5783 104.631 94.3556V94.3554Z" fill="#EA4335"/>
<path d="M117.953 74.4546C117.953 74.4546 126.404 83.1937 128.152 88.8655" stroke="#CE0606" stroke-width="2" stroke-linecap="round"/>
<path d="M35.5234 94.272V152.813" stroke="#CE0606" stroke-width="5" stroke-linecap="square"/>
<path fill-rule="evenodd" clip-rule="evenodd" d="M155.557 93.8947H155.478C155.354 93.8843 155.233 93.8496 155.123 93.7926C155.012 93.7355 154.914 93.6572 154.833 93.5621C154.753 93.4671 154.692 93.3571 154.654 93.2385C154.616 93.1199 154.602 92.995 154.613 92.871C154.613 92.8568 154.734 91.3675 154.734 89.9034C154.732 89.7773 154.754 89.6521 154.801 89.5349C154.847 89.4178 154.917 89.3111 155.005 89.2211C155.093 89.1311 155.199 89.0595 155.315 89.0107C155.431 88.9619 155.556 88.9368 155.682 88.9368C155.808 88.9368 155.933 88.9619 156.049 89.0107C156.165 89.0595 156.27 89.1311 156.358 89.2211C156.447 89.3111 156.516 89.4178 156.563 89.5349C156.609 89.6521 156.632 89.7773 156.629 89.9034C156.629 91.4481 156.506 92.9628 156.5 93.0273C156.48 93.2636 156.372 93.4837 156.197 93.6443C156.023 93.8048 155.794 93.8943 155.557 93.8947Z" fill="black"/>
<path d="M155.947 97.63C155.978 97.4644 155.963 97.2938 155.906 97.1356C155.848 96.9774 155.75 96.8374 155.62 96.73C155.491 96.6225 155.335 96.5515 155.169 96.5242C155.003 96.497 154.832 96.5144 154.675 96.5748C154.518 96.6353 154.38 96.7366 154.275 96.8682C154.17 96.9998 154.102 97.157 154.078 97.3236C152.214 108.724 147.749 116.936 140.814 121.732C131.466 128.191 119.531 126.313 119.427 126.832C119.389 127.016 121.112 127.412 123.75 127.559L111.009 150.935C110.833 151.257 110.744 151.62 110.75 151.987C110.757 152.355 110.859 152.714 111.046 153.03C111.233 153.346 111.498 153.608 111.817 153.791C112.136 153.974 112.497 154.07 112.864 154.072H152.657C153.022 154.071 153.381 153.976 153.7 153.796C154.018 153.616 154.284 153.357 154.473 153.044C154.661 152.731 154.766 152.375 154.776 152.009C154.787 151.644 154.703 151.282 154.532 150.958L140.403 124.22C140.901 123.937 141.388 123.634 141.862 123.306C149.244 118.191 153.996 109.571 155.947 97.63ZM153.407 151.554C153.477 151.685 153.512 151.832 153.509 151.98C153.505 152.129 153.463 152.274 153.387 152.401C153.31 152.528 153.202 152.634 153.073 152.707C152.943 152.78 152.797 152.818 152.649 152.818H112.856C112.708 152.817 112.562 152.779 112.434 152.705C112.305 152.632 112.197 152.527 112.121 152.399C112.046 152.272 112.004 152.127 112.001 151.979C111.998 151.831 112.033 151.684 112.103 151.554L125.146 127.621C129.135 127.687 134.559 127.147 139.28 124.823L153.407 151.554Z" fill="black"/>
<path opacity="0.3" fill-rule="evenodd" clip-rule="evenodd" d="M7.31641 150.971C7.31641 151.963 11.5247 152.751 17.2647 152.731C23.0046 152.71 27.6471 151.887 27.6437 150.895C27.6407 149.903 22.9872 149.117 17.252 149.137C11.5168 149.158 7.31318 149.979 7.31641 150.971Z" fill="#1F2320"/>
<path fill-rule="evenodd" clip-rule="evenodd" d="M14.6084 149.633C13.3624 149.712 12.4182 148.37 12.1718 147.195C11.9414 146.089 11.9366 144.803 12.7782 143.943C13.5394 143.164 14.2894 142.363 15.4185 142.114C16.1605 141.935 16.9369 141.961 17.6656 142.188C18.7708 142.559 19.6346 143.278 19.8288 144.453C19.9868 145.362 19.7642 146.255 19.4152 147.097C19.1231 147.801 18.5356 148.441 18.3097 149.15C18.8294 149.081 19.573 149.128 19.7736 149.716C20.2473 151.047 16.8428 150.85 16.3121 150.639C15.2543 150.219 16.6548 148.681 16.9012 147.937C16.8555 148.411 15.8874 149.107 15.5069 149.333C15.2362 149.505 14.9278 149.608 14.6084 149.633ZM9.83164 144.012C10.0985 144.214 10.6876 144.892 10.7079 145.369C10.7349 146.042 10.0386 145.941 9.72921 145.81C8.52098 145.295 7.24523 143.491 6.82529 142.177C6.73519 141.897 6.702 141.51 6.94194 141.375C7.18207 141.239 7.43623 141.479 7.60846 141.69C7.97794 142.164 8.31898 142.66 8.68202 143.137C9.04524 143.614 9.37376 143.664 9.83164 144.012ZM22.1675 140.267C22.2275 139.771 22.3948 139.32 22.755 139.026C23.5903 138.345 24.6324 138.527 25.0178 139.555C25.6335 141.193 24.9482 142.921 24.8867 144.628C24.8518 145.587 24.8708 146.523 24.8867 147.471C24.8784 147.823 24.8884 148.174 24.9167 148.525C24.9537 148.74 25.0263 148.949 25.1314 149.141C25.3114 149.506 26.0077 149.93 25.5088 150.339C24.7556 150.971 23.3124 150.055 23.0928 149.363C22.7295 148.21 22.3743 142.916 22.2684 142.223C22.188 141.684 22.0854 140.935 22.1675 140.267Z" fill="#CE0606"/>
<path fill-rule="evenodd" clip-rule="evenodd" d="M9.62962 143.949C9.98962 143.293 12.5952 141.99 12.9979 141.825C13.7021 141.534 13.9168 141.224 14.5105 140.752C14.8276 140.475 15.1106 140.161 15.3538 139.817C16.3217 138.576 16.4323 137.112 17.9751 136.274C19.0472 135.693 20.3294 135.564 21.5312 135.775C22.3018 135.913 23.0927 136.216 23.5571 136.848C24.1555 137.661 23.9518 138.782 24.4413 139.642C25.2025 140.973 25.2751 142.613 24.356 144.222C23.1891 146.26 20.8631 146.88 18.7551 147.391C17.8471 147.61 17.5076 147.405 16.6597 147.823C15.8701 148.213 15.1486 149.087 14.329 149.412C12.8778 149.986 11.4234 149.638 10.2155 148.515C9.15752 147.523 8.96177 145.167 9.62962 143.949Z" fill="#DF3426"/>
<path fill-rule="evenodd" clip-rule="evenodd" d="M13.818 147.898C14.1246 147.108 14.7355 146.776 15.4747 146.476C16.5799 146.029 17.8858 146.182 18.9074 145.506C19.9292 144.83 20.8212 143.951 21.6345 143.063C21.9897 142.644 22.4259 142.302 22.9167 142.057C23.4695 141.779 23.9383 141.932 24.4359 141.741C24.6805 141.643 24.8495 141.436 25.0075 141.318C25.1148 142.33 24.8891 143.35 24.3647 144.222C23.1978 146.26 20.8719 146.88 18.7636 147.391C17.8558 147.61 17.5163 147.405 16.6683 147.823C15.8789 148.213 15.1571 149.087 14.3376 149.412C14.2712 149.437 14.205 149.463 14.1371 149.485C13.9346 149.28 13.7965 149.021 13.7398 148.739C13.6831 148.457 13.7103 148.164 13.818 147.898Z" fill="#DF3426"/>
<path fill-rule="evenodd" clip-rule="evenodd" d="M18.8164 141.264C19.2995 139.557 21.3856 138.44 21.9982 140.128C22.5382 141.611 22.112 143.481 21.8404 145.173C21.7029 146.04 21.4013 149.545 21.6824 150.21C21.7788 150.439 22.2114 150.6 22.0109 150.973C21.4628 151.996 19.9391 151.145 19.5981 150.685C18.9665 149.837 19.0329 148.474 18.9665 147.327C18.8701 145.299 18.1911 143.47 18.8164 141.264Z" fill="#CE0606"/>
<path fill-rule="evenodd" clip-rule="evenodd" d="M17.9257 135.229C17.5735 135.612 17.3208 136.401 17.4079 136.909C17.5198 137.402 17.7446 137.863 18.0646 138.255C18.6962 139.083 19.6279 139.651 20.5834 139.992C21.9823 140.498 23.4652 140.94 24.9099 140.338C25.6316 140.041 26.2648 139.706 26.609 138.936C27.509 136.925 25.7674 135.884 24.2514 135.096C22.8224 134.355 20.5612 133.449 19.0182 134.447C18.6806 134.663 18.1926 134.93 17.9257 135.229V135.229Z" fill="black"/>
<path fill-rule="evenodd" clip-rule="evenodd" d="M31.6983 125.281C32.0456 126.029 32.0141 126.78 31.1124 127.227C29.6912 127.93 24.7298 127.385 24.2782 127.325C23.7098 127.248 23.1144 127.152 23.1855 126.398C23.2659 125.545 24.2702 124.629 24.8781 124.04C27.4615 121.535 30.3654 122.424 31.6983 125.281Z" fill="#CE0606"/>
<path fill-rule="evenodd" clip-rule="evenodd" d="M31.8457 135.576C31.8567 134.488 30.6896 133.302 30.0375 132.499C29.3522 131.656 28.981 131.261 28.6795 130.242C28.4223 129.372 28.2058 128.235 27.6279 127.516C26.4658 126.085 25.0018 125.831 23.3107 125.765C21.0479 125.676 18.8467 126.093 17.0717 127.575C16.0202 128.453 15.4612 129.39 15.6095 130.794C15.6965 131.606 15.8593 132.408 16.0958 133.19C16.5697 134.747 20.23 139.939 25.3383 140.098C26.9174 140.147 28.3022 140.133 30.0345 139.138C31.0576 138.55 31.8298 136.982 31.8457 135.576Z" fill="#CE0606"/>
<path fill-rule="evenodd" clip-rule="evenodd" d="M21.5546 128.263C20.1835 128.172 18.8066 128.305 17.4789 128.66C16.9171 128.794 16.3627 128.958 15.8177 129.149C15.6089 129.671 15.5371 130.237 15.6092 130.794C15.6962 131.606 15.8591 132.408 16.0957 133.19C16.3894 134.167 17.9447 136.578 20.3244 138.276C20.6867 138.113 21.0201 137.893 21.3114 137.623C22.2968 136.706 22.8368 135.371 23.9612 134.575C24.7506 134.022 25.4706 133.46 25.5954 132.548C25.6664 132.024 25.4721 131.498 25.2055 131.034C24.471 129.748 23.0957 128.388 21.5546 128.263Z" fill="#DF3426"/>
<path fill-rule="evenodd" clip-rule="evenodd" d="M21.9535 132.506C22.2014 133.366 22.7919 133.949 23.272 133.81C23.752 133.671 23.943 132.863 23.6951 132C23.4472 131.138 22.8568 130.557 22.375 130.696C21.8934 130.834 21.7134 131.643 21.9535 132.506ZM27.2259 131.575C27.5577 132.365 28.1356 132.88 28.5176 132.719C28.8998 132.558 28.9393 131.782 28.6077 130.981C28.2762 130.181 27.6982 129.677 27.316 129.84C26.9338 130.002 26.8944 130.782 27.2259 131.575V131.575Z" fill="#080B09"/>
<path fill-rule="evenodd" clip-rule="evenodd" d="M12.3995 131.132C12.6237 132.007 13.1305 132.629 14.0938 132.381C15.605 131.992 18.9336 128.101 19.2289 127.736C19.6016 127.278 19.9791 126.788 19.4406 126.193C18.8295 125.525 17.4904 125.441 16.6581 125.36C13.1242 125.019 11.5452 127.783 12.3995 131.132Z" fill="#CE0606"/>
<path fill-rule="evenodd" clip-rule="evenodd" d="M28.2597 135.036C28.543 134.791 28.8894 134.631 29.2593 134.573C29.6762 134.478 30.0914 134.472 30.3647 134.573C31.6389 135.09 30.8241 136.434 29.7331 136.767C28.5897 136.925 27.306 136.037 28.2597 135.036ZM30.753 137.827C30.7325 137.813 30.7094 137.804 30.6852 137.8C30.5904 137.784 30.5272 137.849 30.4482 137.89C30.2489 137.999 30.029 138.065 29.8027 138.083C29.5764 138.102 29.3487 138.073 29.1345 137.997V137.985H29.106V137.996C28.8182 138.177 28.484 138.269 28.1444 138.263C27.8822 138.263 27.3629 138.105 27.2064 137.938C27.1726 137.907 27.1296 137.888 27.0841 137.885C27.0386 137.882 26.9933 137.893 26.9553 137.919C26.9367 137.926 26.9201 137.938 26.9069 137.954C26.8937 137.969 26.8842 137.987 26.8791 138.007C26.8741 138.026 26.8737 138.047 26.8779 138.067C26.8821 138.086 26.8908 138.105 26.9033 138.121C27.1448 138.391 27.7938 138.541 28.0892 138.55C28.4533 138.563 28.8147 138.479 29.1362 138.307C29.3771 138.37 29.6276 138.387 29.8751 138.359C29.9819 138.345 30.0874 138.324 30.191 138.294C30.3759 138.251 30.5513 138.173 30.7088 138.067C30.7956 138.002 30.8303 137.884 30.753 137.827Z" fill="#080B09"/>
<path fill-rule="evenodd" clip-rule="evenodd" d="M29.2122 138.305C29.188 138.309 29.1632 138.307 29.1399 138.299C29.1166 138.292 29.0954 138.279 29.078 138.261C29.0403 138.225 29.0162 138.177 29.0096 138.125C29.0031 138.073 29.0144 138.02 29.0417 137.975C29.0417 137.966 29.3228 137.517 29.4017 136.533C29.4014 136.509 29.4062 136.485 29.4157 136.463C29.4252 136.441 29.4393 136.421 29.457 136.405C29.4747 136.388 29.4956 136.376 29.5185 136.368C29.5413 136.36 29.5655 136.357 29.5895 136.36C29.6931 136.385 29.761 136.484 29.7475 136.59C29.6591 137.696 29.3353 138.211 29.3226 138.231C29.3103 138.25 29.2941 138.267 29.2752 138.28C29.2562 138.293 29.2348 138.301 29.2122 138.305Z" fill="#080B09"/>
<path fill-rule="evenodd" clip-rule="evenodd" d="M26.0882 149.797C26.0029 150.532 25.2102 150.957 24.315 150.745C23.4197 150.534 22.7659 149.771 22.8512 149.035C22.9366 148.299 23.7308 147.875 24.6245 148.087C25.5183 148.299 26.1736 149.062 26.0882 149.797Z" fill="#CE0606"/>
<path fill-rule="evenodd" clip-rule="evenodd" d="M22.8509 150.281C22.9031 151.042 22.1261 151.641 21.1138 151.617C20.1017 151.593 19.2442 150.955 19.1905 150.196C19.1369 149.436 19.917 148.836 20.9276 148.861C21.9382 148.886 22.7987 149.518 22.8509 150.281ZM11.562 150.439C10.3177 150.516 8.98185 149.425 8.73395 148.247C8.50501 147.141 8.88076 144.686 9.72254 143.824C10.482 143.047 11.2889 143.393 12.4178 143.15C13.1605 142.973 13.9372 142.998 14.6666 143.224C15.7718 143.595 16.6341 144.314 16.8283 145.489C16.9782 146.4 16.7637 147.291 16.4146 148.133C16.1241 148.837 15.5351 149.477 15.3092 150.186C15.8287 150.117 16.5725 150.166 16.7747 150.751C17.2483 152.083 13.8423 151.886 13.3133 151.676C12.2553 151.255 14.2497 148.991 12.6437 150.123C12.3706 150.317 11.8496 150.417 11.562 150.439V150.439Z" fill="#CE0606"/>
<path d="M55.4609 55.0307C52.1815 56.1591 48.6082 54.4144 47.48 51.1342C46.3518 47.8539 48.0957 44.2797 51.3752 43.1511C54.6546 42.0224 58.2279 43.7664 59.3567 47.0465C60.4807 50.3271 58.7381 53.8987 55.4609 55.0307ZM51.5938 43.7883C50.5452 44.1492 49.6271 44.813 48.9558 45.6957C48.2844 46.5784 47.8899 47.6404 47.8222 48.7473C47.7543 49.8543 48.0162 50.9565 48.5747 51.9146C49.1333 52.8727 49.9634 53.6436 50.9601 54.1299C51.9568 54.6161 53.0752 54.7957 54.1739 54.646C55.2726 54.4963 56.3023 54.0241 57.1325 53.2891C57.9629 52.5539 58.5567 51.589 58.8387 50.5164C59.1208 49.4438 59.0784 48.3117 58.7171 47.2631C57.7057 44.3391 54.52 42.7849 51.5938 43.7883Z" fill="#CE0606"/>
<path d="M56.9273 48.3874L57.69 50.5987C57.709 50.6537 57.6801 50.7136 57.6253 50.7329L56.4804 51.1261C56.454 51.1352 56.4251 51.1336 56.4 51.1214C56.3748 51.1093 56.3555 51.0878 56.3461 51.0615L55.6371 48.9987C55.4494 48.4553 55.1288 48.152 54.6425 48.3197C54.4914 48.3727 54.3604 48.4711 54.2674 48.6014C54.1744 48.7317 54.1239 48.8876 54.1228 49.0477C54.1241 49.1653 54.1471 49.2814 54.1909 49.3904L54.9329 51.548C54.9373 51.561 54.9391 51.5749 54.9382 51.5887C54.9373 51.6024 54.9336 51.6159 54.9274 51.6282C54.9212 51.6406 54.9127 51.6516 54.9022 51.6606C54.8918 51.6696 54.8796 51.6765 54.8665 51.6807L53.7233 52.0755C53.697 52.0845 53.6681 52.0828 53.643 52.0707C53.6179 52.0586 53.5985 52.0371 53.5892 52.0108C53.4028 51.4594 52.498 48.7901 52.2706 48.168C52.2659 48.1549 52.2638 48.141 52.2645 48.1272C52.2652 48.1133 52.2687 48.0997 52.2747 48.0872C52.2807 48.0747 52.2892 48.0635 52.2996 48.0544C52.31 48.0452 52.3221 48.0381 52.3353 48.0337L53.4771 47.6403C53.5321 47.6213 53.5919 47.6503 53.6112 47.7052L53.7692 48.179V48.1947H53.7787V48.1822C53.8275 47.929 53.9447 47.6941 54.1176 47.5028C54.2904 47.3115 54.5124 47.1712 54.7593 47.0971C55.6436 46.7938 56.5041 47.1428 56.9321 48.3844L56.9273 48.3874ZM51.6373 52.7989L52.7806 52.4055C52.8069 52.3965 52.8285 52.3776 52.8409 52.3528C52.8533 52.328 52.8555 52.2993 52.847 52.2729L51.5254 48.4301C51.5209 48.4169 51.5139 48.4047 51.5048 48.3943C51.4956 48.3838 51.4845 48.3752 51.472 48.3691C51.4595 48.3629 51.4459 48.3592 51.4321 48.3583C51.4182 48.3574 51.4043 48.3592 51.3911 48.3637L50.2462 48.7586C50.2332 48.7631 50.2213 48.77 50.211 48.7791C50.2007 48.7882 50.1923 48.7993 50.1863 48.8116C50.1803 48.8239 50.1768 48.8373 50.176 48.851C50.1751 48.8647 50.177 48.8784 50.1815 48.8914L51.5032 52.7342C51.5078 52.7478 51.5151 52.7603 51.5247 52.7709C51.5342 52.7816 51.5459 52.7902 51.5589 52.7962C51.5719 52.8023 51.586 52.8056 51.6003 52.806C51.6146 52.8064 51.6289 52.8039 51.6422 52.7987H51.6375L51.6373 52.7989Z" fill="#CE0606"/>
<path d="M50.3588 48.1033C50.7792 48.1033 51.12 47.7624 51.12 47.3419C51.12 46.9214 50.7792 46.5806 50.3588 46.5806C49.9384 46.5806 49.5977 46.9214 49.5977 47.3419C49.5977 47.7624 49.9384 48.1033 50.3588 48.1033Z" fill="#CE0606"/>
<path d="M63.2666 72.1361C65.9919 72.1361 68.2012 69.9263 68.2012 67.2004C68.2012 64.4744 65.9919 62.2646 63.2666 62.2646C60.5413 62.2646 58.332 64.4744 58.332 67.2004C58.332 69.9263 60.5413 72.1361 63.2666 72.1361Z" fill="#CE0606"/>
<path fill-rule="evenodd" clip-rule="evenodd" d="M61.289 64.2796H61.4296L66.6562 66.333H66.702L66.7099 66.341V66.3599L63.0955 67.9394C63.0397 67.9621 62.9773 67.9621 62.9217 67.9394C62.8653 67.9169 62.82 67.8733 62.7954 67.8178L61.2164 64.2024L61.289 64.2798V64.2796ZM61.0016 64.7726L61.8163 66.6363L59.9531 67.4513L61.0016 64.7726Z" fill="white"/>
<path fill-rule="evenodd" clip-rule="evenodd" d="M65.1693 70.1474L59.9472 68.1022C59.8979 68.0834 59.857 68.0475 59.832 68.0011L61.9985 67.0533L62.4469 68.08C62.5199 68.2453 62.6553 68.3751 62.8236 68.4411C62.9919 68.507 63.1794 68.5038 63.3454 68.4322L64.3765 67.9804L65.3241 70.1522C65.2735 70.1683 65.2188 70.1667 65.1693 70.1474ZM65.6067 69.6579L64.7934 67.7989L66.652 66.9854L65.6067 69.6579Z" fill="white"/>
<path d="M177.739 63.9686C180.465 63.9686 182.674 61.7588 182.674 59.0329C182.674 56.307 180.465 54.0972 177.739 54.0972C175.014 54.0972 172.805 56.307 172.805 59.0329C172.805 61.7588 175.014 63.9686 177.739 63.9686Z" fill="#CE0606"/>
<path fill-rule="evenodd" clip-rule="evenodd" d="M174.742 57.1787H174.843L180.45 56.9055H180.563L177.913 59.829C177.872 59.8733 177.815 59.8999 177.755 59.9031C177.697 59.9034 177.641 59.882 177.597 59.8432L174.676 57.1929L174.742 57.1787ZM174.681 57.7456L176.187 59.1118L174.821 60.6188L174.681 57.7456Z" fill="white"/>
<path fill-rule="evenodd" clip-rule="evenodd" d="M180.683 60.9425L175.081 61.2156C175.028 61.2178 174.976 61.2017 174.934 61.1699L176.524 59.4183L177.353 60.1701C177.419 60.2304 177.496 60.277 177.581 60.3071C177.665 60.3372 177.755 60.3502 177.844 60.3454C177.934 60.342 178.022 60.3205 178.103 60.2822C178.185 60.244 178.258 60.1897 178.318 60.1227L179.074 59.2902L180.827 60.8841C180.787 60.9199 180.736 60.9406 180.683 60.9425ZM180.88 60.3154L179.377 58.9522L180.741 57.4502L180.88 60.3154Z" fill="white"/>
<path fill-rule="evenodd" clip-rule="evenodd" d="M73.3359 55.3733C70.458 55.3733 68.125 53.0398 68.125 50.1611C68.125 47.2825 70.458 44.949 73.3359 44.949C76.2139 44.949 78.5469 47.2825 78.5469 50.1612C78.5469 53.0398 76.2139 55.3735 73.3359 55.3735V55.3733Z" fill="#DF3426"/>
<path fill-rule="evenodd" clip-rule="evenodd" d="M73.5795 46.7686C73.0141 46.7685 72.4591 46.9209 71.973 47.2096C71.4869 47.4983 71.0875 47.9127 70.8171 48.4092C70.5465 48.9058 70.4148 49.4661 70.4358 50.0312C70.4567 50.5963 70.6295 51.1453 70.936 51.6204L70.4624 52.6741C70.4407 52.7217 70.433 52.7745 70.4403 52.8264C70.4475 52.8782 70.4694 52.9269 70.5034 52.9667C70.5374 53.0065 70.582 53.0358 70.6321 53.0511C70.6821 53.0665 70.7355 53.0672 70.786 53.0532L72.1029 52.6915C72.6671 52.9923 73.3096 53.1139 73.9447 53.0402C74.5798 52.9665 75.1774 52.701 75.6578 52.279C76.1382 51.857 76.4787 51.2986 76.6338 50.6782C76.7889 50.0578 76.7513 49.4049 76.5261 48.8064C76.3009 48.208 75.8988 47.6924 75.3732 47.3284C74.8476 46.9643 74.2236 46.769 73.5842 46.7686H73.5795ZM73.5795 52.5131C73.12 52.5125 72.6689 52.3904 72.2719 52.1591C72.2303 52.1345 72.1829 52.1212 72.1345 52.1212C72.1095 52.1212 72.0847 52.1246 72.0604 52.1307L71.2012 52.3678L71.4997 51.7075C71.5201 51.6634 71.5284 51.6147 71.5237 51.5664C71.519 51.518 71.5015 51.4718 71.473 51.4325C71.1533 50.9912 70.9819 50.4598 70.9834 49.9149C70.9831 49.4009 71.1354 48.8985 71.4208 48.4711C71.7062 48.0437 72.1121 47.7106 72.5869 47.5139C73.0617 47.3173 73.5842 47.2659 74.0883 47.3664C74.5923 47.4669 75.0552 47.7146 75.4184 48.0783C75.7814 48.4418 76.0285 48.9049 76.1284 49.4088C76.2284 49.9128 76.1767 50.4351 75.9799 50.9097C75.7831 51.3843 75.45 51.7899 75.0228 52.0752C74.5955 52.3606 74.0933 52.5129 73.5795 52.5129V52.5131Z" fill="white"/>
<path fill-rule="evenodd" clip-rule="evenodd" d="M74.7893 50.387C74.7258 50.3361 74.6515 50.3003 74.5722 50.2822C74.4929 50.2642 74.4105 50.2643 74.3312 50.2827C74.2128 50.3318 74.1354 50.5182 74.0596 50.6129C74.0429 50.6352 74.0187 50.6508 73.9915 50.6569C73.9643 50.663 73.9359 50.6592 73.9112 50.6461C73.476 50.4751 73.1111 50.1623 72.8754 49.7584C72.8552 49.733 72.8456 49.7007 72.8485 49.6684C72.8514 49.636 72.8667 49.606 72.8912 49.5847C72.9789 49.5003 73.0436 49.3948 73.079 49.2783C73.086 49.1523 73.0571 49.0268 72.9955 48.9166C72.9321 48.7823 72.8627 48.5896 72.7284 48.5138C72.6634 48.4841 72.5912 48.4739 72.5205 48.4846C72.4499 48.4953 72.3838 48.5263 72.3305 48.5739C72.2398 48.6517 72.1677 48.7488 72.1194 48.8581C72.071 48.9674 72.0477 49.0861 72.0511 49.2055C72.0522 49.2742 72.0606 49.3426 72.0763 49.4094C72.1192 49.5674 72.1846 49.7186 72.2706 49.858C72.3337 49.9633 72.4016 50.0659 72.4743 50.166C72.7119 50.4934 73.0112 50.7713 73.3553 50.9841C73.5277 51.0925 73.7122 51.1805 73.905 51.2462C74.1051 51.337 74.326 51.3719 74.5444 51.3473C74.6688 51.328 74.7866 51.2787 74.8876 51.2035C74.9886 51.1284 75.0698 51.0298 75.124 50.9162C75.1548 50.8468 75.1641 50.7698 75.1508 50.695C75.1176 50.5497 74.9124 50.4598 74.7893 50.387Z" fill="white"/>
<path d="M134.085 13.8742C137.543 13.1291 139.742 9.72126 138.997 6.26255C138.251 2.80385 134.844 0.604035 131.386 1.34913C127.928 2.09422 125.729 5.50208 126.474 8.96078C127.22 12.4195 130.627 14.6193 134.085 13.8742Z" fill="#CE0606"/>
<path fill-rule="evenodd" clip-rule="evenodd" d="M135.949 8.91079C135.356 8.6517 135.038 7.13392 134.922 6.44369L134.87 6.10095C134.784 5.53393 134.493 5.01815 134.052 4.65177C133.611 4.28538 133.051 4.09395 132.478 4.11391C132.498 4.06376 132.504 4.00919 132.495 3.95591C132.47 3.88799 132.422 3.83087 132.359 3.79417C132.297 3.75746 132.223 3.7434 132.152 3.75435C132.08 3.7653 132.014 3.80059 131.965 3.85428C131.917 3.90798 131.888 3.97682 131.884 4.04923C131.892 4.10121 131.913 4.15014 131.946 4.19149C131.392 4.34168 130.914 4.68996 130.6 5.17012C130.287 5.65027 130.161 6.22881 130.247 6.79573L130.299 7.13866C130.392 7.83192 130.536 9.37683 130.046 9.7998C129.904 9.92157 129.634 10.0653 129.681 10.3734C129.729 10.6812 129.803 10.6734 129.83 10.6687L130.809 10.5202L133.12 10.1712L135.432 9.82218L136.411 9.67518C136.44 9.67518 136.514 9.65622 136.467 9.34819C136.419 9.04034 136.121 8.98647 135.949 8.91079ZM132.347 10.6987C132.388 10.9126 132.511 11.1022 132.689 11.2278C132.867 11.3535 133.087 11.4054 133.302 11.3728C133.518 11.3402 133.712 11.2255 133.845 11.0528C133.978 10.8801 134.039 10.6627 134.016 10.446L132.347 10.6987Z" fill="white"/>
<path fill-rule="evenodd" clip-rule="evenodd" d="M140.341 2.85191C140.265 2.34347 140.039 1.86915 139.693 1.48896C139.347 1.10876 138.896 0.839778 138.397 0.716037C137.898 0.592297 137.373 0.61936 136.889 0.793802C136.406 0.968245 135.985 1.28223 135.68 1.69603C135.374 2.10981 135.199 2.60477 135.175 3.11837C135.151 3.63197 135.28 4.14115 135.545 4.58155C135.81 5.02197 136.2 5.3738 136.666 5.59251C137.131 5.81123 137.651 5.88701 138.159 5.81027C139.578 5.59593 140.555 4.27162 140.341 2.85191Z" fill="white"/>
<path fill-rule="evenodd" clip-rule="evenodd" d="M138.206 1.54565L138.68 4.73144L137.996 4.83405L137.632 2.42233C137.596 2.46426 137.556 2.50286 137.513 2.53765C137.463 2.57602 137.41 2.61088 137.355 2.64198C137.301 2.6758 137.244 2.70535 137.185 2.73036C137.126 2.7563 137.066 2.77743 137.005 2.79353L136.918 2.2154C137.084 2.13892 137.243 2.0469 137.392 1.94056C137.53 1.84067 137.66 1.72918 137.78 1.6073L138.206 1.54565Z" fill="#CE0606"/>
<path d="M140.019 31.5064C138.066 30.146 137.585 27.46 138.945 25.5066C140.305 23.5531 142.99 23.0719 144.943 24.4315C146.896 25.7909 147.378 28.4767 146.019 30.4307C144.657 32.3817 141.973 32.8631 140.019 31.5064ZM144.678 24.811C142.935 23.5971 140.538 24.0273 139.324 25.7714C138.11 27.5156 138.54 29.9135 140.284 31.1272C142.028 32.3411 144.425 31.9111 145.639 30.1669C146.846 28.423 146.417 26.0308 144.678 24.8158V24.811Z" fill="#CE0606"/>
<path fill-rule="evenodd" clip-rule="evenodd" d="M141.913 27.6034L140.492 29.6568C140.482 29.6708 140.478 29.6882 140.481 29.705C140.484 29.7219 140.494 29.7369 140.508 29.7467L141.269 30.2774C141.283 30.2873 141.301 30.2912 141.318 30.2882C141.335 30.2853 141.35 30.2758 141.361 30.2617L142.81 28.1783L143.363 28.5622C143.391 28.5811 143.428 28.5756 143.45 28.5495L143.939 27.9588C143.945 27.9519 143.949 27.9439 143.952 27.9353C143.954 27.9266 143.955 27.9176 143.954 27.9086C143.953 27.8997 143.95 27.8911 143.945 27.8834C143.94 27.8757 143.934 27.8691 143.927 27.864L143.322 27.4423L143.638 26.997C143.673 26.9483 143.725 26.9152 143.784 26.9045C143.843 26.8939 143.904 26.9067 143.953 26.9401L144.38 27.2369C144.387 27.2417 144.395 27.245 144.403 27.2468C144.411 27.2485 144.42 27.2485 144.428 27.2469C144.437 27.2453 144.445 27.2421 144.452 27.2374C144.459 27.2327 144.465 27.2267 144.47 27.2197L144.907 26.5878C144.917 26.5736 144.921 26.556 144.918 26.5388C144.915 26.5217 144.905 26.5064 144.891 26.4962L144.171 25.9972C144.071 25.9273 143.958 25.8778 143.839 25.8516C143.72 25.8253 143.596 25.8228 143.476 25.8442C143.356 25.8656 143.241 25.9105 143.138 25.9763C143.035 26.0421 142.946 26.1275 142.876 26.2277L142.455 26.8342L142.074 26.5689C142.06 26.5591 142.043 26.5552 142.026 26.5582C142.009 26.5611 141.994 26.5706 141.984 26.5846L141.547 27.2164C141.537 27.2305 141.533 27.2478 141.536 27.2647C141.539 27.2816 141.549 27.2967 141.563 27.3065L141.943 27.5719L141.913 27.6034Z" fill="#CE0606"/>
<path fill-rule="evenodd" clip-rule="evenodd" d="M158.882 44.1813C155.531 43.3646 153.476 39.9857 154.292 36.6338C155.108 33.2818 158.487 31.2265 161.838 32.0429C165.189 32.8591 167.244 36.2379 166.428 39.5899C165.608 42.9395 162.232 44.9935 158.882 44.1813Z" fill="#CE0606"/>
<path d="M162.908 37.674C161.249 37.2696 160.844 38.9219 160.843 38.9376C160.841 38.9534 160.326 40.5645 162.106 40.9909C162.106 40.9909 163.423 41.392 163.813 40.3718C163.821 40.3506 163.825 40.3278 163.824 40.305C163.823 40.2822 163.817 40.26 163.807 40.2397C163.796 40.2194 163.781 40.2017 163.763 40.1877C163.745 40.1737 163.725 40.1637 163.702 40.1586L163.238 40.0465C163.205 40.0381 163.171 40.0405 163.14 40.0533C163.108 40.0661 163.082 40.0885 163.064 40.1174C162.99 40.2454 162.794 40.4334 162.299 40.3101C162.299 40.3101 161.645 40.1963 161.692 39.5537C161.694 39.5308 161.701 39.5086 161.713 39.4887C161.724 39.4687 161.74 39.4515 161.759 39.4383C161.777 39.4251 161.799 39.4161 161.821 39.412C161.844 39.4079 161.867 39.4088 161.89 39.4147L163.818 39.8885C163.858 39.8987 163.9 39.8928 163.936 39.8721C163.971 39.8515 163.998 39.8176 164.009 39.7779C164.124 39.334 164.356 38.0279 162.908 37.674ZM161.961 38.8208C161.947 38.8171 161.934 38.8102 161.922 38.8007C161.911 38.7911 161.903 38.7792 161.897 38.7657C161.891 38.7523 161.889 38.7377 161.89 38.7231C161.891 38.7086 161.895 38.6944 161.902 38.6818C161.984 38.532 162.114 38.4142 162.271 38.3471C162.428 38.2801 162.603 38.2677 162.768 38.3121C162.931 38.3411 163.076 38.433 163.172 38.568C163.268 38.7031 163.307 38.8704 163.281 39.034C163.279 39.0471 163.275 39.0598 163.268 39.0711C163.261 39.0824 163.252 39.0922 163.241 39.0998C163.23 39.1074 163.218 39.1126 163.205 39.1152C163.192 39.1177 163.178 39.1175 163.166 39.1146L161.961 38.8206V38.8208ZM160.066 37.9504C160.055 37.9437 160.046 37.9338 160.04 37.922C160.034 37.9101 160.032 37.8969 160.034 37.8839C160.036 37.8709 160.041 37.8588 160.05 37.849C160.059 37.8392 160.07 37.8323 160.083 37.829C160.292 37.7798 160.557 37.6283 160.667 37.1828C160.855 36.4106 160.41 35.9004 159.72 35.7329L157.583 35.2117C157.553 35.205 157.522 35.2104 157.496 35.2266C157.469 35.2428 157.451 35.2686 157.443 35.2985L156.445 39.405C156.441 39.4198 156.44 39.4353 156.443 39.4504C156.445 39.4656 156.45 39.4802 156.458 39.4933C156.466 39.5064 156.477 39.5178 156.489 39.5268C156.501 39.5358 156.515 39.5422 156.53 39.5457L158.667 40.0669C158.667 40.0669 160.031 40.4444 160.353 39.1193C160.356 39.1161 160.607 38.2886 160.066 37.9504H160.066ZM158.259 36.2763C158.265 36.2546 158.279 36.2359 158.298 36.2244C158.317 36.2129 158.34 36.2094 158.362 36.2147L159.538 36.5005C159.538 36.5005 159.843 36.5764 159.734 37.0265C159.625 37.4766 159.429 37.5003 159.226 37.4481L158.12 37.1812C158.11 37.1787 158.099 37.174 158.09 37.1674C158.081 37.1608 158.074 37.1525 158.068 37.1429C158.062 37.1333 158.058 37.1227 158.057 37.1117C158.055 37.1007 158.056 37.0894 158.059 37.0786L158.259 36.2763ZM158.796 39.2771L157.691 39.0055C157.669 39.0003 157.65 38.9865 157.638 38.9673C157.626 38.948 157.622 38.9249 157.628 38.9029L157.871 37.9094C157.876 37.888 157.89 37.8697 157.909 37.8582C157.928 37.8467 157.95 37.843 157.972 37.8478L159.148 38.1336C159.148 38.1336 159.606 38.2411 159.464 38.8413C159.327 39.345 158.976 39.3151 158.796 39.2756V39.2771ZM162.204 36.5212L162.114 36.8907C162.111 36.9012 162.11 36.9123 162.112 36.9231C162.113 36.934 162.117 36.9444 162.122 36.9538C162.128 36.9632 162.135 36.9715 162.144 36.978C162.153 36.9845 162.163 36.9892 162.174 36.9917L163.797 37.3882C163.819 37.393 163.841 37.3892 163.86 37.3777C163.879 37.3662 163.893 37.3479 163.898 37.3265L163.988 36.9553C163.993 36.9338 163.989 36.9112 163.978 36.8924C163.966 36.8735 163.948 36.8598 163.927 36.8542L162.305 36.4595C162.283 36.4543 162.261 36.4576 162.242 36.4688C162.223 36.48 162.209 36.4982 162.204 36.5195V36.5212Z" fill="white"/>
<path fill-rule="evenodd" clip-rule="evenodd" d="M147.207 72.1232L148.826 73.8591L161.166 68.7117L147.207 72.1232Z" fill="#CE0606"/>
<path fill-rule="evenodd" clip-rule="evenodd" d="M147.783 66.3914L146.564 68.2314L147.388 70.0337L145.539 70.348L143.906 73.9347L161.563 68.5916L147.783 66.3914Z" fill="#DF3426"/>
<path fill-rule="evenodd" clip-rule="evenodd" d="M147.388 70.0338L146.563 68.2316L156.128 68.6786L147.388 70.0338ZM51.7067 28.6932L50.0882 30.4307L37.7461 25.2817L51.7067 28.6932Z" fill="#CE0606"/>
<path fill-rule="evenodd" clip-rule="evenodd" d="M51.1307 22.9629L52.3497 24.8014L51.5254 26.6052L53.3745 26.9195L55.0088 30.5063L37.3516 25.1618L51.1307 22.9629Z" fill="#DF3426"/>
<path fill-rule="evenodd" clip-rule="evenodd" d="M51.5254 26.6053L52.3497 24.8015L42.7852 25.2501L51.5254 26.6053Z" fill="#CE0606"/>
</svg>
