<svg width="38" height="39" viewBox="0 0 38 39" fill="none" xmlns="http://www.w3.org/2000/svg">
<g clip-path="url(#clip0_1_4337)">
<path fill-rule="evenodd" clip-rule="evenodd" d="M8.3237 19.7683C8.3237 18.5725 8.52231 17.426 8.87681 16.3506L2.67189 11.6123C1.46258 14.0677 0.78125 16.8343 0.78125 19.7683C0.78125 22.6999 1.46175 25.4649 2.66938 27.9185L8.87094 23.171C8.5198 22.1007 8.3237 20.9584 8.3237 19.7683Z" fill="#FBBC05"/>
<path fill-rule="evenodd" clip-rule="evenodd" d="M19.2203 8.89015C21.8182 8.89015 24.1648 9.81069 26.0085 11.317L31.372 5.96113C28.1036 3.11581 23.9134 1.3584 19.2203 1.3584C11.9343 1.3584 5.67237 5.52513 2.67383 11.6133L8.87875 16.3516C10.3085 12.0116 14.3839 8.89015 19.2203 8.89015Z" fill="#EB4335"/>
<path fill-rule="evenodd" clip-rule="evenodd" d="M19.2203 30.648C14.3839 30.648 10.3085 27.5265 8.87875 23.1865L2.67383 27.924C5.67237 34.013 11.9343 38.1797 19.2203 38.1797C23.7173 38.1797 28.0106 36.583 31.2329 33.5912L25.3431 29.0379C23.6812 30.0848 21.5886 30.648 19.2203 30.648Z" fill="#34A853"/>
<path fill-rule="evenodd" clip-rule="evenodd" d="M36.8217 19.7698C36.8217 18.6819 36.6541 17.5103 36.4027 16.4224H19.2227V23.5357H29.1116C28.6172 25.9609 27.2713 27.8254 25.3454 29.0389L31.2353 33.5922C34.6201 30.4507 36.8217 25.7709 36.8217 19.7698Z" fill="#4285F4"/>
</g>
<defs>
<clipPath id="clip0_1_4337">
<rect width="37.6587" height="37.6587" fill="white" transform="translate(0.214844 0.938965)"/>
</clipPath>
</defs>
</svg>
