<svg width="47" height="47" viewBox="0 0 47 47" fill="none" xmlns="http://www.w3.org/2000/svg">
<path d="M23.5 44.0625C34.8564 44.0625 44.0625 34.8564 44.0625 23.5C44.0625 12.1436 34.8564 2.9375 23.5 2.9375C12.1436 2.9375 2.9375 12.1436 2.9375 23.5C2.9375 34.8564 12.1436 44.0625 23.5 44.0625Z" fill="url(#paint0_linear_1_4332)"/>
<path d="M33.7616 14.9942C33.9446 13.8111 32.8198 12.8773 31.7679 13.3392L10.8171 22.5377C10.0627 22.8689 10.1179 24.0116 10.9003 24.2607L15.2208 25.6366C16.0455 25.8992 16.9384 25.7633 17.6585 25.2659L27.3995 18.5361C27.6933 18.3331 28.0135 18.7508 27.7625 19.0094L20.7506 26.2386C20.0705 26.94 20.2054 28.1283 21.0237 28.6414L28.8742 33.5643C29.7547 34.1164 30.8874 33.5618 31.052 32.4977L33.7616 14.9942Z" fill="white"/>
<defs>
<linearGradient id="paint0_linear_1_4332" x1="23.5" y1="2.9375" x2="23.5" y2="44.0625" gradientUnits="userSpaceOnUse">
<stop stop-color="#37BBFE"/>
<stop offset="1" stop-color="#007DBB"/>
</linearGradient>
</defs>
</svg>
