<svg width="26" height="17" viewBox="0 0 26 17" fill="none" xmlns="http://www.w3.org/2000/svg">
<path d="M25.9314 1.1798C25.9812 1.00867 26.0051 0.85 25.9986 0.708333C25.9823 0.298067 25.7126 0 25.0777 0H22.2416C21.5255 0 21.1951 0.453334 21.0023 0.907801C21.0023 0.907801 19.2343 4.71467 17.1966 7.225C16.5358 7.95147 16.1999 7.93333 15.8425 7.93333C15.6507 7.93333 15.1665 7.6908 15.1665 7.02553V1.1492C15.1665 0.362667 14.979 0 14.3735 0H9.33712C8.89621 0 8.66655 0.362667 8.66655 0.726467C8.66655 1.4824 9.63937 1.66373 9.74987 3.78193V7.888C9.74987 8.88533 9.58412 9.06667 9.22663 9.06667C8.26247 9.06667 6.3645 5.66667 5.09376 1.2104C4.8186 0.333201 4.54344 0 3.82737 0H0.964154C0.137582 0 0 0.423867 0 0.8772C0 1.69433 0.649991 6.11207 4.19786 11.1917C6.77074 14.875 10.1604 17 13.1612 17C14.979 17 15.1654 16.5161 15.1654 15.7601V12.3919C15.1665 11.4841 15.3647 11.3333 15.9432 11.3333C16.3559 11.3333 17.1977 11.6167 18.8227 13.6C20.6968 15.8871 21.037 17 22.1116 17H24.9477C25.6064 17 25.9845 16.711 25.9997 16.15C26.0029 16.0072 25.9834 15.8474 25.939 15.6695C25.7288 15.0167 24.7647 13.4209 23.5622 11.9C22.8959 11.0579 22.2384 10.2238 21.9361 9.77047C21.7335 9.47467 21.6566 9.26613 21.6664 9.06667C21.6761 8.857 21.7801 8.65753 21.9361 8.37873C21.908 8.37873 25.5739 2.99427 25.9314 1.1798Z" fill="white"/>
</svg>
