<svg width="33" height="37" viewBox="0 0 33 37" fill="none" xmlns="http://www.w3.org/2000/svg">
<mask id="path-1-inside-1_1_5265" fill="white">
<path d="M21.0844 34.4651H5.81156C5.20617 34.4637 4.62596 34.2226 4.19788 33.7946C3.7698 33.3665 3.52871 32.7863 3.52734 32.1809V3.74931C3.52871 3.14391 3.7698 2.5637 4.19788 2.13562C4.62596 1.70755 5.20617 1.46645 5.81156 1.46509L21.0844 1.46509C21.6898 1.46645 22.27 1.70755 22.6981 2.13562C23.1261 2.5637 23.3672 3.14391 23.3686 3.74931V8.19399C23.3686 8.26237 23.3414 8.32795 23.2931 8.3763C23.2447 8.42464 23.1792 8.45181 23.1108 8.45181C23.0424 8.45181 22.9768 8.42464 22.9285 8.3763C22.8801 8.32795 22.853 8.26237 22.853 8.19399V3.74931C22.8503 3.28108 22.6631 2.8328 22.332 2.50171C22.0009 2.17062 21.5526 1.98342 21.0844 1.98071H5.81156C5.34196 1.98205 4.89183 2.16849 4.5588 2.49958C4.22578 2.83068 4.03673 3.27972 4.03266 3.74931V32.1809C4.03673 32.6505 4.22578 33.0995 4.5588 33.4306C4.89183 33.7617 5.34196 33.9481 5.81156 33.9495H21.0844C21.5553 33.9481 22.0064 33.7601 22.3389 33.4266C22.6714 33.0932 22.8581 32.6415 22.8581 32.1706V18.656C22.8581 18.5876 22.8853 18.5221 22.9336 18.4737C22.982 18.4254 23.0476 18.3982 23.1159 18.3982C23.1843 18.3982 23.2499 18.4254 23.2982 18.4737C23.3466 18.5221 23.3738 18.5876 23.3738 18.656V32.1809C23.3724 32.7872 23.1306 33.3681 22.7014 33.7964C22.2722 34.2246 21.6907 34.4651 21.0844 34.4651Z"/>
</mask>
<path d="M21.0844 34.4651H5.81156C5.20617 34.4637 4.62596 34.2226 4.19788 33.7946C3.7698 33.3665 3.52871 32.7863 3.52734 32.1809V3.74931C3.52871 3.14391 3.7698 2.5637 4.19788 2.13562C4.62596 1.70755 5.20617 1.46645 5.81156 1.46509L21.0844 1.46509C21.6898 1.46645 22.27 1.70755 22.6981 2.13562C23.1261 2.5637 23.3672 3.14391 23.3686 3.74931V8.19399C23.3686 8.26237 23.3414 8.32795 23.2931 8.3763C23.2447 8.42464 23.1792 8.45181 23.1108 8.45181C23.0424 8.45181 22.9768 8.42464 22.9285 8.3763C22.8801 8.32795 22.853 8.26237 22.853 8.19399V3.74931C22.8503 3.28108 22.6631 2.8328 22.332 2.50171C22.0009 2.17062 21.5526 1.98342 21.0844 1.98071H5.81156C5.34196 1.98205 4.89183 2.16849 4.5588 2.49958C4.22578 2.83068 4.03673 3.27972 4.03266 3.74931V32.1809C4.03673 32.6505 4.22578 33.0995 4.5588 33.4306C4.89183 33.7617 5.34196 33.9481 5.81156 33.9495H21.0844C21.5553 33.9481 22.0064 33.7601 22.3389 33.4266C22.6714 33.0932 22.8581 32.6415 22.8581 32.1706V18.656C22.8581 18.5876 22.8853 18.5221 22.9336 18.4737C22.982 18.4254 23.0476 18.3982 23.1159 18.3982C23.1843 18.3982 23.2499 18.4254 23.2982 18.4737C23.3466 18.5221 23.3738 18.5876 23.3738 18.656V32.1809C23.3724 32.7872 23.1306 33.3681 22.7014 33.7964C22.2722 34.2246 21.6907 34.4651 21.0844 34.4651Z" fill="white"/>
<path d="M21.0844 34.4651L21.0844 32.4651H21.0844V34.4651ZM5.81156 34.4651L5.80706 36.4651H5.81156V34.4651ZM3.52734 32.1809H1.52734L1.52735 32.1854L3.52734 32.1809ZM3.52734 3.74931L1.52734 3.74481V3.74931H3.52734ZM5.81156 1.46509V-0.534917L5.80706 -0.534907L5.81156 1.46509ZM21.0844 1.46509L21.0889 -0.534912H21.0844V1.46509ZM23.3686 3.74931H25.3686L25.3686 3.74481L23.3686 3.74931ZM22.853 3.74931H24.853L24.8529 3.73775L22.853 3.74931ZM21.0844 1.98071L21.0959 -0.0192871H21.0844V1.98071ZM5.81156 1.98071V-0.0192952L5.80586 -0.019279L5.81156 1.98071ZM4.03266 3.74931L2.03273 3.73197L2.03266 3.74064V3.74931H4.03266ZM4.03266 32.1809H2.03266V32.1895L2.03273 32.1982L4.03266 32.1809ZM5.81156 33.9495L5.80586 35.9495H5.81156V33.9495ZM21.0844 33.9495V35.9495L21.0902 35.9495L21.0844 33.9495ZM22.8581 32.1706H20.8581V32.1706L22.8581 32.1706ZM23.3738 32.1809L25.3738 32.1854V32.1809H23.3738ZM21.0844 32.4651H5.81156V36.4651H21.0844V32.4651ZM5.81606 32.4651C5.73954 32.4649 5.6662 32.4344 5.61209 32.3803L2.78367 35.2088C3.58572 36.0108 4.6728 36.4625 5.80706 36.4651L5.81606 32.4651ZM5.61209 32.3803C5.55799 32.3262 5.52751 32.2529 5.52734 32.1764L1.52735 32.1854C1.5299 33.3196 1.98162 34.4067 2.78367 35.2088L5.61209 32.3803ZM5.52734 32.1809V3.74931H1.52734V32.1809H5.52734ZM5.52734 3.75381C5.52751 3.67728 5.55799 3.60395 5.61209 3.54984L2.78367 0.721411C1.98162 1.52346 1.5299 2.61054 1.52735 3.74481L5.52734 3.75381ZM5.61209 3.54984C5.6662 3.49573 5.73954 3.46526 5.81606 3.46508L5.80706 -0.534907C4.6728 -0.532355 3.58572 -0.0806389 2.78367 0.721411L5.61209 3.54984ZM5.81156 3.46509H21.0844V-0.534912H5.81156V3.46509ZM21.0799 3.46508C21.1564 3.46526 21.2297 3.49573 21.2838 3.54984L24.1123 0.721411C23.3102 -0.0806389 22.2231 -0.532355 21.0889 -0.534907L21.0799 3.46508ZM21.2838 3.54984C21.338 3.60395 21.3684 3.67728 21.3686 3.75381L25.3686 3.74481C25.366 2.61054 24.9143 1.52346 24.1123 0.721411L21.2838 3.54984ZM21.3686 3.74931V8.19399H25.3686V3.74931H21.3686ZM21.3686 8.19399C21.3686 7.73194 21.5521 7.28881 21.8789 6.96208L24.7073 9.79051C25.1307 9.36709 25.3686 8.7928 25.3686 8.19399H21.3686ZM21.8789 6.96208C22.2056 6.63536 22.6487 6.45181 23.1108 6.45181V10.4518C23.7096 10.4518 24.2839 10.2139 24.7073 9.79051L21.8789 6.96208ZM23.1108 6.45181C23.5728 6.45181 24.016 6.63536 24.3427 6.96208L21.5143 9.79051C21.9377 10.2139 22.512 10.4518 23.1108 10.4518V6.45181ZM24.3427 6.96208C24.6694 7.28881 24.853 7.73194 24.853 8.19399H20.853C20.853 8.7928 21.0908 9.36709 21.5143 9.79051L24.3427 6.96208ZM24.853 8.19399V3.74931H20.853V8.19399H24.853ZM24.8529 3.73775C24.8472 2.7431 24.4495 1.79083 23.7462 1.0875L20.9178 3.91593C20.8766 3.87478 20.8533 3.81906 20.853 3.76087L24.8529 3.73775ZM23.7462 1.0875C23.0429 0.384168 22.0906 -0.0135041 21.0959 -0.0192537L21.0728 3.98068C21.0146 3.98034 20.9589 3.95708 20.9178 3.91593L23.7462 1.0875ZM21.0844 -0.0192871H5.81156V3.98071H21.0844V-0.0192871ZM5.80586 -0.019279C4.80982 -0.0164376 3.85506 0.379005 3.14871 1.08126L5.9689 3.9179C5.92859 3.95798 5.87411 3.98054 5.81727 3.9807L5.80586 -0.019279ZM3.14871 1.08126C2.44235 1.78352 2.04136 2.73596 2.03273 3.73197L6.03258 3.76664C6.03209 3.82348 6.00921 3.87783 5.9689 3.9179L3.14871 1.08126ZM2.03266 3.74931V32.1809H6.03266V3.74931H2.03266ZM2.03273 32.1982C2.04136 33.1942 2.44235 34.1467 3.14871 34.8489L5.9689 32.0123C6.00921 32.0523 6.03209 32.1067 6.03258 32.1635L2.03273 32.1982ZM3.14871 34.8489C3.85506 35.5512 4.80982 35.9466 5.80586 35.9495L5.81727 31.9495C5.87411 31.9496 5.92859 31.9722 5.9689 32.0123L3.14871 34.8489ZM5.81156 35.9495H21.0844V31.9495H5.81156V35.9495ZM21.0902 35.9495C22.0905 35.9466 23.0489 35.5471 23.7552 34.8388L20.9227 32.0145C20.964 31.973 21.0201 31.9496 21.0786 31.9495L21.0902 35.9495ZM23.7552 34.8388C24.4615 34.1304 24.8581 33.1709 24.8581 32.1705L20.8581 32.1706C20.8581 32.112 20.8813 32.0559 20.9227 32.0145L23.7552 34.8388ZM24.8581 32.1706V18.656H20.8581V32.1706H24.8581ZM24.8581 18.656C24.8581 19.1181 24.6746 19.5612 24.3479 19.8879L21.5194 17.0595C21.096 17.4829 20.8581 18.0572 20.8581 18.656H24.8581ZM24.3479 19.8879C24.0211 20.2147 23.578 20.3982 23.1159 20.3982V16.3982C22.5171 16.3982 21.9429 16.6361 21.5194 17.0595L24.3479 19.8879ZM23.1159 20.3982C22.6539 20.3982 22.2107 20.2147 21.884 19.8879L24.7125 17.0595C24.289 16.6361 23.7148 16.3982 23.1159 16.3982V20.3982ZM21.884 19.8879C21.5573 19.5612 21.3738 19.1181 21.3738 18.656H25.3738C25.3738 18.0572 25.1359 17.4829 24.7125 17.0595L21.884 19.8879ZM21.3738 18.656V32.1809H25.3738V18.656H21.3738ZM21.3738 32.1764C21.3736 32.253 21.343 32.3264 21.2888 32.3806L24.114 35.2122C24.9181 34.4099 25.3712 33.3213 25.3737 32.1854L21.3738 32.1764ZM21.2888 32.3806C21.2345 32.4347 21.161 32.4651 21.0844 32.4651L21.0844 36.4651C22.2203 36.4651 23.3099 36.0145 24.114 35.2122L21.2888 32.3806Z" fill="white" mask="url(#path-1-inside-1_1_5265)"/>
<path d="M21.3227 30.5412H5.57031C5.0233 30.5412 4.4987 30.3239 4.1119 29.9371C3.72511 29.5503 3.50781 29.0257 3.50781 28.4787C3.50781 28.4103 3.53497 28.3447 3.58332 28.2964C3.63167 28.248 3.69725 28.2209 3.76562 28.2209C3.834 28.2209 3.89958 28.248 3.94793 28.2964C3.99628 28.3447 4.02344 28.4103 4.02344 28.4787C4.02344 28.8889 4.18641 29.2824 4.47651 29.5725C4.7666 29.8626 5.16006 30.0256 5.57031 30.0256H21.3227C21.7329 30.0256 22.1264 29.8626 22.4165 29.5725C22.7066 29.2824 22.8695 28.8889 22.8695 28.4787C22.8695 28.4103 22.8967 28.3447 22.945 28.2964C22.9934 28.248 23.059 28.2209 23.1273 28.2209C23.1957 28.2209 23.2613 28.248 23.3096 28.2964C23.358 28.3447 23.3852 28.4103 23.3852 28.4787C23.3852 29.0257 23.1679 29.5503 22.7811 29.9371C22.3943 30.3239 21.8697 30.5412 21.3227 30.5412ZM23.1119 7.20916C23.0449 7.20916 22.9806 7.18254 22.9332 7.13516C22.8858 7.08778 22.8592 7.02351 22.8592 6.9565C22.8592 6.54625 22.6962 6.15279 22.4061 5.8627C22.1161 5.5726 21.7226 5.40963 21.3123 5.40963H5.57031C5.16006 5.40963 4.7666 5.5726 4.47651 5.8627C4.18641 6.15279 4.02344 6.54625 4.02344 6.9565C4.02344 7.02488 3.99628 7.09046 3.94793 7.1388C3.89958 7.18715 3.834 7.21432 3.76562 7.21432C3.69725 7.21432 3.63167 7.18715 3.58332 7.1388C3.53497 7.09046 3.50781 7.02488 3.50781 6.9565C3.50781 6.40949 3.72511 5.88489 4.1119 5.4981C4.4987 5.1113 5.0233 4.894 5.57031 4.894H21.3227C21.8697 4.894 22.3943 5.1113 22.7811 5.4981C23.1679 5.88489 23.3852 6.40949 23.3852 6.9565C23.3853 6.99149 23.3781 7.02612 23.3642 7.0582C23.3502 7.09028 23.3297 7.11911 23.304 7.14287C23.2783 7.16662 23.248 7.18478 23.2149 7.19619C23.1818 7.2076 23.1467 7.21202 23.1119 7.20916ZM11.2267 3.69775C11.1592 3.69777 11.0944 3.67131 11.0462 3.62407C10.998 3.57683 10.9703 3.51258 10.9689 3.4451C10.9682 3.41149 10.9742 3.37808 10.9866 3.34683C10.999 3.31557 11.0175 3.28711 11.0411 3.2631C11.0646 3.23909 11.0927 3.22002 11.1237 3.207C11.1547 3.19398 11.1879 3.18728 11.2216 3.18729C11.2899 3.18729 11.3555 3.21445 11.4039 3.2628C11.4522 3.31115 11.4794 3.37672 11.4794 3.4451C11.4794 3.51347 11.4522 3.57905 11.4039 3.6274C11.3555 3.67575 11.2899 3.70291 11.2216 3.70291L11.2267 3.69775ZM15.6817 3.69775H12.557C12.4887 3.69775 12.4231 3.67059 12.3747 3.62224C12.3264 3.57389 12.2992 3.50832 12.2992 3.43994C12.2992 3.37157 12.3264 3.30599 12.3747 3.25764C12.4231 3.20929 12.4887 3.18213 12.557 3.18213H15.6817C15.7501 3.18213 15.8157 3.20929 15.864 3.25764C15.9124 3.30599 15.9395 3.37157 15.9395 3.43994C15.9395 3.50832 15.9124 3.57389 15.864 3.62224C15.8157 3.67059 15.7501 3.69775 15.6817 3.69775ZM13.4491 33.4854C13.2041 33.4864 12.9643 33.4147 12.7601 33.2794C12.556 33.144 12.3965 32.9511 12.3021 32.7251C12.2076 32.499 12.1824 32.2501 12.2296 32.0097C12.2767 31.7693 12.3942 31.5483 12.567 31.3747C12.7399 31.2011 12.9604 31.0827 13.2006 31.0346C13.4408 30.9864 13.6899 31.0106 13.9163 31.1041C14.1427 31.1976 14.3363 31.3562 14.4725 31.5599C14.6087 31.7635 14.6814 32.0029 14.6814 32.2479C14.6801 32.5748 14.55 32.888 14.3193 33.1196C14.0886 33.3513 13.776 33.4827 13.4491 33.4854ZM13.4491 31.526C13.3048 31.525 13.1636 31.5669 13.0432 31.6464C12.9229 31.7259 12.8289 31.8394 12.7732 31.9725C12.7176 32.1055 12.7027 32.2521 12.7306 32.3936C12.7585 32.5351 12.8278 32.6651 12.9298 32.7671C13.0318 32.8691 13.1618 32.9385 13.3033 32.9664C13.4449 32.9942 13.5915 32.9794 13.7245 32.9237C13.8576 32.8681 13.9711 32.7741 14.0506 32.6538C14.1301 32.5334 14.172 32.3921 14.1709 32.2479C14.1696 32.0569 14.0931 31.874 13.958 31.739C13.8229 31.6039 13.6401 31.5274 13.4491 31.526ZM23.1119 16.4543C22.5132 16.4543 21.9281 16.2768 21.4303 15.9442C20.9326 15.6116 20.5446 15.1389 20.3155 14.5859C20.0865 14.0328 20.0265 13.4242 20.1433 12.8371C20.2601 12.25 20.5484 11.7107 20.9717 11.2874C21.395 10.8641 21.9343 10.5758 22.5214 10.459C23.1085 10.3423 23.7171 10.4022 24.2701 10.6313C24.8232 10.8604 25.2959 11.2483 25.6285 11.746C25.9611 12.2438 26.1386 12.829 26.1386 13.4276C26.1386 14.2303 25.8197 15.0002 25.2521 15.5678C24.6845 16.1354 23.9146 16.4543 23.1119 16.4543ZM23.1119 10.9062C22.6132 10.9062 22.1257 11.0541 21.7111 11.3311C21.2964 11.6082 20.9732 12.002 20.7824 12.4627C20.5916 12.9234 20.5416 13.4304 20.6389 13.9195C20.7362 14.4086 20.9763 14.8579 21.329 15.2105C21.6816 15.5631 22.1309 15.8033 22.62 15.9006C23.1091 15.9978 23.616 15.9479 24.0768 15.7571C24.5375 15.5662 24.9313 15.2431 25.2083 14.8284C25.4854 14.4138 25.6333 13.9263 25.6333 13.4276C25.6333 12.7589 25.3676 12.1175 24.8948 11.6447C24.4219 11.1718 23.7806 10.9062 23.1119 10.9062Z" fill="white"/>
<path d="M18.1628 19.6047C18.1156 19.6057 18.0691 19.5932 18.0287 19.5686C17.9905 19.5436 17.9595 19.509 17.9387 19.4683C17.9179 19.4276 17.9081 19.3822 17.9102 19.3366L18.0855 16.7894C17.2386 15.8733 16.7626 14.675 16.75 13.4275C16.75 10.4008 19.6066 7.94128 23.1128 7.94128C26.6191 7.94128 29.4756 10.4008 29.4756 13.4275C29.4756 16.4543 26.6242 18.9086 23.1128 18.9086C22.1749 18.9208 21.2441 18.7455 20.3748 18.393L18.3123 19.5893C18.2649 19.608 18.2131 19.6134 18.1628 19.6047ZM23.1128 8.4466C19.885 8.4466 17.2553 10.6844 17.2553 13.4275C17.2713 14.5832 17.7267 15.6893 18.5289 16.5213C18.5524 16.5469 18.5704 16.577 18.5819 16.6098C18.5934 16.6426 18.5982 16.6774 18.5959 16.7121L18.4516 18.888L20.2305 17.8568C20.266 17.8402 20.3047 17.8316 20.3439 17.8316C20.3831 17.8316 20.4218 17.8402 20.4573 17.8568C21.295 18.2207 22.1996 18.4051 23.1128 18.3982C26.3406 18.3982 28.9703 16.1655 28.9703 13.4224C28.9703 10.6793 26.3406 8.4466 23.1128 8.4466Z" fill="white"/>
<path d="M23.9513 13.9742C23.952 14.0749 23.9327 14.1748 23.8946 14.2681C23.8527 14.3551 23.793 14.4324 23.7193 14.4949C23.6361 14.5609 23.5418 14.6115 23.4409 14.6445C23.3251 14.6864 23.2031 14.7091 23.0799 14.7115L23.0335 15.1498H22.9923H22.8531H22.8118C22.8091 15.1451 22.8077 15.1397 22.8077 15.1343C22.8077 15.1289 22.8091 15.1236 22.8118 15.1188L22.8582 14.6857L22.6778 14.6548L22.5282 14.6135L22.4199 14.5671L22.3529 14.5207C22.3492 14.502 22.3492 14.4827 22.3529 14.464C22.3491 14.4332 22.3491 14.402 22.3529 14.3712C22.35 14.3455 22.35 14.3195 22.3529 14.2938C22.3505 14.2785 22.3505 14.2628 22.3529 14.2474H22.3838C22.411 14.2512 22.4372 14.2599 22.4612 14.2732L22.5901 14.3403C22.6522 14.3666 22.7159 14.389 22.7809 14.4073C22.8726 14.425 22.9659 14.4336 23.0593 14.4331C23.2115 14.4433 23.363 14.4054 23.4924 14.3248C23.5401 14.2888 23.5786 14.242 23.6046 14.1882C23.6306 14.1344 23.6434 14.0751 23.642 14.0154C23.6435 13.9458 23.6237 13.8774 23.5853 13.8195C23.5477 13.7632 23.4985 13.7157 23.4409 13.6803C23.377 13.6415 23.3097 13.6087 23.2398 13.5823L23.0078 13.4998L22.7757 13.4018C22.7023 13.3675 22.6345 13.3223 22.5746 13.2678C22.5126 13.2139 22.4633 13.147 22.4303 13.0718C22.3911 12.9825 22.3717 12.8857 22.3735 12.7882C22.3726 12.7018 22.3883 12.616 22.4199 12.5356C22.4516 12.458 22.499 12.3877 22.5592 12.3293C22.6293 12.2678 22.7095 12.219 22.7963 12.1849C22.9009 12.1472 23.0103 12.1247 23.1212 12.1179L23.1624 11.7157C23.1619 11.7071 23.1619 11.6985 23.1624 11.6899H23.2037H23.3429H23.3842C23.3842 11.6899 23.3842 11.6899 23.3842 11.7157L23.3377 12.1231C23.3806 12.1185 23.4238 12.1185 23.4667 12.1231L23.5853 12.154L23.6884 12.1953L23.7554 12.2365C23.7554 12.2365 23.7554 12.2365 23.7554 12.2674V12.2984C23.7554 12.2984 23.7554 12.3242 23.7554 12.3396C23.7554 12.3551 23.7554 12.3757 23.7554 12.3963C23.7554 12.417 23.7554 12.4428 23.7554 12.4634C23.7583 12.477 23.7583 12.491 23.7554 12.5046L23.6884 12.4788L23.5646 12.4221C23.5098 12.3978 23.4529 12.3788 23.3945 12.3654C23.3227 12.354 23.2496 12.354 23.1779 12.3654C23.1027 12.3538 23.0262 12.3538 22.951 12.3654C22.8944 12.3768 22.8414 12.4015 22.7963 12.4376C22.7561 12.4655 22.7255 12.5051 22.7087 12.551C22.684 12.6053 22.6713 12.6642 22.6713 12.7238C22.6713 12.7834 22.684 12.8423 22.7087 12.8965C22.7472 12.9519 22.7963 12.9992 22.8531 13.0357C22.9184 13.0738 22.9875 13.1049 23.0593 13.1285L23.2913 13.2162C23.3724 13.2418 23.4517 13.2728 23.5285 13.309C23.6028 13.3446 23.6721 13.3896 23.7348 13.4431C23.7953 13.4983 23.8444 13.5648 23.8792 13.639C23.9321 13.7425 23.957 13.8581 23.9513 13.9742ZM23.1109 22.6057C23.0736 22.6149 23.0347 22.6149 22.9974 22.6057L19.4499 20.8526L15.789 22.6057C15.7245 22.6318 15.6524 22.6318 15.5879 22.6057C15.5242 22.5814 15.4725 22.5334 15.4435 22.4717L13.6904 18.3982L10.081 21.492C10.0345 21.5344 9.97382 21.5579 9.91088 21.5579C9.84793 21.5579 9.78725 21.5344 9.74072 21.492L6.44587 18.3363L3.97603 21.2806C3.92955 21.3119 3.87396 21.327 3.81802 21.3233C3.76207 21.3196 3.70894 21.2973 3.667 21.2601C3.62506 21.2229 3.59669 21.1728 3.58636 21.1177C3.57603 21.0626 3.58432 21.0056 3.60994 20.9557L6.24994 17.8001C6.2739 17.7759 6.30242 17.7568 6.33384 17.7437C6.36525 17.7306 6.39895 17.7238 6.43298 17.7238C6.46702 17.7238 6.50072 17.7306 6.53213 17.7437C6.56355 17.7568 6.59206 17.7759 6.61603 17.8001L9.95728 20.9557L13.6388 17.7949C13.6686 17.7689 13.7041 17.7503 13.7425 17.7405C13.7808 17.7307 13.8209 17.73 13.8595 17.7385C13.8981 17.7471 13.9342 17.7646 13.9648 17.7896C13.9955 17.8146 14.0198 17.8465 14.0359 17.8826L15.8251 22.0334L19.3623 20.337C19.3973 20.3218 19.435 20.314 19.4731 20.314C19.5113 20.314 19.549 20.3218 19.584 20.337L23.2037 22.1262C23.2631 22.1571 23.3081 22.2099 23.3293 22.2734C23.3505 22.3369 23.3461 22.4062 23.3171 22.4665C23.2981 22.5059 23.269 22.5395 23.2328 22.5639C23.1965 22.5884 23.1545 22.6028 23.1109 22.6057Z" fill="white"/>
</svg>
