<svg width="34" height="29" viewBox="0 0 34 29" fill="none" xmlns="http://www.w3.org/2000/svg">
<path fill-rule="evenodd" clip-rule="evenodd" d="M28.7458 10.0629C28.0635 10.0629 27.4092 10.3078 26.9268 10.7436C26.4444 11.1794 26.1733 11.7704 26.1733 12.3867C26.1733 13.0031 26.4444 13.5941 26.9268 14.0299C27.4092 14.4657 28.0635 14.7105 28.7458 14.7105H32.5178V10.0629H28.7458ZM26.3236 10.1987C26.966 9.61837 27.8373 9.29236 28.7458 9.29236H32.9443C33.1799 9.29236 33.3708 9.46486 33.3708 9.67765V15.0958C33.3708 15.3086 33.1799 15.4811 32.9443 15.4811H28.7458C27.8373 15.4811 26.966 15.1551 26.3236 14.5748C25.6812 13.9945 25.3203 13.2074 25.3203 12.3867C25.3203 11.5661 25.6812 10.779 26.3236 10.1987Z" fill="white" stroke="white" stroke-width="0.5" stroke-miterlimit="10" stroke-linecap="round" stroke-linejoin="round"/>
<path fill-rule="evenodd" clip-rule="evenodd" d="M3.85742 0.865817C3.85742 0.636815 4.04758 0.451172 4.28215 0.451172H30.5622C31.3085 0.451172 32.0242 0.740589 32.5519 1.25576C33.0796 1.77092 33.376 2.46964 33.376 3.19819V20.691C33.376 21.4196 33.0796 22.1183 32.5519 22.6335C32.0242 23.1486 31.3085 23.438 30.5622 23.438H16.2276C15.9931 23.438 15.8029 23.2524 15.8029 23.0234C15.8029 22.7944 15.9931 22.6087 16.2276 22.6087H30.5622C31.0832 22.6087 31.5828 22.4067 31.9512 22.0471C32.3196 21.6874 32.5266 21.1996 32.5266 20.691V3.19819C32.5266 2.68958 32.3196 2.2018 31.9512 1.84215C31.5828 1.48251 31.0832 1.28046 30.5622 1.28046H4.70688V16.0263C4.70688 16.2553 4.51672 16.4409 4.28215 16.4409C4.04758 16.4409 3.85742 16.2553 3.85742 16.0263V0.865817Z" fill="white" stroke="white" stroke-width="0.5" stroke-miterlimit="10" stroke-linecap="round" stroke-linejoin="round"/>
<path fill-rule="evenodd" clip-rule="evenodd" d="M8.6482 15.3883C4.91886 15.3883 1.89564 18.2006 1.89564 21.6698C1.89564 25.139 4.91886 27.9513 8.6482 27.9513C12.3775 27.9513 15.4008 25.139 15.4008 21.6698C15.4008 18.2006 12.3775 15.3883 8.6482 15.3883ZM1.04492 21.6698C1.04492 17.7636 4.44903 14.5969 8.6482 14.5969C12.8474 14.5969 16.2515 17.7636 16.2515 21.6698C16.2515 25.5761 12.8474 28.7427 8.6482 28.7427C4.44903 28.7427 1.04492 25.5761 1.04492 21.6698Z" fill="white" stroke="white" stroke-width="0.5" stroke-miterlimit="10" stroke-linecap="round" stroke-linejoin="round"/>
<path fill-rule="evenodd" clip-rule="evenodd" d="M8.64639 19.0175C8.86168 19.0175 9.03621 19.19 9.03621 19.4027V21.7265H11.3873C11.6026 21.7265 11.7772 21.8991 11.7772 22.1118C11.7772 22.3246 11.6026 22.4971 11.3873 22.4971H9.03621V24.8209C9.03621 25.0337 8.86168 25.2062 8.64639 25.2062C8.43109 25.2062 8.25657 25.0337 8.25657 24.8209V22.4971H5.90545C5.69015 22.4971 5.51562 22.3246 5.51562 22.1118C5.51562 21.8991 5.69015 21.7265 5.90545 21.7265H8.25657V19.4027C8.25657 19.19 8.43109 19.0175 8.64639 19.0175Z" fill="white" stroke="white" stroke-width="0.5" stroke-miterlimit="10" stroke-linecap="round" stroke-linejoin="round"/>
</svg>
