<svg width="26" height="28" viewBox="0 0 26 28" fill="none" xmlns="http://www.w3.org/2000/svg">
<path d="M0.5 10C0.5 4.75329 4.75329 0.5 10 0.5H15.7104C20.9571 0.5 25.2104 4.7533 25.2104 10V12.3594C25.2104 17.6061 20.9571 21.8594 15.7104 21.8594H6.5071C5.67614 21.8594 4.87705 22.1793 4.27559 22.7527L3.38977 23.5971C2.30134 24.6347 0.5 23.8632 0.5 22.3594V10Z" stroke="white"/>
<path d="M11.8084 12.8408C11.8084 12.4359 11.8434 12.0897 11.9133 11.802C11.9932 11.5037 12.1231 11.2214 12.3028 10.955C12.4926 10.6887 12.7473 10.4117 13.067 10.124C13.4565 9.77241 13.7562 9.47943 13.9659 9.24504C14.1857 9.01065 14.3405 8.78159 14.4304 8.55786C14.5203 8.33412 14.5652 8.06244 14.5652 7.74282C14.5652 7.23143 14.4104 6.83723 14.1008 6.56023C13.7911 6.28322 13.3417 6.14472 12.7523 6.14472C12.2629 6.14472 11.8284 6.21397 11.4488 6.35248C11.2829 6.40838 11.1198 6.46938 10.9595 6.53547C10.628 6.67221 10.237 6.53158 10.0995 6.20035C9.9804 5.91348 10.0939 5.58011 10.3769 5.45222C10.6395 5.3336 10.9169 5.22883 11.2091 5.13792C11.6985 4.98876 12.2429 4.91418 12.8422 4.91418C13.7911 4.91418 14.5253 5.16455 15.0447 5.66529C15.5641 6.16603 15.8238 6.84789 15.8238 7.71086C15.8238 8.19029 15.7489 8.60047 15.5991 8.9414C15.4592 9.27167 15.2545 9.58064 14.9848 9.8683C14.7251 10.1453 14.4154 10.4436 14.0558 10.7632C13.7262 11.0615 13.4715 11.3226 13.2917 11.5463C13.1219 11.77 13.007 11.9938 12.9471 12.2175C12.8872 12.4306 12.8572 12.6916 12.8572 13.0006C12.8572 13.1506 12.7356 13.2723 12.5855 13.2723H12.2399C12.0016 13.2723 11.8084 13.0791 11.8084 12.8408ZM11.4638 15.6215C11.4638 15.2273 11.5487 14.9503 11.7185 14.7904C11.8983 14.6306 12.1231 14.5507 12.3927 14.5507C12.6425 14.5507 12.8572 14.6306 13.037 14.7904C13.2168 14.9503 13.3067 15.2273 13.3067 15.6215C13.3067 16.005 13.2168 16.282 13.037 16.4525C12.8572 16.6229 12.6425 16.7082 12.3927 16.7082C12.1231 16.7082 11.8983 16.6229 11.7185 16.4525C11.5487 16.282 11.4638 16.005 11.4638 15.6215Z" fill="white"/>
</svg>
