<svg width="28" height="27" viewBox="0 0 28 27" fill="none" xmlns="http://www.w3.org/2000/svg">
<path d="M6.92008 17.5912L5.54879 18.9549L0.063467 13.5L5.54879 8.04517L6.92015 9.40891L3.7758 12.5357H17.5176V14.4643H3.7758L6.92008 17.5912Z" fill="white"/>
<path d="M5.4261 21.6823C7.62374 23.8678 10.5455 25.0714 13.6535 25.0714C16.7617 25.0714 19.684 23.8678 21.8819 21.6823C24.0798 19.4967 25.2735 16.5908 25.2735 13.5C25.2735 10.4094 24.0798 7.50365 21.8818 5.31798C19.6839 3.1323 16.7616 1.92857 13.6535 1.92857C10.5457 1.92857 7.62387 3.1323 5.4261 5.31792C5.27372 5.46981 5.12553 5.6258 4.98169 5.78571H2.5132C4.96611 2.28849 9.04086 0 13.6535 0C21.1512 0 27.2129 6.04475 27.2129 13.5C27.2129 20.956 21.1512 27 13.6535 27C9.04074 27 4.96581 24.7116 2.51302 21.2143H4.98145C5.12533 21.3743 5.27361 21.5304 5.4261 21.6823Z" fill="white"/>
</svg>
