<svg width="31" height="28" viewBox="0 0 31 28" fill="none" xmlns="http://www.w3.org/2000/svg">
<path fill-rule="evenodd" clip-rule="evenodd" d="M17.9647 25.2994C16.7447 25.7214 15.4354 25.9505 14.0729 25.9505C7.47125 25.9505 2.11956 20.5716 2.11956 13.9364C2.11956 7.30117 7.47125 1.92226 14.0729 1.92226C20.6745 1.92226 26.0262 7.30117 26.0262 13.9364C26.0262 14.5635 25.9784 15.1793 25.8863 15.7804L27.5257 17.3263C27.7955 16.2411 27.9387 15.1056 27.9387 13.9364C27.9387 6.23954 21.7308 0 14.0729 0C6.41499 0 0.207031 6.23954 0.207031 13.9364C0.207031 21.6333 6.41499 27.8728 14.0729 27.8728C16.0039 27.8728 17.8427 27.4761 19.513 26.7593L17.9647 25.2994Z" fill="white"/>
<path d="M26.1095 19.2016L23.2363 14.8324L30.0016 15.7192L26.1095 19.2016Z" fill="white"/>
<path fill-rule="evenodd" clip-rule="evenodd" d="M11.2138 7.51061C11.0513 7.51061 10.8956 7.57785 10.7807 7.69755C10.6658 7.81725 10.6013 7.97959 10.6013 8.14887V18.8717C10.6013 19.0409 10.6658 19.2033 10.7807 19.323C10.8956 19.4427 11.0513 19.5099 11.2138 19.5099H18.0735C18.2359 19.5099 18.3917 19.4427 18.5065 19.323C18.6214 19.2033 18.6859 19.0409 18.6859 18.8717V10.3396L15.9712 7.51061H11.2138ZM10.4342 7.3365C10.641 7.12104 10.9214 7 11.2138 7H16.0727C16.1377 7 16.2 7.0269 16.246 7.07478L19.1042 10.0533C19.1501 10.1012 19.1759 10.1661 19.1759 10.2339V18.8717C19.1759 19.1764 19.0598 19.4686 18.853 19.684C18.6463 19.8995 18.3658 20.0205 18.0735 20.0205H11.2138C10.9214 20.0205 10.641 19.8995 10.4342 19.684C10.2275 19.4686 10.1113 19.1764 10.1113 18.8717V8.14887C10.1113 7.84417 10.2275 7.55195 10.4342 7.3365Z" fill="white"/>
<path fill-rule="evenodd" clip-rule="evenodd" d="M12.8568 12.4822C12.6956 12.4822 12.5649 12.6239 12.5649 12.7985V17.2266C12.5649 17.4013 12.6956 17.5429 12.8568 17.5429H16.433C16.5942 17.5429 16.7249 17.4013 16.7249 17.2266V12.7985C16.7249 12.6239 16.5942 12.4822 16.433 12.4822H12.8568ZM12.127 12.7985C12.127 12.3618 12.4537 12.0078 12.8568 12.0078H16.433C16.8361 12.0078 17.1628 12.3618 17.1628 12.7985V17.2266C17.1628 17.6633 16.8361 18.0173 16.433 18.0173H12.8568C12.4537 18.0173 12.127 17.6633 12.127 17.2266V12.7985Z" fill="white"/>
<path fill-rule="evenodd" clip-rule="evenodd" d="M13.8786 12.0078C13.9995 12.0078 14.0975 12.114 14.0975 12.245V13.6683H15.1923V12.245C15.1923 12.114 15.2903 12.0078 15.4112 12.0078C15.5321 12.0078 15.6302 12.114 15.6302 12.245V13.6683H16.9439C17.0648 13.6683 17.1628 13.7745 17.1628 13.9055C17.1628 14.0366 17.0648 14.1428 16.9439 14.1428H12.3459C12.225 14.1428 12.127 14.0366 12.127 13.9055C12.127 13.7745 12.225 13.6683 12.3459 13.6683H13.6596V12.245C13.6596 12.114 13.7576 12.0078 13.8786 12.0078ZM12.127 16.1196C12.127 15.9886 12.225 15.8823 12.3459 15.8823H15.4112C15.5321 15.8823 15.6302 15.9886 15.6302 16.1196V17.7801C15.6302 17.9111 15.5321 18.0173 15.4112 18.0173C15.2903 18.0173 15.1923 17.9111 15.1923 17.7801V16.3568H14.0975V17.7801C14.0975 17.9111 13.9995 18.0173 13.8786 18.0173C13.7576 18.0173 13.6596 17.9111 13.6596 17.7801V16.3568H12.3459C12.225 16.3568 12.127 16.2506 12.127 16.1196Z" fill="white"/>
</svg>
