<svg width="26" height="29" viewBox="0 0 26 29" fill="none" xmlns="http://www.w3.org/2000/svg">
<path fill-rule="evenodd" clip-rule="evenodd" d="M18.4054 2.32682C16.9957 0.826988 15.0063 0 12.685 0C10.3638 0 8.3744 0.826988 6.96479 2.32682C5.55627 3.8255 4.78305 5.9357 4.78305 8.39474C4.78305 11.7053 6.16102 13.8391 7.86643 15.12C8.19787 15.3688 8.5404 15.5848 8.88594 15.771C6.98009 16.3188 5.43258 17.2738 4.17262 18.4583C2.18038 20.3313 0.945597 22.741 0.11369 24.8988C-0.0370088 25.2897 0.143748 25.7343 0.517431 25.892C0.891114 26.0496 1.31622 25.8605 1.46691 25.4696C2.25874 23.4158 3.38962 21.2466 5.14797 19.5935C6.88867 17.9571 9.2825 16.7895 12.685 16.7895C15.8659 16.7895 18.1623 17.8098 19.867 19.2742C21.5857 20.7507 22.7434 22.714 23.5727 24.6549C24.126 25.9498 23.1548 27.4737 21.6306 27.4737H4.79538C4.39245 27.4737 4.06581 27.8154 4.06581 28.2368C4.06581 28.6583 4.39245 29 4.79538 29H21.6306C24.0413 29 25.9572 26.495 24.9048 24.0321C24.0243 21.9716 22.7507 19.7763 20.7929 18.0946C19.6309 17.0964 18.2418 16.2914 16.5785 15.7984C17.4682 15.2839 18.1993 14.601 18.7814 13.827C20.0403 12.1525 20.5871 10.0739 20.5871 8.39474C20.5871 5.9357 19.8139 3.8255 18.4054 2.32682ZM17.3649 3.39686C18.4667 4.56924 19.1279 6.27482 19.1279 8.39474C19.1279 9.76818 18.6706 11.5054 17.6344 12.8835C16.6181 14.2352 15.0323 15.2632 12.685 15.2632C11.7357 15.2632 10.098 14.9168 8.71746 13.88C7.37458 12.8714 6.24218 11.1895 6.24218 8.39474C6.24218 6.27482 6.90345 4.56924 8.0053 3.39686C9.10605 2.22564 10.7029 1.52632 12.685 1.52632C14.6672 1.52632 16.2641 2.22564 17.3649 3.39686Z" fill="white"/>
</svg>
