<svg width="31" height="38" viewBox="0 0 31 38" fill="none" xmlns="http://www.w3.org/2000/svg">
<path d="M27.7734 19.7291V6.16663C27.7734 5.13329 26.8693 4.22913 25.8359 4.22913H2.58594C1.5526 4.22913 0.648438 5.13329 0.648438 6.16663V26.8333C0.648438 27.8666 1.5526 28.7708 2.58594 28.7708H18.7318" stroke="white" stroke-linecap="round" stroke-linejoin="round"/>
<path d="M7.7474 8.10417C8.10408 8.10417 8.39323 7.81502 8.39323 7.45833C8.39323 7.10165 8.10408 6.8125 7.7474 6.8125C7.39071 6.8125 7.10156 7.10165 7.10156 7.45833C7.10156 7.81502 7.39071 8.10417 7.7474 8.10417Z" stroke="white" stroke-linecap="round" stroke-linejoin="round"/>
<path d="M20.6693 8.10417C21.026 8.10417 21.3151 7.81502 21.3151 7.45833C21.3151 7.10165 21.026 6.8125 20.6693 6.8125C20.3126 6.8125 20.0234 7.10165 20.0234 7.45833C20.0234 7.81502 20.3126 8.10417 20.6693 8.10417Z" stroke="white" stroke-linecap="round" stroke-linejoin="round"/>
<path d="M8.39844 7.45837V1.64587M21.3151 7.45837V1.64587M0.648438 10.6875H27.7734" stroke="white" stroke-linecap="round" stroke-linejoin="round"/>
<path d="M23.8958 31.3542C27.4627 31.3542 30.3542 28.4627 30.3542 24.8958C30.3542 21.329 27.4627 18.4375 23.8958 18.4375C20.329 18.4375 17.4375 21.329 17.4375 24.8958C17.4375 28.4627 20.329 31.3542 23.8958 31.3542Z" stroke="white" stroke-linecap="round" stroke-linejoin="round"/>
<path d="M23.8984 21.0209V24.8959L25.8359 26.8334" stroke="white" stroke-linecap="round" stroke-linejoin="round"/>
</svg>
