<svg width="35" height="36" viewBox="0 0 35 36" fill="none" xmlns="http://www.w3.org/2000/svg">
<path d="M26.7089 11.5896V32.1444C26.7089 32.7084 26.4849 33.2492 26.0861 33.648C25.6873 34.0468 25.1465 34.2708 24.5825 34.2708H7.57167C7.00773 34.2708 6.46688 34.0468 6.06811 33.648C5.66934 33.2492 5.44531 32.7084 5.44531 32.1444V6.62813C5.44531 6.06418 5.66934 5.52334 6.06811 5.12457C6.46688 4.7258 7.00773 4.50177 7.57167 4.50177H19.621L26.7089 11.5896Z" stroke="white" stroke-linecap="round" stroke-linejoin="round"/>
<path d="M21.0398 15.8423H11.1168C10.3339 15.8423 9.69922 16.477 9.69922 17.2599V28.6004C9.69922 29.3833 10.3339 30.018 11.1168 30.018H21.0398C21.8227 30.018 22.4574 29.3833 22.4574 28.6004V17.2599C22.4574 16.477 21.8227 15.8423 21.0398 15.8423Z" stroke="white" stroke-linecap="round" stroke-linejoin="round"/>
<path d="M9.69922 25.7653H18.2047V30.018M13.9519 25.7653V30.018M9.69922 20.095H22.4574M13.9519 15.8423V20.095M18.2047 15.8423V20.095" stroke="white" stroke-linecap="round" stroke-linejoin="round"/>
<path d="M9.69922 1.66663H22.4574L29.5452 8.75449V29.9897" stroke="white" stroke-linecap="round" stroke-linejoin="round"/>
</svg>
