<svg width="18" height="18" viewBox="0 0 18 18" fill="none" xmlns="http://www.w3.org/2000/svg">
<g clip-path="url(#clip0_1_4374)">
<path d="M9 18C4.05 18 0 13.95 0 9C0 4.05 4.05 0 9 0C13.95 0 18 4.05 18 9C18 13.95 13.95 18 9 18ZM7.125 12.75C7.575 15.075 8.4 16.5 9 16.5C9.6 16.5 10.425 15.075 10.875 12.75H7.125ZM12.45 12.75C12.225 14.025 11.85 15.225 11.4 16.125C13.125 15.525 14.625 14.325 15.525 12.75H12.45ZM2.475 12.75C3.375 14.325 4.875 15.525 6.6 16.125C6.15 15.225 5.775 14.025 5.55 12.75H2.475ZM12.675 11.25H16.2C16.35 10.575 16.5 9.75 16.5 9C16.5 8.25 16.35 7.425 16.125 6.75H12.6C12.75 7.5 12.75 8.25 12.75 9C12.75 9.75 12.75 10.5 12.675 11.25ZM6.9 11.25H11.175C11.25 10.575 11.325 9.825 11.325 9C11.325 8.175 11.25 7.425 11.175 6.75H6.9C6.825 7.425 6.75 8.175 6.75 9C6.75 9.825 6.825 10.575 6.9 11.25ZM1.875 11.25H5.4C5.325 10.5 5.325 9.75 5.325 9C5.325 8.25 5.325 7.5 5.4 6.75H1.875C1.65 7.425 1.5 8.25 1.5 9C1.5 9.75 1.65 10.575 1.875 11.25ZM12.45 5.25H15.525C14.625 3.675 13.125 2.475 11.4 1.875C11.85 2.775 12.225 3.975 12.45 5.25ZM7.125 5.25H10.95C10.5 2.925 9.675 1.5 9.075 1.5C8.475 1.5 7.575 2.925 7.125 5.25ZM2.475 5.25H5.55C5.775 3.975 6.15 2.775 6.6 1.875C4.875 2.475 3.45 3.675 2.475 5.25Z" fill="#F5F5F5"/>
</g>
<defs>
<clipPath id="clip0_1_4374">
<rect width="18" height="18" fill="white"/>
</clipPath>
</defs>
</svg>
