<svg width="20" height="20" viewBox="0 0 20 20" fill="none" xmlns="http://www.w3.org/2000/svg">
<path d="M18.6563 11.3436L17.6563 12.1249L10.4375 17.9061L9.71875 18.4686C9.65625 18.5311 9.59375 18.5311 9.5 18.4999C8.90625 18.2186 8.28125 17.9686 7.6875 17.6874C6.84375 17.3124 2.25 15.5624 1.9375 15.4061C1.75 15.3124 1.65625 15.1249 1.625 14.9061C1.5 14.4374 1.5625 13.9061 1.65625 13.4374C1.65625 13.4061 1.65625 13.4061 1.6875 13.3749C1.625 13.3436 1.53125 13.2811 1.46875 13.2499C1.5625 13.3124 1.6875 13.3436 1.78125 13.4061C1.96875 13.5311 2.15625 13.5936 2.375 13.7186C2.6875 13.8749 7.75 15.9061 8.1875 16.0936C8.5625 16.2811 9 16.4061 9.375 16.5624C9.65625 16.6874 9.9375 16.6249 10.1562 16.4374C10.4062 16.2186 10.6563 15.9999 10.9063 15.7811L19.125 9.2186C19.2813 9.0936 19.3125 8.8436 19.1875 8.68735C19.0625 8.5311 18.8125 8.49985 18.6563 8.62485L17.6563 9.37485L10.4375 15.1561L9.71875 15.7186C9.65625 15.7811 9.59375 15.7811 9.5 15.7499C8.90625 15.4686 8.28125 15.2186 7.6875 14.9374C6.84375 14.5624 2.25 12.8124 1.9375 12.6561C1.75 12.5624 1.65625 12.3749 1.625 12.1561C1.5 11.6874 1.5625 11.1561 1.65625 10.6874C1.6875 10.6874 1.6875 10.6874 1.71875 10.7186C1.90625 10.8436 2.09375 10.9061 2.3125 11.0311C2.625 11.1874 7.6875 13.2186 8.125 13.4061C8.5 13.5936 8.9375 13.7186 9.3125 13.8749C9.59375 13.9999 9.875 13.9374 10.0937 13.7499C10.3437 13.5311 10.5938 13.3124 10.8438 13.0936L19.0625 6.5311C19.2188 6.4061 19.25 6.1561 19.125 5.99985C19 5.8436 18.75 5.81235 18.5938 5.93735L17.5938 6.7186L10.3437 12.4374L9.625 12.9999C9.5625 13.0624 9.5 13.0624 9.40625 13.0311C8.8125 12.7499 8.1875 12.4999 7.59375 12.2186C6.78125 11.8436 2.1875 10.0936 1.875 9.93735C1.6875 9.8436 1.59375 9.6561 1.5625 9.43735C1.4375 8.9686 1.5 8.43735 1.5625 7.9686C1.59375 7.74985 1.8125 7.62485 2.03125 7.7186C2.03125 7.7186 8.25 10.1561 8.3125 10.1874C8.4375 10.2186 9.03125 10.4374 9.09375 10.4686C9.125 10.4686 9.125 10.4999 9.15625 10.4999C9.21875 10.5311 9.3125 10.5311 9.375 10.5311C9.46875 10.5311 9.53125 10.4686 9.625 10.4061C9.6875 10.3749 9.71875 10.3124 9.78125 10.2811C10.5312 9.7186 11.2813 9.1561 12 8.5936C12.2188 8.43735 12.4688 8.24985 12.6875 8.0936C12.7188 8.0936 12.7188 8.06235 12.75 8.06235C13.4063 7.56235 14.0313 7.0936 14.6875 6.5936C14.7188 6.56235 14.75 6.5311 14.7813 6.49985C15.7813 5.74985 16.75 4.99985 17.75 4.2811C18.0938 4.0311 18.0938 3.62485 17.6563 3.4686C17.3125 3.3436 16.9688 3.18735 16.625 3.06235C16.125 2.87485 15.5938 2.6561 15.0938 2.4686C14.25 2.1561 13.4375 1.81235 12.5938 1.49985C11.9688 1.2811 11.3437 1.06235 10.7187 0.843603C10.1562 0.656103 9.625 0.687353 9.125 1.06235C9.09375 1.06235 9.09375 1.0936 9.0625 1.0936C8.28125 1.62485 7.5 2.1561 6.6875 2.68735C5.8125 3.2811 4.90625 3.87485 4.03125 4.49985C3.875 4.5936 3.71875 4.7186 3.59375 4.81235C2.84375 5.3436 2.125 5.87485 1.40625 6.4061L1.375 6.43735C1.15625 6.56235 1.03125 6.7811 0.9375 7.06235C0.9375 7.0936 0.90625 7.1561 0.90625 7.18735C0.84375 7.37485 0.8125 7.5936 0.78125 7.7811C0.71875 8.1561 0.71875 8.5311 0.78125 8.93735C0.8125 9.12485 0.84375 9.31235 0.875 9.4686C0.90625 9.62485 0.9375 9.81235 0.96875 9.9686C0.9375 10.1561 0.875 10.3124 0.875 10.4999C0.8125 10.8749 0.8125 11.2499 0.875 11.6561C0.90625 11.8436 0.9375 12.0311 0.96875 12.1874C1 12.3124 1.03125 12.4374 1.03125 12.5936C1.03125 12.6249 1 12.6561 1 12.6874C0.9375 12.8749 0.90625 13.0936 0.875 13.2811C0.8125 13.6561 0.8125 14.0311 0.875 14.4374C0.90625 14.6249 0.9375 14.8124 0.96875 14.9686C1 15.1561 1.03125 15.3749 1.09375 15.5624C1.15625 15.7186 1.25 15.8436 1.375 15.9374C1.53125 16.0624 1.6875 16.0624 1.8125 16.1561C2 16.2811 2.1875 16.3436 2.40625 16.4686C2.71875 16.6249 7.78125 18.6561 8.21875 18.8436C8.59375 19.0311 9.03125 19.1561 9.40625 19.3124C9.6875 19.4374 9.96875 19.3749 10.1875 19.1874C10.4375 18.9686 10.6875 18.7499 10.9375 18.5311L19.1563 11.9686C19.3125 11.8436 19.3438 11.5936 19.2188 11.4374C19.0625 11.2186 18.8125 11.1874 18.6563 11.3436Z" fill="white"/>
</svg>
