<svg width="268" height="190" viewBox="0 0 268 190" fill="none" xmlns="http://www.w3.org/2000/svg">
<path d="M239.559 137.74C239.61 137.752 239.662 137.753 239.712 137.745C239.763 137.736 239.812 137.718 239.856 137.691C239.899 137.663 239.937 137.628 239.967 137.586C239.997 137.544 240.018 137.496 240.03 137.446C240.234 136.561 240.705 135.774 241.434 135.103C241.506 135.031 241.548 134.934 241.55 134.832C241.552 134.73 241.515 134.632 241.446 134.557C241.377 134.482 241.282 134.437 241.18 134.431C241.078 134.425 240.979 134.459 240.901 134.525C240.056 135.305 239.505 136.229 239.266 137.269C239.254 137.32 239.253 137.372 239.261 137.422C239.27 137.473 239.288 137.522 239.315 137.566C239.343 137.609 239.378 137.647 239.42 137.677C239.462 137.707 239.51 137.729 239.56 137.74H239.559ZM232.982 142.525C232.876 141.461 233.238 140.668 234.12 140.032C234.163 140.002 234.2 139.964 234.228 139.92C234.256 139.876 234.275 139.827 234.284 139.775C234.293 139.724 234.291 139.671 234.279 139.62C234.268 139.569 234.246 139.521 234.215 139.479C234.184 139.436 234.146 139.4 234.101 139.373C234.056 139.346 234.007 139.328 233.955 139.321C233.903 139.313 233.851 139.316 233.8 139.328C233.75 139.341 233.702 139.364 233.66 139.396C232.544 140.201 232.067 141.249 232.201 142.602C232.253 143.123 233.032 143.045 232.982 142.525ZM235.489 153.939C235.462 153.839 235.396 153.753 235.306 153.701C235.216 153.649 235.11 153.635 235.009 153.661C233.99 153.933 232.86 153.835 231.905 153.391C231.811 153.351 231.706 153.349 231.611 153.386C231.515 153.422 231.438 153.494 231.395 153.587C231.353 153.68 231.347 153.785 231.381 153.881C231.415 153.978 231.485 154.057 231.576 154.103C232.713 154.63 234 154.743 235.212 154.42C235.262 154.406 235.308 154.383 235.349 154.352C235.39 154.321 235.425 154.281 235.45 154.237C235.476 154.192 235.493 154.143 235.5 154.092C235.506 154.04 235.503 153.988 235.489 153.939ZM245.418 141.851C245.376 141.82 245.328 141.797 245.277 141.784C245.225 141.771 245.172 141.769 245.12 141.777C245.067 141.786 245.018 141.805 244.973 141.833C244.928 141.861 244.89 141.898 244.86 141.942C244.83 141.985 244.809 142.034 244.798 142.086C244.787 142.138 244.787 142.191 244.798 142.243C244.809 142.295 244.829 142.344 244.859 142.388C244.89 142.431 244.928 142.468 244.973 142.496C246.357 143.455 247.467 143.553 248.832 143.271C248.882 143.261 248.93 143.24 248.973 143.211C249.015 143.182 249.052 143.145 249.08 143.102C249.108 143.059 249.128 143.011 249.137 142.96C249.147 142.91 249.147 142.858 249.136 142.807C249.126 142.757 249.106 142.709 249.077 142.666C249.048 142.623 249.011 142.586 248.968 142.558C248.925 142.53 248.876 142.51 248.826 142.501C248.775 142.491 248.723 142.492 248.672 142.503C247.773 142.689 246.78 142.793 245.417 141.851H245.418ZM228.03 147.237C227.665 146.104 227.727 144.877 228.207 143.787C228.249 143.692 228.252 143.584 228.215 143.487C228.177 143.39 228.103 143.312 228.008 143.269C227.913 143.227 227.805 143.224 227.708 143.262C227.611 143.299 227.532 143.374 227.49 143.469C226.932 144.736 226.86 146.165 227.286 147.483C227.447 147.975 228.194 147.734 228.031 147.237H228.03Z" fill="#CE0606"/>
<path d="M267.409 161.389C267.338 161.263 262.507 152.725 253.432 148.464C257.18 136.803 263.942 134.174 264.036 134.143C264.177 134.096 264.272 133.962 264.287 133.813C264.295 133.741 264.282 133.668 264.25 133.603C264.218 133.537 264.169 133.483 264.107 133.444C263.887 133.303 243.134 120.622 225.589 134.213V101.482C225.58 101.369 225.53 101.262 225.447 101.184L212.098 89.8869V63.2898C212.098 63.0701 211.926 62.8975 211.706 62.8975H180.225L158.793 44.7528C158.722 44.6927 158.632 44.6596 158.539 44.6596C158.446 44.6596 158.356 44.6927 158.285 44.7528L136.853 62.8975H116.582C116.229 55.8741 110.409 50.2711 103.311 50.2711C95.9775 50.2711 90.0166 56.2351 90.0166 63.5723C90.0166 70.9018 95.9775 76.8658 103.311 76.8658C103.868 76.8658 104.425 76.8344 104.966 76.7559V89.8877L91.619 101.184C91.5758 101.221 91.5412 101.267 91.5174 101.319C91.4936 101.371 91.4811 101.427 91.4809 101.484V180.908L91.4684 180.918C91.3836 180.998 91.3238 181.101 91.296 181.215C91.2682 181.328 91.2736 181.448 91.3115 181.558H61.4207L55.5948 178.077V177.261H58.5462L56.3681 130.301L52.7131 133.977C52.6398 134.051 52.5401 134.093 52.4361 134.093C52.332 134.094 52.2321 134.053 52.1582 133.979C52.0844 133.906 52.0427 133.806 52.0423 133.702C52.0419 133.598 52.0829 133.498 52.1563 133.424L56.3187 129.238L55.2575 106.344L54.5391 106.45C51.2104 106.934 48.2221 104.295 48.3366 100.899L48.5884 93.1694C48.5881 93.1173 48.5986 93.0657 48.6193 93.0178C48.6399 92.9699 48.6702 92.9269 48.7083 92.8913C48.7464 92.8557 48.7914 92.8283 48.8406 92.811C48.8897 92.7936 48.9419 92.7866 48.9939 92.7904C49.0977 92.7939 49.196 92.8385 49.267 92.9144C49.3381 92.9903 49.3761 93.0914 49.3727 93.1953L49.1209 100.925C49.0221 103.825 51.5782 106.093 54.4253 105.673L55.1822 105.562C55.1955 105.56 55.2081 105.565 55.2214 105.564L54.5273 90.6151C54.604 90.5904 54.6734 90.5473 54.7296 90.4896C55.6959 89.3823 54.5806 76.2639 54.4394 74.7635C55.2473 77.1569 56.3297 79.1972 57.6709 80.1703C59.8513 81.7507 62.918 80.0228 64.3298 77.7376C68.6868 70.7621 67.4185 46.3411 66.5667 45.7887C66.7024 44.5974 66.8608 44.1957 66.9259 44.0803C68.6601 41.0881 68.4334 37.9735 67.373 36.3428C67.3487 36.2408 67.7864 33.6841 65.3338 32.529V29.3665C65.3338 29.1468 65.1534 28.9741 64.9416 28.9741H54.6991C54.4794 28.9741 54.3069 29.1468 54.3069 29.3665V37.8495C50.1421 33.9023 46.6048 32.2214 38.6831 31.8149V30.9203C39.1223 30.9831 39.7811 30.9831 40.4008 30.6692C41.8494 29.908 42.1733 27.4902 42.2024 25.8532C42.9553 24.4384 44.1161 21.6722 42.0682 21.0397C42.0682 21.0397 43.0651 20.2549 42.8463 18.8463C42.8379 18.7937 42.8162 18.744 42.7832 18.7022C42.7502 18.6603 42.707 18.6276 42.6578 18.6071C42.6085 18.5866 42.5549 18.5791 42.5019 18.5853C42.449 18.5915 42.3985 18.6111 42.3553 18.6423C41.9914 18.9075 41.2949 19.1916 40.0572 19.0049C37.9568 18.6886 33.2179 17.754 32.5041 22.3604C32.0822 25.0771 32.3473 26.5776 32.5975 27.3144C32.5645 27.4439 32.5426 27.5781 32.5426 27.7186C32.5426 28.5661 33.1779 29.2645 33.9779 29.3351C33.9936 29.8844 33.9779 30.9281 33.9465 31.705C23.2349 31.5818 13.7861 39.5516 12.3461 53.5834C12.2128 54.4074 9.09115 73.9238 15.1854 79.2443C16.6207 80.4999 18.456 80.8687 20.6365 80.3508L18.3776 90.1757C18.3462 90.2934 18.3776 90.4189 18.4482 90.5131C18.5203 90.5924 18.6207 90.641 18.7282 90.6481L17.2262 131.483C17.3002 131.413 17.3985 131.375 17.5004 131.376C17.6022 131.378 17.6994 131.419 17.7713 131.491L22.013 135.757C22.0503 135.793 22.08 135.837 22.1004 135.885C22.1208 135.933 22.1315 135.984 22.1318 136.036C22.1321 136.088 22.122 136.14 22.1022 136.188C22.0823 136.236 22.0531 136.28 22.0162 136.317C21.9792 136.353 21.9354 136.382 21.8871 136.402C21.8389 136.422 21.7872 136.431 21.7352 136.431C21.6831 136.43 21.6317 136.419 21.5839 136.399C21.5361 136.378 21.4929 136.348 21.4569 136.31L17.2152 132.044C17.2113 132.04 17.2097 132.034 17.2058 132.03L15.543 177.26H17.8333L17.7807 181.558H0.392164C0.172552 181.558 0 181.739 0 181.951C0 182.17 0.172552 182.343 0.392164 182.343H17.765L17.6631 187.263C17.6317 188.299 18.4772 189.186 19.5455 189.186H40.5262C41.5616 189.186 42.4086 188.338 42.4086 187.295C42.4086 184.94 40.6439 182.979 38.2988 182.735L34.9105 182.374L34.8555 182.343H45.6401L45.5381 187.263C45.5335 187.514 45.5788 187.762 45.6713 187.995C45.7638 188.228 45.9016 188.44 46.0768 188.619C46.252 188.798 46.461 188.94 46.6917 189.037C46.9224 189.135 47.1701 189.185 47.4205 189.186H68.4013C71.6107 189.186 70.5801 183.193 66.1816 182.735L62.7855 182.374L62.7306 182.343H258.146C258.358 182.343 258.538 182.17 258.538 181.951C258.538 181.739 258.358 181.558 258.146 181.558H241.91C243.761 180.325 245.336 178.715 246.585 176.74C256.852 160.582 266.899 161.955 267.001 161.971C267.074 161.982 267.148 161.973 267.216 161.944C267.284 161.915 267.342 161.868 267.385 161.807C267.427 161.747 267.452 161.676 267.456 161.602C267.46 161.529 267.444 161.455 267.409 161.39V161.389ZM158.539 45.5674L179.008 62.8967H138.068L158.539 45.5674ZM54.8104 178.086L51.757 180.144L46.4958 178.541V177.259H54.8096V178.086H54.8104ZM39.4062 94.7703V101.314C39.4054 102.118 39.0859 102.888 38.5178 103.457C37.9498 104.025 37.1796 104.344 36.3764 104.345C36.2724 104.345 36.1726 104.304 36.0991 104.23C36.0255 104.156 35.9842 104.057 35.9842 103.952C35.9842 103.848 36.0255 103.749 36.0991 103.675C36.1726 103.601 36.2724 103.56 36.3764 103.56C36.9714 103.559 37.5419 103.322 37.9627 102.901C38.3835 102.48 38.6203 101.91 38.6211 101.314V94.7711C38.6211 94.667 38.6624 94.5672 38.736 94.4936C38.8095 94.4201 38.9093 94.3787 39.0133 94.3787C39.1173 94.3787 39.217 94.4201 39.2906 94.4936C39.3641 94.5672 39.4054 94.667 39.4054 94.7711L39.4062 94.7703ZM52.4237 138.091L54.5445 135.957C54.5806 135.92 54.6238 135.89 54.6716 135.869C54.7194 135.848 54.7708 135.837 54.8229 135.837C54.8749 135.836 54.9266 135.846 54.9748 135.865C55.0231 135.885 55.0669 135.914 55.1038 135.951C55.1408 135.988 55.17 136.031 55.1899 136.079C55.2097 136.128 55.2198 136.179 55.2195 136.231C55.2192 136.283 55.2085 136.335 55.1881 136.383C55.1677 136.431 55.138 136.474 55.1006 136.51L52.9798 138.645C52.9434 138.681 52.9002 138.711 52.8527 138.73C52.8051 138.75 52.754 138.761 52.7025 138.761C52.6509 138.761 52.5998 138.751 52.5521 138.731C52.5044 138.712 52.4611 138.683 52.4245 138.646C52.3879 138.61 52.3589 138.567 52.339 138.519C52.3192 138.472 52.3089 138.421 52.3087 138.369C52.3086 138.317 52.3186 138.266 52.3382 138.219C52.3578 138.171 52.3874 138.127 52.4237 138.091ZM66.2514 43.6871C66.173 43.8127 65.9534 44.1972 65.7887 45.6568H62.0631C61.5643 43.491 63.2145 41.6625 62.1102 41.5527C60.8082 41.5864 58.5964 41.3172 58.5964 40.0146C59.274 40.5639 61.1792 40.7114 60.9337 40.6581C61.0358 40.6581 61.1339 40.6183 61.2072 40.5471C61.2804 40.4758 61.323 40.3788 61.3258 40.2767C61.3431 39.5861 60.4866 40.1448 59.0685 39.3742C58.8254 39.1184 58.7281 38.8736 58.7062 38.7198C59.5297 39.131 60.5737 39.3742 61.5204 39.3138C62.0396 39.2785 61.9823 38.4977 61.467 38.5306C60.3949 38.6036 58.5964 38.1147 58.5964 37.1809C60.1266 38.0676 64.4075 38.2089 64.5494 36.9533C64.5603 36.9016 64.5603 36.8481 64.5494 36.7964C64.471 36.3177 63.7886 36.1058 62.62 35.737C61.8121 35.4859 60.1494 34.9601 60.1337 34.4736C60.7298 33.9988 64.0812 34.9483 64.9181 35.2269C64.9965 35.3054 66.8859 35.9661 67.2867 38.256C67.7024 40.5553 66.9573 42.4787 66.2514 43.6871ZM66.5808 35.3925C66.071 34.9295 65.5847 34.6627 65.3338 34.5528V33.415C66.0161 33.8544 66.4789 34.5842 66.5808 35.3925ZM55.0904 29.7581H64.5494V34.2939C63.1298 33.8623 60.5023 33.1952 59.6552 33.8544C59.4278 34.027 59.3101 34.286 59.3337 34.5764C59.4042 35.5494 60.918 36.0281 62.3847 36.4833C62.7612 36.6088 63.2396 36.7579 63.5377 36.8835C61.9674 37.4069 59.5062 36.8599 58.9572 36.4833C58.6983 36.3106 58.4238 36.2792 58.1885 36.4048C57.9454 36.5382 57.8042 36.8207 57.8121 37.1581C57.8121 37.425 57.9062 37.7388 58.1258 38.0449C58.1179 38.0606 58.1101 38.0684 58.1023 38.0763C57.867 38.3588 57.8434 38.8689 58.1179 39.3868C57.3171 40.0797 57.914 42.2283 61.6004 42.3374C61.216 43.7499 61.1141 44.8642 61.2788 45.7196H55.0904V29.7581ZM34.1567 26.886C34.312 26.886 34.4446 26.8742 34.5489 26.6976C35.0391 27.0704 35.1544 28.0568 35.1544 28.0568V25.0669C35.1544 25.0669 36.3481 25.2019 35.672 24.0013C35.672 24.0013 37.7285 21.6886 38.9294 23.4904C39.88 24.917 40.8753 24.3677 41.2494 24.0766C41.6251 25.5888 41.4235 29.2433 40.0392 29.9621C39.4807 30.2564 37.0023 30.3725 36.5536 29.6875C36.4917 29.5854 36.3426 29.638 36.3426 29.7471C36.3426 29.7903 36.3897 30.677 37.898 31.1008V31.8769L36.6352 33.3129L34.7293 31.8376C34.7983 29.3492 34.8971 28.424 34.2587 28.5417C33.1222 28.7309 32.963 26.886 34.1567 26.886ZM21.5031 80.0675C26.0656 78.5529 39.3074 71.4793 43.8071 67.2496C43.867 67.193 43.9076 67.119 43.9231 67.038C43.9386 66.957 43.9282 66.8731 43.8934 66.7984L43.411 65.761C44.6542 65.3309 45.1365 64.113 45.3169 63.2592C45.4738 63.5119 45.6346 63.8635 45.7428 64.3406C45.9938 65.4494 46.1193 66.1737 46.9664 66.1737C47.3036 66.1737 47.5844 66.0215 47.7687 65.8622C48.4409 65.947 49.3852 65.3992 49.4503 64.5172C49.4637 64.3453 49.4723 64.1735 49.4762 64.0032C51.6723 64.117 50.8825 59.5678 49.4731 57.5471L49.4354 57.493C54.4504 59.2147 56.2387 60.3063 56.9022 58.9738C57.2191 58.3389 57.0254 57.5377 56.4418 57.0661C55.2669 56.1166 52.1437 53.8471 48.5311 53.2994C44.5232 52.6983 40.9011 56.6031 39.7843 57.9497L39.2925 56.8903C39.2706 56.8435 39.2397 56.8015 39.2015 56.7666C39.1633 56.7318 39.1187 56.7049 39.07 56.6874C39.0214 56.6699 38.9698 56.6622 38.9182 56.6647C38.8666 56.6672 38.816 56.6799 38.7693 56.702L26.4319 62.5436L27.4491 56.2476C27.4574 56.1968 27.4555 56.1449 27.4437 56.0948C27.4319 56.0447 27.4103 55.9974 27.3803 55.9557C27.3502 55.9139 27.3122 55.8785 27.2684 55.8514C27.2246 55.8244 27.176 55.8062 27.1252 55.798C27.0744 55.7897 27.0225 55.7916 26.9725 55.8034C26.9224 55.8152 26.8751 55.8368 26.8334 55.8669C26.7917 55.897 26.7563 55.935 26.7292 55.9788C26.7022 56.0226 26.684 56.0713 26.6758 56.1221L25.5495 63.0819L24.0985 65.5844C24.0727 65.629 24.0559 65.6783 24.0492 65.7294C24.0424 65.7805 24.0457 65.8325 24.059 65.8823C24.0723 65.9321 24.0953 65.9788 24.1266 66.0197C24.1579 66.0606 24.197 66.095 24.2416 66.1208C24.2862 66.1466 24.3355 66.1634 24.3865 66.1701C24.4376 66.1769 24.4895 66.1736 24.5393 66.1603C24.5891 66.147 24.6358 66.124 24.6767 66.0926C24.7176 66.0613 24.7519 66.0222 24.7777 65.9776L26.2028 63.5198L38.7474 57.5793L43.0596 66.8651C42.3145 67.5157 39.5521 69.8071 34.3104 72.8652C35.1097 71.2792 34.6751 69.7239 34.6681 69.7011C34.6342 69.6065 34.5653 69.5285 34.4757 69.4831C34.3861 69.4378 34.2826 69.4284 34.1863 69.457C34.09 69.4857 34.0083 69.5501 33.9581 69.6371C33.9078 69.7241 33.8927 69.827 33.9159 69.9248C33.9496 70.0362 34.6673 72.6117 31.93 74.2047C27.104 76.8469 19.4153 81.8834 15.7023 78.6542C11.6237 75.0954 12.0041 64.2237 12.5893 58.0627C13.4991 51.9198 18.8443 49.134 18.9031 49.105C18.9952 49.0577 19.0649 48.9759 19.097 48.8774C19.1291 48.7789 19.1209 48.6718 19.0743 48.5793C19.0277 48.4868 18.9465 48.4165 18.8483 48.3837C18.7501 48.3509 18.6429 48.3582 18.5501 48.4042C18.5015 48.4277 15.056 50.2256 13.0599 54.0896C13.0951 53.8495 13.1187 53.7012 13.121 53.6839C14.9642 35.7056 28.9331 33.0218 29.0664 32.9983C32.7214 32.4019 34.0469 32.4803 34.3136 32.5039L36.4548 34.1597C36.6124 34.2821 36.847 34.2601 36.9881 34.1047L38.3372 32.5667C44.9946 32.8758 48.0299 34.1958 49.8488 35.3415C48.9091 35.1728 48.1664 35.1688 48.1131 35.1673C48.009 35.1673 47.9093 35.2086 47.8358 35.2822C47.7622 35.3558 47.7209 35.4556 47.7209 35.5596C47.7209 35.6637 47.7622 35.7635 47.8358 35.8371C47.9093 35.9107 48.009 35.952 48.1131 35.952H48.1146C48.1468 35.952 50.797 35.9677 52.2778 37.1244C52.8065 37.5482 53.4959 38.1289 54.3061 38.9466V46.1112C54.3061 46.3231 54.4787 46.5036 54.6983 46.5036H56.3893C55.9682 49.3256 55.6605 52.1634 55.4669 55.0101C55.4655 55.1108 55.5026 55.2082 55.5707 55.2823C55.6388 55.3564 55.7327 55.4017 55.8331 55.4087C55.9335 55.4157 56.0328 55.384 56.1105 55.3201C56.1883 55.2562 56.2386 55.1649 56.2512 55.065C56.5336 50.8824 57.0199 47.5316 57.1846 46.5036H66.0004C66.1816 48.2143 66.9244 55.9424 66.551 63.548C65.8749 60.074 64.4647 57.5024 64.3667 57.3282C64.3157 57.2375 64.2308 57.1707 64.1307 57.1426C64.0305 57.1145 63.9233 57.1273 63.8326 57.1783C63.7419 57.2293 63.6751 57.3143 63.647 57.4145C63.6189 57.5147 63.6318 57.622 63.6828 57.7127C67.4467 64.4144 65.6616 71.2792 65.664 71.2824C64.2475 78.2736 60.6505 81.3537 58.1344 79.5331C55.3657 77.5265 53.9759 70.4929 53.5469 67.077V61.9299C53.5469 61.8258 53.5056 61.726 53.432 61.6525C53.3585 61.5789 53.2587 61.5375 53.1547 61.5375C53.0507 61.5375 52.951 61.5789 52.8774 61.6525C52.8039 61.726 52.7626 61.8258 52.7626 61.9299V67.1139C52.7626 67.1256 52.7688 67.1358 52.7696 67.1476C52.7696 67.1507 52.768 67.1539 52.7696 67.1578C52.7876 67.3383 54.0379 75.844 54.2889 84.5679H32.2814C32.1774 84.5679 32.0776 84.6093 32.0041 84.6829C31.9305 84.7565 31.8892 84.8563 31.8892 84.9603C31.8892 85.0644 31.9305 85.1642 32.0041 85.2378C32.0776 85.3114 32.1774 85.3527 32.2814 85.3527H54.3085C54.3579 87.7461 54.2951 89.3517 54.1649 89.8681H19.2474L21.5039 80.0667L21.5031 80.0675ZM47.6323 56.3865C47.2777 57.1148 49.2621 57.1226 49.8911 60.5872C50.4354 63.5323 49.477 63.1258 49.4519 63.2043C49.2841 60.7434 47.5381 57.8697 46.8495 58.623C46.7796 58.7 46.7432 58.8017 46.7482 58.9055C46.7532 59.0094 46.7992 59.1071 46.8762 59.177C48.3664 60.5284 48.9601 63.0968 48.6495 64.5556C48.5852 64.8554 48.2291 65.0249 48.0291 65.0673C48.2182 62.0115 46.3452 59.1676 45.6659 59.9116C45.0008 60.6469 47.6401 61.0023 47.2354 65.2839C47.1846 65.3242 47.1254 65.3529 47.0623 65.3678C46.9991 65.3827 46.9334 65.3835 46.8699 65.3702C46.5405 64.7212 46.4275 62.7688 45.2377 62.0398C45.1788 62.0038 45.1114 61.9841 45.0424 61.9826C44.9734 61.9811 44.9052 61.9978 44.8447 62.0311C44.7842 62.0644 44.7336 62.113 44.698 62.1721C44.6623 62.2312 44.6429 62.2987 44.6416 62.3678C44.6416 62.3898 44.5828 64.4701 43.2165 65.0084L40.2023 58.6795C40.96 57.7355 44.6024 53.4971 48.4142 54.0747C51.8363 54.5942 54.823 56.7663 55.9485 57.6766C56.2481 57.9183 56.354 58.3162 56.201 58.6222C56.0952 58.8357 55.8748 58.9479 54.0975 58.3225C48.3844 56.4273 47.9185 55.8097 47.6323 56.3865ZM18.6694 105.826C18.6184 105.819 18.5694 105.802 18.5251 105.775C18.4808 105.749 18.4422 105.714 18.4114 105.673C18.3806 105.631 18.3582 105.584 18.3455 105.534C18.3329 105.484 18.3302 105.433 18.3376 105.381C18.345 105.33 18.3624 105.281 18.3888 105.237C18.4151 105.193 18.4499 105.154 18.4912 105.123C18.5325 105.093 18.5795 105.07 18.6294 105.057C18.6794 105.045 18.7313 105.042 18.7823 105.05L23.0279 105.669C25.9017 106.091 28.4303 103.802 28.3346 100.925L28.0797 93.1953C28.078 93.1438 28.0863 93.0924 28.1044 93.0441C28.1225 92.9959 28.1499 92.9516 28.1851 92.9139C28.2203 92.8762 28.2625 92.8459 28.3095 92.8245C28.3564 92.8032 28.4071 92.7914 28.4586 92.7896C28.7143 92.7802 28.857 92.9529 28.8641 93.1687L29.119 100.898C29.2296 104.277 26.2609 106.934 22.9149 106.446L18.6694 105.826ZM19.0702 138.29C19.1439 138.217 19.2438 138.176 19.3477 138.176C19.4517 138.176 19.5513 138.218 19.6247 138.292L21.7455 140.425C21.7828 140.461 21.8126 140.504 21.833 140.552C21.8534 140.6 21.8641 140.652 21.8644 140.704C21.8647 140.756 21.8546 140.808 21.8347 140.856C21.8149 140.904 21.7856 140.948 21.7487 140.984C21.7118 141.021 21.6679 141.05 21.6197 141.07C21.5714 141.089 21.5198 141.099 21.4677 141.098C21.4157 141.098 21.3642 141.087 21.3165 141.066C21.2687 141.045 21.2255 141.015 21.1894 140.978L19.0686 138.845C18.9953 138.771 18.9543 138.671 18.9546 138.567C18.9548 138.463 18.9964 138.364 19.0702 138.29ZM26.9307 177.26V178.089L23.8757 180.143L18.616 178.542V177.259H26.9299L26.9307 177.26ZM34.7371 183.15C36.883 183.632 39.8494 182.829 41.2212 185.621H18.4788L18.6043 179.361L23.8279 180.953C23.9691 180.992 24.0828 180.934 24.162 180.9L24.1652 180.898L27.3338 178.764C33.5143 182.465 34.6446 183.137 34.7371 183.15ZM33.5449 181.557L27.715 178.079V177.259H31.0672L36.8681 131.297C36.8603 131.297 36.8525 131.297 36.8446 131.296C36.794 131.286 36.7458 131.267 36.7026 131.239C36.6595 131.211 36.6224 131.175 36.5933 131.132C36.5642 131.09 36.5438 131.042 36.5332 130.991C36.5227 130.941 36.5221 130.889 36.5317 130.838L39.767 113.43C39.7765 113.379 39.7958 113.331 39.8239 113.288C39.852 113.245 39.8884 113.208 39.9308 113.178C39.9733 113.149 40.0211 113.129 40.0714 113.118C40.1218 113.108 40.1737 113.107 40.2243 113.117C40.2749 113.126 40.3231 113.145 40.3662 113.174C40.4093 113.202 40.4464 113.238 40.4754 113.281C40.5045 113.323 40.5249 113.371 40.5355 113.421C40.5461 113.472 40.5467 113.524 40.5372 113.574L37.3019 130.982C37.2863 131.063 37.2452 131.137 37.1845 131.194C37.1238 131.25 37.0468 131.285 36.9646 131.294L42.5467 177.259H45.7114L45.655 181.557H33.5449ZM66.0946 183.511C66.7339 183.579 67.3456 183.807 67.8721 184.176C68.3986 184.545 68.8225 185.043 69.104 185.621H46.3562C46.5718 175.083 46.2856 188.976 46.4864 179.362L51.71 180.953C51.859 180.996 51.9617 180.933 52.0402 180.9C52.1194 180.846 55.4253 178.622 55.2167 178.764L61.1933 182.342C63.1314 183.472 61.62 182.997 66.0946 183.511ZM263.039 133.736C261.102 134.732 255.831 138.248 252.671 148.128C245.585 145.063 238.453 145.66 231.243 148.669C235.635 143.568 241.463 139.959 248.435 138.075C248.531 138.043 248.61 137.976 248.658 137.888C248.706 137.799 248.718 137.696 248.692 137.598C248.666 137.501 248.604 137.418 248.518 137.365C248.432 137.312 248.33 137.294 248.231 137.314C240.545 139.394 234.231 143.513 229.643 149.399C228.227 150.082 226.87 150.883 225.588 151.792V135.211C241.094 122.734 259.392 131.719 263.039 133.736ZM224.803 180.306L169.666 137.883L181.066 130.506L224.803 102.203V180.306ZM224.539 101.44L212.097 109.49V90.9196L224.539 101.438V101.44ZM103.311 76.0803C96.4088 76.0803 90.8009 70.4694 90.8009 63.5716C90.8009 56.6659 96.4088 51.055 103.311 51.055C109.978 51.055 115.445 56.3049 115.797 62.8967C115.805 63.1164 115.813 63.344 115.813 63.5716V63.6814C115.758 69.6925 111.444 74.707 105.75 75.8448C105.491 75.8919 105.233 75.939 104.966 75.9704C104.425 76.041 103.876 76.0803 103.311 76.0803ZM116.597 63.6814H211.313V109.997L169.003 137.371L158.943 129.631C158.831 129.534 158.688 129.48 158.539 129.48C158.391 129.48 158.247 129.534 158.135 129.631L148.069 137.375L105.75 109.993V76.6374C111.884 75.4995 116.543 70.132 116.597 63.6814ZM104.966 109.486L92.5303 101.44L104.966 90.9157V109.487V109.486ZM92.2652 102.203L147.406 137.884L92.2652 180.303V102.204V102.203ZM245.925 176.315C244.498 178.567 242.647 180.325 240.419 181.557H225.755C225.887 181.172 225.633 180.987 225.588 180.908V167.565C239.023 153.769 253.886 158.47 254.067 158.525C254.278 158.595 254.498 158.485 254.561 158.281C254.578 158.232 254.585 158.181 254.582 158.129C254.579 158.077 254.566 158.026 254.543 157.98C254.521 157.933 254.489 157.891 254.451 157.857C254.412 157.822 254.367 157.796 254.318 157.779C254.137 157.724 239.219 152.984 225.588 166.45V152.718C231.839 148.066 242.59 144.589 252.435 148.88C252.686 148.99 252.937 149.108 253.188 149.225C260.553 152.718 265.039 159.105 266.334 161.138C263.714 161.106 254.937 162.127 245.925 176.315Z" fill="#CE0606"/>
<path d="M250.063 152.794C249.123 153.023 248.341 153.477 247.738 154.147C247.389 154.533 247.978 155.052 248.32 154.672C248.816 154.123 249.465 153.748 250.248 153.558C250.349 153.533 250.436 153.469 250.491 153.38C250.545 153.291 250.562 153.185 250.537 153.083C250.512 152.982 250.448 152.896 250.359 152.842C250.27 152.788 250.164 152.771 250.063 152.794ZM242.859 153.41C241.699 153.546 240.913 154.129 240.456 155.187C240.414 155.283 240.413 155.391 240.451 155.487C240.489 155.584 240.564 155.662 240.66 155.703C240.755 155.744 240.863 155.746 240.96 155.708C241.057 155.669 241.134 155.594 241.176 155.499C241.517 154.708 242.081 154.292 242.951 154.188C243.002 154.182 243.052 154.166 243.097 154.141C243.142 154.116 243.181 154.082 243.213 154.042C243.245 154.001 243.268 153.955 243.282 153.905C243.296 153.856 243.3 153.804 243.294 153.753C243.27 153.537 243.071 153.374 242.859 153.41ZM238.12 164.301C237.275 164.084 236.531 163.583 236.014 162.881C235.95 162.805 235.859 162.756 235.76 162.744C235.661 162.733 235.562 162.759 235.482 162.817C235.401 162.876 235.346 162.963 235.327 163.06C235.308 163.158 235.327 163.259 235.379 163.344C236.003 164.197 236.904 164.805 237.928 165.063C238.026 165.079 238.125 165.057 238.208 165.003C238.29 164.949 238.349 164.866 238.373 164.77C238.397 164.675 238.384 164.573 238.337 164.487C238.29 164.4 238.213 164.334 238.12 164.302V164.301ZM245.965 162.343C245.095 162.201 244.295 161.779 243.686 161.14C243.614 161.065 243.515 161.022 243.411 161.019C243.307 161.017 243.207 161.056 243.132 161.128C243.057 161.2 243.013 161.299 243.011 161.403C243.009 161.507 243.048 161.608 243.12 161.683C243.812 162.407 246.124 163.725 246.284 162.798C246.293 162.747 246.292 162.695 246.281 162.644C246.27 162.594 246.249 162.546 246.219 162.504C246.189 162.462 246.152 162.426 246.108 162.398C246.065 162.371 246.016 162.352 245.965 162.343ZM252.525 161.714C251.811 161.49 251.064 161.172 250.467 159.964C250.419 159.874 250.338 159.806 250.241 159.775C250.144 159.744 250.038 159.751 249.947 159.797C249.855 159.842 249.785 159.921 249.751 160.017C249.717 160.113 249.722 160.219 249.764 160.311C250.497 161.798 251.453 162.201 252.292 162.463C252.391 162.494 252.499 162.484 252.591 162.436C252.683 162.387 252.752 162.304 252.783 162.205C252.814 162.106 252.804 161.998 252.755 161.906C252.707 161.814 252.624 161.745 252.525 161.714ZM236.711 153.89C235.783 154.595 235.146 155.617 234.921 156.761C234.824 157.271 235.595 157.417 235.692 156.908C235.88 155.955 236.41 155.104 237.183 154.517C237.266 154.454 237.321 154.361 237.336 154.258C237.351 154.155 237.324 154.051 237.261 153.967C237.199 153.884 237.106 153.829 237.003 153.814C236.9 153.8 236.795 153.827 236.712 153.889L236.711 153.89ZM125.449 87.229H191.615C191.826 87.229 191.993 87.0619 191.993 86.8492V72.0742C191.993 71.9738 191.953 71.8775 191.882 71.8064C191.811 71.7354 191.715 71.6954 191.615 71.6952H125.449C125.349 71.6966 125.253 71.737 125.182 71.8077C125.111 71.8785 125.071 71.9741 125.069 72.0742V86.8492C125.069 87.0619 125.244 87.229 125.449 87.229ZM119.925 95.3707H197.143C197.247 95.3707 197.347 95.3293 197.421 95.2558C197.494 95.1822 197.535 95.0824 197.535 94.9783C197.535 94.8743 197.494 94.7744 197.421 94.7009C197.347 94.6273 197.247 94.5859 197.143 94.5859H119.925C119.821 94.5859 119.721 94.6273 119.647 94.7009C119.574 94.7744 119.532 94.8743 119.532 94.9783C119.532 95.0824 119.574 95.1822 119.647 95.2558C119.721 95.3293 119.821 95.3707 119.925 95.3707ZM119.925 103.278H197.143C197.247 103.278 197.347 103.236 197.421 103.163C197.494 103.089 197.535 102.989 197.535 102.885C197.535 102.781 197.494 102.681 197.421 102.608C197.347 102.534 197.247 102.493 197.143 102.493H119.925C119.821 102.493 119.721 102.534 119.647 102.608C119.574 102.681 119.532 102.781 119.532 102.885C119.532 102.989 119.574 103.089 119.647 103.163C119.721 103.236 119.821 103.278 119.925 103.278ZM119.925 111.184H197.143C197.247 111.184 197.347 111.143 197.421 111.069C197.494 110.995 197.535 110.896 197.535 110.792C197.535 110.687 197.494 110.588 197.421 110.514C197.347 110.44 197.247 110.399 197.143 110.399H119.925C119.821 110.399 119.721 110.44 119.647 110.514C119.574 110.588 119.532 110.687 119.532 110.792C119.532 110.896 119.574 110.995 119.647 111.069C119.721 111.143 119.821 111.184 119.925 111.184ZM185.178 118.305H131.89C131.786 118.305 131.687 118.347 131.613 118.42C131.54 118.494 131.498 118.594 131.498 118.698C131.498 118.802 131.54 118.902 131.613 118.975C131.687 119.049 131.786 119.09 131.89 119.09H185.178C185.282 119.09 185.381 119.049 185.455 118.975C185.528 118.902 185.57 118.802 185.57 118.698C185.57 118.594 185.528 118.494 185.455 118.42C185.381 118.347 185.282 118.305 185.178 118.305ZM77.1945 30.7446C77.1814 30.8067 77.184 30.8712 77.2019 30.9321C77.2199 30.993 77.2527 31.0486 77.2974 31.0937C77.3421 31.1388 77.3973 31.1721 77.4581 31.1906C77.5188 31.2091 77.5832 31.2122 77.6454 31.1997H80.5577C80.611 31.1997 80.6565 31.1919 80.702 31.1691L84.5852 29.5541C87.6801 30.8709 89.71 30.7673 92.794 30.7673C101.254 30.7673 108.138 23.8805 108.138 15.4155C108.138 5.64713 99.1517 -0.754739 92.5359 0.0715874C90.7594 0.051969 90.4676 0.0362738 90.0386 0.0778648C81.8228 0.362724 75.2227 7.124 75.2227 15.4155C75.2227 18.8197 76.3113 22.0387 78.3725 24.7382L77.1945 30.7446ZM76.007 15.4155C76.007 7.37669 82.5412 0.835135 90.572 0.835135C98.6082 0.835135 105.145 7.37669 105.145 15.4155C105.145 26.5941 93.0395 33.5641 83.4346 28.1204C83.3826 28.0909 83.3245 28.0737 83.2649 28.0701C83.2052 28.0664 83.1455 28.0764 83.0903 28.0992L78.1051 30.1756L79.1757 24.7146C79.1867 24.6595 79.1857 24.6026 79.1727 24.5479C79.1597 24.4932 79.135 24.4419 79.1004 24.3976C77.0869 21.838 75.9969 18.6728 76.007 15.4155Z" fill="#CE0606"/>
<path d="M82.9555 17.5768C83.5802 17.5749 84.1788 17.3258 84.6206 16.8838C85.0623 16.4418 85.3113 15.8429 85.3132 15.2179C85.3132 13.9136 84.252 12.8441 82.9555 12.8441C82.327 12.8463 81.7248 13.0972 81.2804 13.5418C80.8359 13.9865 80.5852 14.589 80.5829 15.2179C80.5829 16.515 81.652 17.5768 82.9555 17.5768ZM90.5745 17.5768C91.2004 17.5766 91.8008 17.3282 92.2442 16.8861C92.6875 16.444 92.9377 15.8442 92.94 15.2179C92.94 13.9136 91.8788 12.8441 90.5745 12.8441C89.2701 12.8441 88.2089 13.9136 88.2089 15.2179C88.2112 15.8442 88.4614 16.444 88.9048 16.8861C89.3482 17.3282 89.9485 17.5766 90.5745 17.5768ZM98.2005 17.5768C98.8265 17.5766 99.4268 17.3282 99.8702 16.8861C100.314 16.444 100.564 15.8442 100.566 15.2179C100.565 14.5897 100.316 13.9873 99.8729 13.5425C99.4296 13.0977 98.8283 12.8465 98.2005 12.8441C97.5728 12.8468 96.9717 13.098 96.5286 13.5428C96.0855 13.9876 95.8364 14.5898 95.8358 15.2179C95.8382 15.844 96.0884 16.4436 96.5316 16.8856C96.9747 17.3277 97.5747 17.5762 98.2005 17.5768ZM195.964 25.5301L203.517 28.6518L205.752 36.2716C205.772 36.35 205.89 36.7808 206.435 36.4756L211.727 32.0426L214.989 33.3908H214.991C215.198 33.4614 215.367 33.3947 215.469 33.2417L226.544 16.4327C226.686 16.2443 226.582 15.9226 226.327 15.8441C226.321 15.8425 226.315 15.8386 226.309 15.8363C226.24 15.8343 226.171 15.8359 226.102 15.841L196.003 24.7901H196.002C195.621 24.9054 195.666 25.4053 195.965 25.5293L195.964 25.5301ZM214.989 32.5425L206.56 29.059L206.599 28.4313L206.67 28.392V28.3842C231.312 13.0394 203.155 30.583 224.941 17.0055L225.295 16.9004L214.99 32.5425H214.989ZM222.325 17.7832L203.517 27.5217C203.431 27.5688 203.368 27.6395 203.337 27.7258L197.291 25.2295C231.061 15.1849 220.066 18.4557 222.325 17.7832ZM184.716 51.0042C184.734 50.9562 184.743 50.905 184.742 50.8536C184.741 50.8022 184.73 50.7514 184.709 50.7044C184.688 50.6573 184.658 50.6148 184.621 50.5792C184.584 50.5437 184.54 50.5158 184.492 50.4972C183.768 50.2163 183.087 49.8695 182.469 49.4677C182.426 49.4379 182.377 49.4171 182.326 49.4065C182.274 49.3958 182.221 49.3956 182.17 49.4058C182.119 49.4159 182.07 49.4363 182.026 49.4657C181.983 49.4951 181.946 49.5328 181.917 49.5768C181.889 49.6207 181.869 49.6699 181.86 49.7215C181.851 49.7731 181.852 49.8261 181.864 49.8772C181.875 49.9283 181.897 49.9766 181.927 50.0192C181.958 50.0618 181.997 50.0979 182.041 50.1253C182.724 50.5666 183.45 50.9364 184.208 51.2286C184.407 51.3063 184.637 51.209 184.716 51.0042ZM183.606 56.4644C184.4 56.3079 185.177 56.0764 185.928 55.773C185.975 55.7537 186.019 55.7251 186.055 55.6889C186.092 55.6528 186.121 55.6097 186.141 55.5623C186.161 55.5148 186.172 55.4639 186.172 55.4124C186.172 55.3609 186.163 55.3099 186.143 55.2622C186.124 55.2144 186.095 55.171 186.059 55.1343C186.023 55.0977 185.98 55.0685 185.933 55.0485C185.885 55.0284 185.834 55.0179 185.783 55.0176C185.731 55.0172 185.68 55.027 185.633 55.0464C184.946 55.3249 184.213 55.5439 183.452 55.6953C183.353 55.7187 183.267 55.7796 183.212 55.8652C183.157 55.9508 183.138 56.0544 183.158 56.1542C183.178 56.2539 183.236 56.342 183.319 56.3999C183.403 56.4578 183.506 56.4809 183.606 56.4644ZM184.781 38.344C184.777 38.4481 184.814 38.5495 184.885 38.626C184.955 38.7024 185.053 38.7478 185.157 38.7521C185.88 38.7796 186.604 38.9412 187.309 39.2308C187.404 39.2648 187.509 39.2609 187.601 39.2197C187.693 39.1786 187.766 39.1034 187.805 39.0098C187.843 38.9163 187.844 38.8115 187.807 38.7173C187.77 38.6231 187.699 38.5468 187.607 38.5041C186.838 38.1853 186.019 38.0034 185.188 37.9666C185.085 37.9655 184.985 38.0039 184.909 38.0739C184.834 38.144 184.787 38.2403 184.78 38.3433L184.781 38.344ZM178.451 56.2345C178.442 56.3381 178.474 56.4412 178.541 56.5212C178.607 56.6012 178.702 56.6516 178.806 56.6613C179.669 56.743 180.454 56.7634 181.207 56.7375C181.311 56.7338 181.409 56.689 181.48 56.6129C181.551 56.5368 181.588 56.4357 181.585 56.3318C181.579 56.2285 181.534 56.1315 181.458 56.0609C181.382 55.9903 181.283 55.9516 181.179 55.9527C180.43 55.9794 179.673 55.9543 178.879 55.8797C178.673 55.8719 178.473 56.0194 178.451 56.2345ZM186.226 51.424C186.187 51.6375 186.328 51.8423 186.542 51.8823C187.325 52.0259 188.129 52.1154 188.934 52.1468H188.95C189.054 52.1488 189.154 52.1095 189.229 52.0374C189.304 51.9653 189.348 51.8663 189.35 51.7622C189.352 51.6582 189.312 51.5575 189.24 51.4825C189.168 51.4074 189.069 51.3641 188.965 51.362C188.2 51.3326 187.437 51.2487 186.684 51.1109C186.633 51.1009 186.581 51.1012 186.53 51.1116C186.48 51.1221 186.432 51.1425 186.389 51.1718C186.347 51.201 186.31 51.2384 186.282 51.2819C186.254 51.3253 186.235 51.3731 186.226 51.424ZM183.002 39.095C183.096 39.0557 183.17 38.9817 183.211 38.8885C183.251 38.7954 183.253 38.6902 183.218 38.5951C183.183 38.5 183.112 38.4224 183.02 38.3783C182.929 38.3343 182.824 38.3274 182.728 38.359C181.948 38.6544 181.227 39.0877 180.6 39.6381C180.522 39.7068 180.475 39.8038 180.468 39.9076C180.461 40.0115 180.496 40.1138 180.564 40.1921C181.011 40.7014 181.264 39.7448 183.002 39.095ZM189.281 52.4348C188.78 53.0009 188.217 53.5099 187.604 53.9524C187.562 53.9825 187.526 54.0206 187.499 54.0644C187.472 54.1082 187.454 54.157 187.445 54.2079C187.437 54.2588 187.439 54.3108 187.451 54.3611C187.462 54.4113 187.484 54.4587 187.514 54.5006C187.544 54.5425 187.582 54.578 187.626 54.6052C187.67 54.6324 187.718 54.6507 187.769 54.659C187.82 54.6674 187.872 54.6656 187.922 54.6538C187.973 54.6421 188.02 54.6205 188.062 54.5904C188.722 54.1134 189.328 53.5653 189.868 52.9558C189.902 52.9173 189.929 52.8724 189.945 52.8237C189.962 52.775 189.969 52.7234 189.966 52.672C189.963 52.6205 189.95 52.5702 189.928 52.5238C189.905 52.4775 189.874 52.436 189.835 52.4018C189.797 52.3676 189.752 52.3413 189.703 52.3244C189.654 52.3076 189.603 52.3005 189.551 52.3035C189.5 52.3066 189.45 52.3198 189.403 52.3423C189.357 52.3648 189.316 52.3962 189.281 52.4348ZM191.299 52.0769C192.111 51.9982 192.916 51.8632 193.709 51.6728C193.81 51.6484 193.898 51.5849 193.952 51.496C194.006 51.4072 194.023 51.3004 193.999 51.1992C193.974 51.0979 193.911 51.0105 193.822 50.9561C193.733 50.9017 193.627 50.8849 193.525 50.9092C192.786 51.0882 192.023 51.2176 191.26 51.2937C190.768 51.3432 190.807 52.0769 191.299 52.0769H191.299ZM180.748 48.0238C180.22 47.4454 179.819 46.8215 179.556 46.1702C179.517 46.0738 179.441 45.997 179.345 45.9566C179.249 45.9162 179.141 45.9156 179.045 45.9548C178.948 45.994 178.872 46.0699 178.831 46.1658C178.791 46.2617 178.79 46.3697 178.829 46.4661C179.127 47.2029 179.578 47.9045 180.167 48.5519C180.512 48.9317 181.1 48.4122 180.747 48.0238H180.748ZM191.846 46.2942C191.845 46.3458 191.854 46.3972 191.872 46.4453C191.891 46.4935 191.918 46.5375 191.954 46.5749C191.99 46.6123 192.032 46.6423 192.079 46.6633C192.127 46.6842 192.177 46.6955 192.229 46.6968H192.238C192.341 46.6968 192.439 46.6569 192.512 46.5855C192.585 46.5141 192.628 46.4169 192.63 46.3146C192.626 46.2173 192.701 45.1752 192.353 43.8725C192.325 43.7724 192.259 43.6872 192.169 43.6352C192.079 43.5833 191.973 43.5687 191.872 43.5947C191.772 43.6217 191.686 43.6876 191.634 43.7778C191.582 43.868 191.568 43.9751 191.594 44.0758C191.911 45.2529 191.842 46.2087 191.846 46.2942ZM196.004 50.9508C196.752 50.6573 197.478 50.3112 198.176 49.915C198.221 49.8897 198.261 49.8558 198.292 49.8153C198.324 49.7747 198.347 49.7284 198.361 49.6788C198.375 49.6292 198.378 49.5774 198.372 49.5264C198.366 49.4753 198.349 49.4261 198.324 49.3814C198.299 49.3363 198.265 49.2968 198.225 49.2649C198.184 49.233 198.138 49.2094 198.088 49.1956C198.039 49.1817 197.987 49.1778 197.936 49.1841C197.885 49.1904 197.835 49.2068 197.791 49.2323C197.124 49.6095 196.431 49.9394 195.718 50.2194C195.625 50.2606 195.552 50.3358 195.514 50.4294C195.476 50.523 195.475 50.6277 195.512 50.7219C195.549 50.816 195.62 50.8923 195.712 50.935C195.804 50.9776 195.908 50.9833 196.004 50.9508ZM190.693 42.0449C190.72 42.0904 190.756 42.1301 190.799 42.1615C190.841 42.1929 190.89 42.2153 190.941 42.2274C190.993 42.2395 191.046 42.2411 191.098 42.232C191.15 42.2229 191.2 42.2034 191.244 42.1745C191.289 42.1457 191.327 42.1082 191.356 42.0643C191.386 42.0203 191.406 41.9709 191.416 41.9189C191.426 41.8669 191.425 41.8134 191.414 41.7617C191.403 41.71 191.381 41.6611 191.35 41.618C190.9 40.9263 190.349 40.3063 189.714 39.7785C189.634 39.7149 189.532 39.6851 189.43 39.6956C189.329 39.7061 189.235 39.756 189.169 39.8347C189.104 39.9134 189.072 40.0146 189.08 40.1167C189.088 40.2189 189.135 40.3138 189.212 40.3812C189.786 40.8585 190.286 41.4193 190.693 42.0449ZM191.281 50.9744C191.687 50.2524 192.009 49.4983 192.235 48.7316C192.265 48.6317 192.253 48.5242 192.203 48.4327C192.154 48.3413 192.07 48.2733 191.97 48.2439C191.87 48.2144 191.762 48.2259 191.671 48.2757C191.58 48.3255 191.512 48.4096 191.482 48.5095C191.266 49.2338 190.97 49.9316 190.598 50.5898C190.341 51.045 191.028 51.4248 191.281 50.9744H191.281ZM206.163 38.1196C206.062 38.0995 205.956 38.1198 205.869 38.1762C205.783 38.2326 205.721 38.3207 205.698 38.4217C205.537 39.1709 205.323 39.9075 205.057 40.6261C204.876 41.1157 205.613 41.3841 205.792 40.8991C206.071 40.1449 206.296 39.3718 206.465 38.5857C206.476 38.5353 206.477 38.4832 206.468 38.4325C206.458 38.3817 206.439 38.3333 206.411 38.29C206.383 38.2467 206.347 38.2094 206.304 38.1801C206.262 38.1509 206.214 38.1303 206.163 38.1196ZM176.593 55.5415C176.251 55.4735 175.911 55.399 175.573 55.3179C175.523 55.3051 175.471 55.3025 175.42 55.3102C175.368 55.318 175.319 55.336 175.275 55.363C175.231 55.3901 175.193 55.4258 175.163 55.4679C175.133 55.51 175.112 55.5577 175.101 55.6082C175.077 55.7094 175.094 55.8159 175.148 55.9045C175.203 55.9931 175.29 56.0564 175.391 56.0806C176 56.2258 176.793 56.5538 176.901 56.0022C176.921 55.9002 176.9 55.7944 176.842 55.7081C176.784 55.6217 176.694 55.5618 176.593 55.5415ZM201.405 46.4221C200.872 46.9731 200.301 47.4863 199.697 47.9578C199.287 48.2772 199.773 48.8917 200.179 48.577C200.806 48.0881 201.409 47.5466 201.969 46.9675C202.005 46.9305 202.033 46.8867 202.052 46.8388C202.071 46.7908 202.081 46.7395 202.08 46.6878C202.079 46.6362 202.068 46.5852 202.048 46.5378C202.027 46.4904 201.997 46.4475 201.96 46.4116C201.923 46.3757 201.879 46.3475 201.831 46.3286C201.783 46.3097 201.732 46.3005 201.68 46.3015C201.629 46.3024 201.578 46.3136 201.531 46.3343C201.483 46.355 201.44 46.3848 201.405 46.4221ZM204.109 42.7197C203.748 43.3891 203.336 44.0436 202.884 44.6635C202.58 45.0834 203.21 45.5456 203.518 45.1265C203.99 44.4777 204.419 43.7979 204.8 43.0917C204.846 43.0005 204.854 42.8951 204.823 42.7978C204.792 42.7006 204.725 42.6191 204.635 42.5708C204.546 42.5224 204.441 42.5109 204.342 42.5387C204.244 42.5665 204.161 42.6314 204.11 42.7197H204.109ZM178.769 44.4116C178.82 44.4139 178.872 44.4061 178.92 44.3885C178.969 44.371 179.013 44.344 179.051 44.3092C179.089 44.2745 179.12 44.2326 179.141 44.1859C179.163 44.1392 179.175 44.0887 179.178 44.0373C179.214 43.308 179.411 42.5957 179.755 41.9515C179.78 41.9057 179.796 41.8553 179.802 41.8032C179.808 41.7512 179.803 41.6985 179.788 41.6484C179.773 41.5982 179.748 41.5516 179.714 41.5112C179.681 41.4708 179.64 41.4375 179.594 41.4133C179.547 41.389 179.497 41.3743 179.444 41.37C179.392 41.3657 179.34 41.3719 179.29 41.3882C179.24 41.4045 179.194 41.4305 179.155 41.4649C179.115 41.4992 179.083 41.5411 179.06 41.5881C178.663 42.3342 178.436 43.1587 178.395 44.0028C178.393 44.0542 178.4 44.1056 178.418 44.154C178.436 44.2024 178.462 44.2468 178.497 44.2848C178.532 44.3228 178.574 44.3535 178.621 44.3753C178.667 44.3971 178.718 44.4094 178.769 44.4116ZM112.7 63.5717C112.7 58.3846 108.488 54.1706 103.311 54.1706C98.1268 54.1706 93.9149 58.3846 93.9149 63.5717C93.9149 68.751 98.1268 72.965 103.311 72.965C108.488 72.965 112.7 68.751 112.7 63.5717ZM105.523 67.6288H101.178C100.835 67.6288 100.59 67.3863 100.59 67.0403C100.59 66.7052 100.823 66.436 101.178 66.436H102.848V60.9978L101.413 61.6962C100.53 62.0831 100.141 60.9672 100.856 60.5976L102.77 59.601C103.317 59.3271 104.127 59.5146 104.127 60.1817V66.436H105.523C105.896 66.436 106.127 66.7405 106.127 67.0403C106.127 67.351 105.886 67.6288 105.523 67.6288ZM24.0093 62.878C23.9648 62.852 23.9156 62.8351 23.8646 62.8282C23.8135 62.8213 23.7616 62.8246 23.7118 62.8379C23.662 62.8511 23.6153 62.8741 23.5744 62.9055C23.5336 62.9369 23.4993 62.9761 23.4736 63.0208L22.5913 64.5401C22.5654 64.5847 22.5486 64.6339 22.5418 64.685C22.5349 64.736 22.5382 64.788 22.5514 64.8378C22.5646 64.8876 22.5875 64.9343 22.6188 64.9753C22.6501 65.0162 22.6891 65.0506 22.7336 65.0765C22.7782 65.1023 22.8274 65.1192 22.8784 65.126C22.9295 65.1328 22.9814 65.1296 23.0312 65.1163C23.0809 65.1031 23.1276 65.0802 23.1686 65.0489C23.2095 65.0176 23.2439 64.9786 23.2697 64.934L24.1521 63.4148C24.178 63.3702 24.1948 63.3209 24.2017 63.2698C24.2085 63.2186 24.2052 63.1666 24.192 63.1168C24.1787 63.0669 24.1558 63.0202 24.1244 62.9792C24.0931 62.9382 24.054 62.9039 24.0093 62.878ZM99.2993 120.606C99.1953 120.606 99.0956 120.647 99.022 120.72C98.9485 120.794 98.9072 120.894 98.9072 120.998V160.138C98.9072 160.242 98.9485 160.342 99.022 160.416C99.0956 160.489 99.1953 160.531 99.2993 160.531C99.4034 160.531 99.5031 160.489 99.5767 160.416C99.6502 160.342 99.6915 160.242 99.6915 160.138V120.998C99.6915 120.894 99.6502 120.794 99.5767 120.72C99.5031 120.647 99.4034 120.606 99.2993 120.606ZM216.857 120.178C216.753 120.178 216.653 120.219 216.58 120.293C216.506 120.366 216.465 120.466 216.465 120.57V159.711C216.465 159.815 216.506 159.915 216.58 159.989C216.653 160.062 216.753 160.104 216.857 160.104C216.961 160.104 217.061 160.062 217.134 159.989C217.208 159.915 217.249 159.815 217.249 159.711V120.57C217.249 120.466 217.208 120.366 217.134 120.293C217.061 120.219 216.961 120.178 216.857 120.178ZM143.764 24.4056C143.849 24.4638 143.953 24.4867 144.054 24.4693C144.155 24.4519 144.245 24.3956 144.305 24.3126C144.365 24.2295 144.39 24.1262 144.375 24.0248C144.36 23.9234 144.306 23.8319 144.224 23.7699L141.404 21.7328C141.362 21.7012 141.315 21.6782 141.264 21.6653C141.213 21.6523 141.161 21.6496 141.109 21.6573C141.057 21.665 141.008 21.683 140.963 21.7101C140.918 21.7373 140.88 21.7731 140.849 21.8154C140.818 21.8578 140.797 21.9058 140.785 21.9567C140.773 22.0076 140.771 22.0604 140.78 22.1119C140.789 22.1634 140.808 22.2127 140.836 22.2567C140.864 22.3007 140.901 22.3387 140.944 22.3684L143.764 24.4056ZM129.523 41.4022C129.802 41.473 130.095 41.4699 130.372 41.3934C130.65 41.3168 130.903 41.1693 131.107 40.9654C131.31 40.7615 131.458 40.5081 131.534 40.2301C131.61 39.9522 131.613 39.6592 131.542 39.3799C131.469 39.0912 131.32 38.8276 131.109 38.6172C130.899 38.4067 130.636 38.2572 130.347 38.1847C130.068 38.1139 129.775 38.1167 129.497 38.1931C129.22 38.2694 128.967 38.4166 128.763 38.6202C128.559 38.8238 128.412 39.0769 128.335 39.3546C128.258 39.6324 128.255 39.9253 128.326 40.2047C128.465 40.7854 128.942 41.2617 129.523 41.4022ZM184.422 6.07649C184.506 6.13471 184.61 6.15758 184.711 6.1402C184.812 6.12282 184.902 6.06657 184.962 5.9835C185.022 5.90042 185.047 5.79712 185.032 5.6957C185.017 5.59428 184.963 5.50281 184.881 5.44086L182.06 3.40368C182.018 3.3721 181.971 3.34916 181.92 3.33621C181.87 3.32326 181.817 3.32055 181.765 3.32825C181.714 3.33595 181.664 3.35391 181.619 3.38106C181.575 3.4082 181.536 3.44401 181.505 3.48635C181.475 3.5287 181.453 3.57674 181.441 3.62766C181.429 3.67857 181.428 3.73134 181.437 3.78285C181.446 3.83436 181.465 3.88358 181.493 3.92762C181.521 3.97167 181.557 4.00964 181.6 4.03932L184.422 6.07649ZM172.919 25.1314C174.112 24.1424 175.41 23.2887 176.791 22.5858C176.88 22.5364 176.946 22.4545 176.976 22.3572C177.006 22.2599 176.997 22.1548 176.951 22.064C176.905 21.9733 176.826 21.9039 176.729 21.8705C176.633 21.8371 176.528 21.8423 176.436 21.885C175.004 22.6144 173.657 23.5 172.419 24.5256C172.339 24.5919 172.288 24.6874 172.278 24.7911C172.268 24.8948 172.3 24.9981 172.366 25.0785C172.432 25.1588 172.528 25.2095 172.632 25.2195C172.735 25.2294 172.838 25.1977 172.919 25.1314ZM206.057 15.5655C206.274 15.5654 206.49 15.5224 206.691 15.439C206.892 15.3556 207.074 15.2333 207.228 15.0793C207.382 14.9253 207.504 14.7424 207.587 14.5412C207.67 14.34 207.713 14.1243 207.713 13.9066C207.713 13.6888 207.67 13.4732 207.587 13.2721C207.503 13.071 207.381 12.8882 207.227 12.7343C207.073 12.5804 206.89 12.4584 206.689 12.3751C206.488 12.2919 206.273 12.2491 206.055 12.2492C205.616 12.2494 205.194 12.4243 204.883 12.7354C204.573 13.0465 204.398 13.4684 204.399 13.9082C204.399 14.3479 204.574 14.7696 204.885 15.0804C205.195 15.3912 205.617 15.5657 206.057 15.5655ZM235.671 95.111C235.891 95.1157 236.11 95.0763 236.316 94.9951C236.521 94.9138 236.708 94.7924 236.865 94.6379C237.023 94.4834 237.148 94.299 237.234 94.0954C237.319 93.8919 237.363 93.6733 237.363 93.4525C237.363 93.2317 237.319 93.0132 237.233 92.8097C237.147 92.6062 237.022 92.4219 236.864 92.2676C236.706 92.1132 236.519 91.992 236.314 91.9109C236.109 91.8299 235.89 91.7906 235.669 91.7955C235.236 91.8052 234.824 91.9842 234.521 92.2942C234.218 92.6042 234.048 93.0205 234.048 93.4541C234.049 93.8876 234.219 94.3038 234.522 94.6135C234.825 94.9232 235.237 95.1018 235.671 95.111ZM76.7946 104.15C76.879 104.211 76.9841 104.236 77.0868 104.22C77.1896 104.203 77.2815 104.147 77.3425 104.062C77.4034 103.978 77.4284 103.873 77.4118 103.77C77.3953 103.667 77.3386 103.575 77.2542 103.514L74.4338 101.477C74.3922 101.445 74.3447 101.422 74.294 101.409C74.2434 101.396 74.1907 101.394 74.1391 101.401C74.0874 101.409 74.0378 101.427 73.9931 101.454C73.9485 101.481 73.9097 101.517 73.8791 101.559C73.8485 101.602 73.8266 101.65 73.8148 101.701C73.803 101.752 73.8015 101.804 73.8104 101.856C73.8192 101.908 73.8383 101.957 73.8664 102.001C73.8945 102.045 73.9312 102.083 73.9742 102.112L76.7946 104.15ZM65.0352 121.383C64.7561 121.312 64.4634 121.315 64.1856 121.391C63.9079 121.467 63.6548 121.614 63.451 121.818C63.2472 122.022 63.0997 122.275 63.0231 122.552C62.9465 122.83 62.9434 123.123 63.014 123.402C63.1536 123.983 63.6297 124.459 64.2109 124.6C64.49 124.67 64.7828 124.667 65.0604 124.591C65.338 124.514 65.5909 124.367 65.7944 124.163C65.9979 123.959 66.1449 123.705 66.2211 123.428C66.2973 123.15 66.3 122.857 66.2289 122.578C66.1565 122.289 66.0073 122.025 65.7971 121.815C65.5869 121.605 65.3236 121.456 65.0352 121.383ZM93.0553 89.2334C93.0552 88.7934 92.8804 88.3715 92.5694 88.0604C92.2584 87.7494 91.8366 87.5747 91.3969 87.5748C90.9571 87.5749 90.5354 87.7498 90.2245 88.061C89.9137 88.3722 89.7391 88.7942 89.7392 89.2342C89.7393 89.6741 89.9141 90.096 90.2251 90.4071C90.3791 90.5611 90.5619 90.6832 90.7631 90.7666C90.9643 90.8499 91.1799 90.8928 91.3976 90.8927C91.6154 90.8926 91.831 90.8497 92.0321 90.7663C92.2333 90.6829 92.416 90.5606 92.57 90.4065C92.7239 90.2524 92.846 90.0695 92.9293 89.8682C93.0125 89.667 93.0554 89.4512 93.0553 89.2334ZM248.977 121.438C249.194 121.438 249.41 121.395 249.611 121.312C249.812 121.228 249.994 121.106 250.148 120.952C250.302 120.798 250.424 120.615 250.507 120.414C250.59 120.213 250.633 119.997 250.633 119.779C250.633 119.561 250.59 119.346 250.507 119.145C250.423 118.944 250.301 118.761 250.147 118.607C249.993 118.453 249.81 118.331 249.609 118.248C249.408 118.165 249.193 118.122 248.975 118.122C248.536 118.122 248.114 118.297 247.803 118.608C247.493 118.919 247.318 119.341 247.319 119.781C247.319 120.221 247.494 120.642 247.805 120.953C248.115 121.264 248.537 121.438 248.977 121.438ZM13.8523 38.7003C14.1315 38.7709 14.4242 38.7677 14.7018 38.691C14.9795 38.6143 15.2324 38.4669 15.4359 38.263C15.6394 38.0592 15.7865 37.8059 15.8628 37.5281C15.9391 37.2502 15.942 36.9573 15.8711 36.678C15.7986 36.3896 15.6493 36.1262 15.4391 35.9159C15.2289 35.7056 14.9657 35.5562 14.6774 35.4837C14.3983 35.4126 14.1056 35.4153 13.8278 35.4915C13.5501 35.5677 13.297 35.7149 13.0932 35.9184C12.8894 36.122 12.742 36.3751 12.6653 36.6528C12.5887 36.9306 12.5856 37.2235 12.6562 37.5028C12.7958 38.0835 13.2719 38.5598 13.8523 38.7003ZM56.8554 4.90174C57.0731 4.90159 57.2885 4.85855 57.4896 4.77507C57.6906 4.6916 57.8732 4.56933 58.027 4.41525C58.1808 4.26117 58.3027 4.07829 58.3858 3.87705C58.469 3.67582 58.5117 3.46017 58.5115 3.24242C58.5114 3.02467 58.4684 2.80908 58.3849 2.60796C58.3015 2.40685 58.1793 2.22414 58.0253 2.07028C57.8713 1.91641 57.6885 1.79441 57.4874 1.71122C57.2863 1.62803 57.0707 1.5853 56.8531 1.58545C56.4135 1.58576 55.9921 1.76076 55.6815 2.07194C55.371 2.38313 55.1967 2.80501 55.197 3.24477C55.1973 3.68454 55.3722 4.10617 55.6832 4.41692C55.9942 4.72766 56.4159 4.90206 56.8554 4.90174ZM56.0931 65.3115C57.2858 64.3225 58.5842 63.4685 59.9645 62.765C60.0103 62.7417 60.0511 62.7095 60.0846 62.6704C60.118 62.6313 60.1434 62.586 60.1593 62.5371C60.1752 62.4881 60.1813 62.4365 60.1773 62.3852C60.1733 62.3339 60.1592 62.2839 60.1359 62.2381C60.1126 62.1922 60.0804 62.1514 60.0413 62.118C60.0022 62.0845 59.9569 62.0591 59.908 62.0432C59.8591 62.0273 59.8076 62.0211 59.7563 62.0252C59.705 62.0292 59.655 62.0433 59.6092 62.0666C58.177 62.7957 56.8299 63.6813 55.5927 64.7072C55.5135 64.7739 55.4638 64.8692 55.4545 64.9723C55.4453 65.0755 55.4771 65.1781 55.5432 65.2578C55.6092 65.3376 55.7041 65.388 55.8071 65.398C55.9101 65.4081 56.0129 65.377 56.0931 65.3115ZM250.883 78.3491C251.556 77.7911 252.263 77.2753 253 76.8047C253.045 76.7779 253.085 76.7422 253.116 76.6999C253.147 76.6576 253.169 76.6094 253.182 76.5583C253.194 76.5071 253.195 76.4541 253.187 76.4023C253.178 76.3504 253.159 76.3009 253.131 76.2565C253.103 76.2122 253.066 76.174 253.022 76.1442C252.979 76.1144 252.93 76.0936 252.879 76.083C252.827 76.0724 252.774 76.0723 252.723 76.0827C252.671 76.093 252.622 76.1136 252.579 76.1432C251.815 76.6316 251.082 77.1662 250.383 77.7441C250.303 77.8103 250.252 77.9058 250.242 78.0094C250.232 78.113 250.264 78.2163 250.33 78.2965C250.397 78.3767 250.492 78.4274 250.596 78.4372C250.699 78.4471 250.802 78.4154 250.883 78.3491ZM243.017 52.1146C243.102 52.1756 243.207 52.2005 243.31 52.184C243.412 52.1674 243.504 52.1107 243.565 52.0263C243.626 51.9419 243.651 51.8367 243.635 51.7339C243.618 51.6311 243.561 51.5391 243.477 51.4782L240.656 49.4402C240.615 49.4086 240.567 49.3857 240.517 49.3727C240.466 49.3598 240.413 49.3571 240.362 49.3648C240.31 49.3725 240.26 49.3904 240.216 49.4176C240.171 49.4447 240.132 49.4805 240.102 49.5229C240.071 49.5652 240.049 49.6133 240.038 49.6642C240.026 49.7151 240.024 49.7679 240.033 49.8194C240.042 49.8709 240.061 49.9201 240.089 49.9641C240.117 50.0082 240.154 50.0462 240.197 50.0758L243.017 52.1146ZM226.684 71.1146C226.717 71.1545 226.758 71.1876 226.803 71.2118C226.849 71.2361 226.898 71.2512 226.95 71.2561C227.001 71.2611 227.053 71.2559 227.102 71.2407C227.152 71.2256 227.198 71.2009 227.237 71.168C228.43 70.179 229.729 69.3252 231.11 68.6223C231.199 68.573 231.265 68.491 231.295 68.3937C231.325 68.2964 231.316 68.1913 231.27 68.1006C231.224 68.0098 231.144 67.9404 231.048 67.907C230.952 67.8736 230.847 67.8788 230.754 67.9215C229.322 68.6509 227.975 69.5365 226.738 70.5622C226.698 70.5949 226.665 70.6352 226.641 70.6807C226.617 70.7262 226.602 70.776 226.597 70.8273C226.592 70.8786 226.597 70.9304 226.612 70.9797C226.627 71.029 226.652 71.0748 226.684 71.1146ZM122.07 17.2229C122.49 17.5274 122.95 16.8894 122.53 16.5872L119.709 14.5485C119.668 14.5169 119.62 14.494 119.569 14.481C119.519 14.4681 119.466 14.4654 119.414 14.4731C119.363 14.4808 119.313 14.4987 119.268 14.5259C119.224 14.553 119.185 14.5888 119.154 14.6312C119.124 14.6735 119.102 14.7216 119.09 14.7725C119.078 14.8234 119.077 14.8761 119.086 14.9277C119.095 14.9792 119.114 15.0284 119.142 15.0724C119.17 15.1165 119.207 15.1545 119.25 15.1841L122.07 17.2229ZM32.8393 12.6659C32.9237 12.7241 33.0274 12.747 33.1284 12.7296C33.2294 12.7122 33.3196 12.656 33.3797 12.5729C33.4398 12.4898 33.465 12.3865 33.4499 12.2851C33.4348 12.1837 33.3806 12.0922 33.2989 12.0303L30.4785 9.99232C30.4368 9.96074 30.3893 9.9378 30.3387 9.92485C30.2881 9.9119 30.2354 9.90919 30.1838 9.91689C30.1321 9.92459 30.0825 9.94254 30.0378 9.96969C29.9932 9.99684 29.9544 10.0326 29.9238 10.075C29.8932 10.1173 29.8713 10.1654 29.8595 10.2163C29.8477 10.2672 29.8462 10.32 29.855 10.3715C29.8639 10.423 29.883 10.4722 29.9111 10.5163C29.9392 10.5603 29.9759 10.5983 30.0189 10.628L32.8393 12.6659Z" fill="#CE0606"/>
</svg>
