<svg width="20" height="20" viewBox="0 0 20 20" fill="none" xmlns="http://www.w3.org/2000/svg">
<path d="M1.24978 11.25H3.12478V17.5C3.12478 17.9973 3.32232 18.4742 3.67396 18.8258C4.02559 19.1775 4.5025 19.375 4.99978 19.375H6.87478C7.37206 19.375 7.84897 19.1775 8.20061 18.8258C8.55224 18.4742 8.74978 17.9973 8.74978 17.5V15.625C8.74978 15.4592 8.81563 15.3003 8.93284 15.1831C9.05005 15.0659 9.20902 15 9.37478 15H10.6248C10.7905 15 10.9495 15.0659 11.0667 15.1831C11.1839 15.3003 11.2498 15.4592 11.2498 15.625V17.5C11.2498 17.9973 11.4473 18.4742 11.799 18.8258C12.1506 19.1775 12.6275 19.375 13.1248 19.375H14.9998C15.4971 19.375 15.974 19.1775 16.3256 18.8258C16.6772 18.4742 16.8748 17.9973 16.8748 17.5V11.25H18.7498C18.8715 11.25 18.9906 11.2144 19.0924 11.1476C19.1942 11.0808 19.2742 10.9858 19.3228 10.8741C19.3713 10.7625 19.3862 10.6391 19.3655 10.5191C19.3449 10.3991 19.2897 10.2878 19.2067 10.1988L10.4567 0.823759C10.3968 0.763552 10.3256 0.715775 10.2472 0.683174C10.1688 0.650572 10.0847 0.633789 9.99978 0.633789C9.91487 0.633789 9.83079 0.650572 9.75238 0.683174C9.67398 0.715775 9.60279 0.763552 9.54291 0.823759L0.792905 10.1988C0.70988 10.2878 0.654664 10.3991 0.634037 10.5191C0.61341 10.6391 0.628271 10.7625 0.676794 10.8741C0.725316 10.9858 0.805389 11.0808 0.907179 11.1476C1.00897 11.2144 1.12804 11.25 1.24978 11.25ZM9.99978 2.16626L17.3123 10H16.2498C16.084 10 15.925 10.0659 15.8078 10.1831C15.6906 10.3003 15.6248 10.4592 15.6248 10.625V17.5C15.6248 17.6658 15.5589 17.8247 15.4417 17.942C15.3245 18.0592 15.1655 18.125 14.9998 18.125H13.1248C12.959 18.125 12.8 18.0592 12.6828 17.942C12.5656 17.8247 12.4998 17.6658 12.4998 17.5V15.625C12.4998 15.1277 12.3022 14.6508 11.9506 14.2992C11.599 13.9476 11.1221 13.75 10.6248 13.75H9.37478C8.8775 13.75 8.40059 13.9476 8.04895 14.2992C7.69732 14.6508 7.49978 15.1277 7.49978 15.625V17.5C7.49978 17.6658 7.43393 17.8247 7.31672 17.942C7.19951 18.0592 7.04054 18.125 6.87478 18.125H4.99978C4.83402 18.125 4.67505 18.0592 4.55784 17.942C4.44063 17.8247 4.37478 17.6658 4.37478 17.5V10.625C4.37478 10.4592 4.30893 10.3003 4.19172 10.1831C4.07451 10.0659 3.91554 10 3.74978 10H2.68728L9.99978 2.16626Z" fill="white"/>
</svg>
