<svg width="17" height="19" viewBox="0 0 17 19" fill="none" xmlns="http://www.w3.org/2000/svg">
<path fill-rule="evenodd" clip-rule="evenodd" d="M12.4052 1.52447C11.4519 0.54182 10.1067 0 8.53694 0C6.9673 0 5.62201 0.54182 4.66881 1.52447C3.71633 2.50636 3.19346 3.88891 3.19346 5.5C3.19346 7.669 4.12527 9.067 5.27851 9.9062C5.50264 10.0692 5.73427 10.2107 5.96793 10.3327C4.67915 10.6916 3.63269 11.3173 2.78068 12.0934C1.43348 13.3205 0.598491 14.8993 0.0359365 16.313C-0.0659693 16.5691 0.0562625 16.8604 0.308955 16.9637C0.561648 17.067 0.849111 16.9431 0.951017 16.687C1.48647 15.3414 2.2512 13.9202 3.44023 12.8371C4.61733 11.765 6.23609 11 8.53694 11C10.6879 11 12.2408 11.6685 13.3935 12.6279C14.5558 13.5953 15.3386 14.8816 15.8995 16.1532C16.2736 17.0016 15.6169 18 14.5862 18H3.2018C2.92933 18 2.70845 18.2239 2.70845 18.5C2.70845 18.7761 2.92933 19 3.2018 19H14.5862C16.2163 19 17.5119 17.3588 16.8002 15.7452C16.2048 14.3952 15.3436 12.9569 14.0197 11.8551C13.2339 11.2011 12.2946 10.6737 11.1698 10.3507C11.7714 10.0136 12.2659 9.5662 12.6594 9.0591C13.5108 7.962 13.8805 6.60016 13.8805 5.5C13.8805 3.88891 13.3576 2.50636 12.4052 1.52447ZM11.7016 2.22553C12.4466 2.99364 12.8938 4.11109 12.8938 5.5C12.8938 6.39984 12.5846 7.538 11.8838 8.4409C11.1966 9.3265 10.1242 10 8.53694 10C7.89499 10 6.78753 9.7731 5.85399 9.0938C4.94591 8.433 4.18015 7.33102 4.18015 5.5C4.18015 4.11109 4.62732 2.99364 5.37242 2.22553C6.11677 1.45818 7.19661 1 8.53694 1C9.87736 1 10.9572 1.45818 11.7016 2.22553Z" fill="white"/>
</svg>
