<svg width="22" height="22" viewBox="0 0 22 22" fill="none" xmlns="http://www.w3.org/2000/svg">
<path d="M10.935 9.51792C11.7518 9.51792 12.4173 10.1841 12.4173 11.0002C12.4173 11.8162 11.7511 12.4611 10.935 12.4611C10.119 12.4611 9.47408 11.8162 9.47408 11.0002C9.47408 10.1841 10.119 9.51792 10.935 9.51792ZM10.935 5.86523C15.7908 5.86523 19.2923 10.4199 19.2923 10.4199C19.5288 10.721 19.5288 11.258 19.2923 11.5584C19.2923 11.5584 15.7901 16.1131 10.935 16.1131C6.07989 16.1131 2.57777 11.5584 2.57777 11.5584C2.34127 11.2573 2.34127 10.7204 2.57777 10.4199C2.57777 10.4199 6.07989 5.86523 10.935 5.86523ZM10.935 14.6742C12.9549 14.6742 14.609 13.02 14.609 11.0002C14.609 8.9803 12.9549 7.32617 10.935 7.32617C8.91514 7.32617 7.26102 8.9803 7.26102 11.0002C7.26102 13.02 8.91514 14.6742 10.935 14.6742Z" fill="#342828"/>
</svg>
